<?xml version="1.0" encoding="utf-8" standalone="no"?>
<!DOCTYPE svg PUBLIC "-//W3C//DTD SVG 1.1//EN"
  "http://www.w3.org/Graphics/SVG/1.1/DTD/svg11.dtd">
<svg xmlns:xlink="http://www.w3.org/1999/xlink" width="758.94375pt" height="283.844616pt" viewBox="0 0 758.94375 283.844616" xmlns="http://www.w3.org/2000/svg" version="1.1">
 <metadata>
  <rdf:RDF xmlns:dc="http://purl.org/dc/elements/1.1/" xmlns:cc="http://creativecommons.org/ns#" xmlns:rdf="http://www.w3.org/1999/02/22-rdf-syntax-ns#">
   <cc:Work>
    <dc:type rdf:resource="http://purl.org/dc/dcmitype/StillImage"/>
    <dc:date>2026-07-02T19:44:20.546919</dc:date>
    <dc:format>image/svg+xml</dc:format>
    <dc:creator>
     <cc:Agent>
      <dc:title>Matplotlib v3.11.0, https://matplotlib.org/</dc:title>
     </cc:Agent>
    </dc:creator>
   </cc:Work>
  </rdf:RDF>
 </metadata>
 <defs>
  <style type="text/css">*{stroke-linejoin: round; stroke-linecap: butt}</style>
 </defs>
 <g id="figure_1">
  <g id="patch_1">
   <path d="M 0 283.844616 
L 758.94375 283.844616 
L 758.94375 0 
L 0 0 
L 0 283.844616 
z
" style="fill: none; opacity: 0"/>
  </g>
  <g id="axes_1">
   <g id="patch_2">
    <path d="M 42.747266 235.641101 
L 360.495703 235.641101 
L 360.495703 26.117344 
L 42.747266 26.117344 
L 42.747266 235.641101 
z
" style="fill: none; opacity: 0"/>
   </g>
   <g id="matplotlib.axis_1">
    <g id="xtick_1">
     <g id="line2d_1">
      <path d="M 57.190376 235.641101 
L 57.190376 26.117344 
" clip-path="url(#p5015fc163e)" style="fill: none; stroke: #7a7a7a; stroke-opacity: 0.3; stroke-width: 0.8; stroke-linecap: square"/>
     </g>
     <g id="line2d_2">
      <defs>
       <path id="m6b0c61a0ae" d="M 0 0 
L 0 3.5 
" style="stroke: #7a7a7a; stroke-width: 0.8"/>
      </defs>
      <g>
       <use xlink:href="#m6b0c61a0ae" x="57.190376" y="235.641101" style="fill: #7a7a7a; stroke: #7a7a7a; stroke-width: 0.8"/>
      </g>
     </g>
     <g id="text_1">
      <text style="font-size: 15px; font-family: 'DejaVu Sans', 'Bitstream Vera Sans', 'Computer Modern Sans Serif', 'Lucida Grande', 'Verdana', 'Geneva', 'Lucid', 'Arial', 'Helvetica', 'Avant Garde', sans-serif; text-anchor: middle; fill: #7a7a7a" x="57.190376" y="254.037585" transform="rotate(-0 57.190376 254.037585)">0</text>
     </g>
    </g>
    <g id="xtick_2">
     <g id="line2d_3">
      <path d="M 129.442056 235.641101 
L 129.442056 26.117344 
" clip-path="url(#p5015fc163e)" style="fill: none; stroke: #7a7a7a; stroke-opacity: 0.3; stroke-width: 0.8; stroke-linecap: square"/>
     </g>
     <g id="line2d_4">
      <g>
       <use xlink:href="#m6b0c61a0ae" x="129.442056" y="235.641101" style="fill: #7a7a7a; stroke: #7a7a7a; stroke-width: 0.8"/>
      </g>
     </g>
     <g id="text_2">
      <text style="font-size: 15px; font-family: 'DejaVu Sans', 'Bitstream Vera Sans', 'Computer Modern Sans Serif', 'Lucida Grande', 'Verdana', 'Geneva', 'Lucid', 'Arial', 'Helvetica', 'Avant Garde', sans-serif; text-anchor: middle; fill: #7a7a7a" x="129.442056" y="254.037585" transform="rotate(-0 129.442056 254.037585)">500</text>
     </g>
    </g>
    <g id="xtick_3">
     <g id="line2d_5">
      <path d="M 201.693736 235.641101 
L 201.693736 26.117344 
" clip-path="url(#p5015fc163e)" style="fill: none; stroke: #7a7a7a; stroke-opacity: 0.3; stroke-width: 0.8; stroke-linecap: square"/>
     </g>
     <g id="line2d_6">
      <g>
       <use xlink:href="#m6b0c61a0ae" x="201.693736" y="235.641101" style="fill: #7a7a7a; stroke: #7a7a7a; stroke-width: 0.8"/>
      </g>
     </g>
     <g id="text_3">
      <text style="font-size: 15px; font-family: 'DejaVu Sans', 'Bitstream Vera Sans', 'Computer Modern Sans Serif', 'Lucida Grande', 'Verdana', 'Geneva', 'Lucid', 'Arial', 'Helvetica', 'Avant Garde', sans-serif; text-anchor: middle; fill: #7a7a7a" x="201.693736" y="254.037585" transform="rotate(-0 201.693736 254.037585)">1000</text>
     </g>
    </g>
    <g id="xtick_4">
     <g id="line2d_7">
      <path d="M 273.945416 235.641101 
L 273.945416 26.117344 
" clip-path="url(#p5015fc163e)" style="fill: none; stroke: #7a7a7a; stroke-opacity: 0.3; stroke-width: 0.8; stroke-linecap: square"/>
     </g>
     <g id="line2d_8">
      <g>
       <use xlink:href="#m6b0c61a0ae" x="273.945416" y="235.641101" style="fill: #7a7a7a; stroke: #7a7a7a; stroke-width: 0.8"/>
      </g>
     </g>
     <g id="text_4">
      <text style="font-size: 15px; font-family: 'DejaVu Sans', 'Bitstream Vera Sans', 'Computer Modern Sans Serif', 'Lucida Grande', 'Verdana', 'Geneva', 'Lucid', 'Arial', 'Helvetica', 'Avant Garde', sans-serif; text-anchor: middle; fill: #7a7a7a" x="273.945416" y="254.037585" transform="rotate(-0 273.945416 254.037585)">1500</text>
     </g>
    </g>
    <g id="xtick_5">
     <g id="line2d_9">
      <path d="M 346.197096 235.641101 
L 346.197096 26.117344 
" clip-path="url(#p5015fc163e)" style="fill: none; stroke: #7a7a7a; stroke-opacity: 0.3; stroke-width: 0.8; stroke-linecap: square"/>
     </g>
     <g id="line2d_10">
      <g>
       <use xlink:href="#m6b0c61a0ae" x="346.197096" y="235.641101" style="fill: #7a7a7a; stroke: #7a7a7a; stroke-width: 0.8"/>
      </g>
     </g>
     <g id="text_5">
      <text style="font-size: 15px; font-family: 'DejaVu Sans', 'Bitstream Vera Sans', 'Computer Modern Sans Serif', 'Lucida Grande', 'Verdana', 'Geneva', 'Lucid', 'Arial', 'Helvetica', 'Avant Garde', sans-serif; text-anchor: middle; fill: #7a7a7a" x="346.197096" y="254.037585" transform="rotate(-0 346.197096 254.037585)">2000</text>
     </g>
    </g>
    <g id="text_6">
     <text style="font-size: 15px; font-family: 'DejaVu Sans', 'Bitstream Vera Sans', 'Computer Modern Sans Serif', 'Lucida Grande', 'Verdana', 'Geneva', 'Lucid', 'Arial', 'Helvetica', 'Avant Garde', sans-serif; text-anchor: middle; fill: #7a7a7a" x="201.621484" y="273.038757" transform="rotate(-0 201.621484 273.038757)">post-burn-in step</text>
    </g>
   </g>
   <g id="matplotlib.axis_2">
    <g id="ytick_1">
     <g id="line2d_11">
      <path d="M 42.747266 209.456205 
L 360.495703 209.456205 
" clip-path="url(#p5015fc163e)" style="fill: none; stroke: #7a7a7a; stroke-opacity: 0.3; stroke-width: 0.8; stroke-linecap: square"/>
     </g>
     <g id="line2d_12">
      <defs>
       <path id="m00dc9f37a7" d="M 0 0 
L -3.5 0 
" style="stroke: #7a7a7a; stroke-width: 0.8"/>
      </defs>
      <g>
       <use xlink:href="#m00dc9f37a7" x="42.747266" y="209.456205" style="fill: #7a7a7a; stroke: #7a7a7a; stroke-width: 0.8"/>
      </g>
     </g>
     <g id="text_7">
      <text style="font-size: 15px; font-family: 'DejaVu Sans', 'Bitstream Vera Sans', 'Computer Modern Sans Serif', 'Lucida Grande', 'Verdana', 'Geneva', 'Lucid', 'Arial', 'Helvetica', 'Avant Garde', sans-serif; text-anchor: end; fill: #7a7a7a" x="35.747266" y="215.154448" transform="rotate(-0 35.747266 215.154448)">0</text>
     </g>
    </g>
    <g id="ytick_2">
     <g id="line2d_13">
      <path d="M 42.747266 142.143882 
L 360.495703 142.143882 
" clip-path="url(#p5015fc163e)" style="fill: none; stroke: #7a7a7a; stroke-opacity: 0.3; stroke-width: 0.8; stroke-linecap: square"/>
     </g>
     <g id="line2d_14">
      <g>
       <use xlink:href="#m00dc9f37a7" x="42.747266" y="142.143882" style="fill: #7a7a7a; stroke: #7a7a7a; stroke-width: 0.8"/>
      </g>
     </g>
     <g id="text_8">
      <text style="font-size: 15px; font-family: 'DejaVu Sans', 'Bitstream Vera Sans', 'Computer Modern Sans Serif', 'Lucida Grande', 'Verdana', 'Geneva', 'Lucid', 'Arial', 'Helvetica', 'Avant Garde', sans-serif; text-anchor: end; fill: #7a7a7a" x="35.747266" y="147.842124" transform="rotate(-0 35.747266 147.842124)">1</text>
     </g>
    </g>
    <g id="ytick_3">
     <g id="line2d_15">
      <path d="M 42.747266 74.831559 
L 360.495703 74.831559 
" clip-path="url(#p5015fc163e)" style="fill: none; stroke: #7a7a7a; stroke-opacity: 0.3; stroke-width: 0.8; stroke-linecap: square"/>
     </g>
     <g id="line2d_16">
      <g>
       <use xlink:href="#m00dc9f37a7" x="42.747266" y="74.831559" style="fill: #7a7a7a; stroke: #7a7a7a; stroke-width: 0.8"/>
      </g>
     </g>
     <g id="text_9">
      <text style="font-size: 15px; font-family: 'DejaVu Sans', 'Bitstream Vera Sans', 'Computer Modern Sans Serif', 'Lucida Grande', 'Verdana', 'Geneva', 'Lucid', 'Arial', 'Helvetica', 'Avant Garde', sans-serif; text-anchor: end; fill: #7a7a7a" x="35.747266" y="80.529801" transform="rotate(-0 35.747266 80.529801)">2</text>
     </g>
    </g>
    <g id="text_10">
     <!-- slope  $w_1$ -->
     <g style="fill: #7a7a7a" transform="translate(18.6 165.304222) rotate(-90)">
      <text>
       <tspan x="0" y="-0.609375" style="font-size: 15px; font-family: 'DejaVu Sans'; fill: #7a7a7a">s</tspan>
       <tspan x="7.814941" y="-0.609375" style="font-size: 15px; font-family: 'DejaVu Sans'; fill: #7a7a7a">l</tspan>
       <tspan x="11.982422" y="-0.609375" style="font-size: 15px; font-family: 'DejaVu Sans'; fill: #7a7a7a">o</tspan>
       <tspan x="21.159668" y="-0.609375" style="font-size: 15px; font-family: 'DejaVu Sans'; fill: #7a7a7a">p</tspan>
       <tspan x="30.681152" y="-0.609375" style="font-size: 15px; font-family: 'DejaVu Sans'; fill: #7a7a7a">e</tspan>
       <tspan x="39.909668" y="-0.609375" style="font-size: 15px; font-family: 'DejaVu Sans'; fill: #7a7a7a"> </tspan>
       <tspan x="44.677734" y="-0.609375" style="font-size: 15px; font-family: 'DejaVu Sans'; fill: #7a7a7a"> </tspan>
       <tspan x="49.445801" y="-0.609375" style="font-style: oblique; font-size: 15px; font-family: 'DejaVu Sans'; fill: #7a7a7a">w</tspan>
       <tspan x="61.713867" y="1.640618" style="font-size: 10.5px; font-family: 'DejaVu Sans'; fill: #7a7a7a">1</tspan>
      </text>
     </g>
    </g>
   </g>
   <g id="line2d_17">
    <path d="M 57.190376 120.229009 
L 57.33488 135.456642 
L 57.479383 135.456642 
L 57.623887 141.739034 
L 57.76839 141.739034 
L 57.912893 193.736603 
L 58.346403 193.736603 
L 58.490907 198.653372 
L 58.63541 188.819193 
L 58.779913 113.34371 
L 58.924417 113.34371 
L 59.06892 172.644034 
L 59.213423 153.255113 
L 59.791437 153.255113 
L 59.93594 207.975202 
L 60.947464 207.975202 
L 61.380974 144.135935 
L 62.392497 144.135935 
L 62.537001 180.009252 
L 62.681504 180.009252 
L 62.826007 133.121751 
L 62.970511 133.121751 
L 63.115014 124.213917 
L 63.837531 124.213917 
L 63.982034 168.242097 
L 64.126538 168.242097 
L 64.415544 104.466437 
L 64.560048 189.698286 
L 64.704551 122.618155 
L 64.849054 122.618155 
L 65.138061 184.062107 
L 65.282565 144.108067 
L 65.571571 144.108067 
L 65.716075 118.467288 
L 65.860578 180.749967 
L 66.294088 180.749967 
L 66.438591 184.628849 
L 66.872102 184.628849 
L 67.016605 86.137858 
L 67.161108 145.945161 
L 68.606142 145.945161 
L 68.750645 125.042397 
L 70.484686 125.042397 
L 70.629189 140.44955 
L 71.496209 140.44955 
L 71.640712 152.336197 
L 71.785216 125.554236 
L 71.929719 125.554236 
L 72.074222 140.064685 
L 73.085746 140.064685 
L 73.230249 167.180532 
L 73.519256 167.180532 
L 73.663759 150.617129 
L 74.09727 150.617129 
L 74.241773 159.729912 
L 74.386276 128.69822 
L 75.108793 128.69822 
L 75.253296 126.110957 
L 75.686806 126.110957 
L 75.83131 147.034638 
L 75.975813 147.034638 
L 76.26482 100.543024 
L 76.409323 155.505966 
L 76.553827 146.738785 
L 76.842833 146.738785 
L 76.987337 186.509374 
L 77.13184 186.509374 
L 77.276343 164.702899 
L 77.56535 164.702899 
L 77.709854 181.726811 
L 77.854357 133.329432 
L 77.99886 157.376616 
L 78.287867 157.376616 
L 78.43237 190.42128 
L 80.166411 190.42128 
L 80.310914 120.242264 
L 80.455417 120.242264 
L 80.599921 98.902365 
L 80.744424 128.190543 
L 81.322438 128.190543 
L 81.466941 99.058507 
L 81.611444 130.723909 
L 81.755948 130.723909 
L 81.900451 126.673274 
L 82.044954 203.539345 
L 82.333961 203.539345 
L 82.478464 103.29579 
L 82.622968 188.60736 
L 84.068001 188.60736 
L 84.212505 168.467464 
L 84.357008 168.467464 
L 84.501511 128.990621 
L 84.935022 128.990621 
L 85.079525 130.473111 
L 85.224028 93.395351 
L 85.368532 226.117294 
L 85.513035 181.622332 
L 87.247075 181.622332 
L 87.391579 168.730431 
L 87.680585 168.730431 
L 87.825089 143.953234 
L 88.403102 143.953234 
L 88.547605 172.582739 
L 88.981116 172.582739 
L 89.125619 134.359695 
L 89.270122 134.359695 
L 89.414626 183.278828 
L 89.559129 106.312297 
L 89.703632 166.756432 
L 90.137142 166.756432 
L 90.281646 158.538347 
L 90.859659 158.532727 
L 91.004163 214.885712 
L 91.148666 139.705349 
L 91.726679 139.705349 
L 91.871183 181.744208 
L 92.160189 181.744208 
L 92.304693 109.787312 
L 92.449196 109.787312 
L 92.5937 93.643379 
L 92.882706 93.643379 
L 93.02721 172.792118 
L 94.183237 172.792118 
L 94.32774 179.306341 
L 95.050257 179.306341 
L 95.19476 193.0424 
L 96.206284 193.0424 
L 96.350787 174.806844 
L 96.639794 174.806844 
L 96.784297 109.770889 
L 97.651317 109.770889 
L 97.795821 115.135083 
L 98.084827 115.135083 
L 98.229331 147.590436 
L 98.373834 147.590436 
L 98.518337 82.759643 
L 98.662841 82.759643 
L 98.807344 86.263287 
L 98.951847 86.263287 
L 99.096351 84.926378 
L 99.385357 217.410548 
L 99.529861 174.357681 
L 101.408405 174.357681 
L 101.552908 177.436739 
L 101.841915 177.436739 
L 101.986418 162.176254 
L 103.864962 162.176254 
L 104.009465 135.610279 
L 104.587478 135.610279 
L 104.731982 144.769296 
L 105.165492 144.769296 
L 105.599002 74.854521 
L 105.888009 74.854521 
L 106.032512 100.26484 
L 106.321519 170.728673 
L 106.755029 170.728673 
L 106.899532 119.682979 
L 107.333042 119.682979 
L 107.622049 69.630896 
L 107.766552 69.630896 
L 107.911056 53.062765 
L 108.200062 132.110823 
L 108.633573 132.110823 
L 108.778076 148.990675 
L 109.067083 148.990675 
L 109.211586 135.625269 
L 110.512116 135.625269 
L 110.65662 160.916677 
L 110.945626 160.916677 
L 111.09013 166.555733 
L 112.101653 166.555733 
L 112.246156 165.365346 
L 112.39066 201.155231 
L 112.679667 201.155231 
L 112.82417 141.135057 
L 112.968673 148.059464 
L 113.113177 148.059464 
L 113.25768 101.64337 
L 113.402183 157.112659 
L 113.546687 157.112659 
L 113.69119 144.946544 
L 114.702714 144.946544 
L 114.847217 133.610418 
L 115.714237 133.610418 
L 115.85874 162.890504 
L 116.147747 162.890504 
L 116.292251 143.938078 
L 116.436754 160.847629 
L 116.725761 160.847629 
L 116.870264 176.624429 
L 117.014767 176.624429 
L 117.159271 186.900209 
L 117.303774 140.380426 
L 118.604304 140.380426 
L 118.748808 182.769475 
L 119.037814 182.769475 
L 119.182318 157.929367 
L 120.193841 157.929367 
L 120.338345 144.314801 
L 121.205365 144.314801 
L 121.349868 164.077176 
L 121.638875 164.077176 
L 121.783378 123.878364 
L 122.939405 123.878364 
L 123.083908 134.369047 
L 123.228412 108.683199 
L 123.372915 108.683199 
L 123.517419 154.822924 
L 123.950929 154.822924 
L 124.095432 127.439489 
L 124.384439 127.439489 
L 124.673445 136.296454 
L 124.817949 136.296454 
L 124.962452 138.18337 
L 125.106956 138.18337 
L 125.251459 103.298903 
L 126.118479 103.298903 
L 126.551989 157.884184 
L 126.696492 120.535533 
L 126.840996 158.492335 
L 127.563513 158.492335 
L 127.708016 195.081022 
L 129.008546 195.081022 
L 129.15305 186.188368 
L 129.297553 162.524369 
L 129.442056 162.524369 
L 129.58656 152.910749 
L 130.88709 152.910749 
L 131.031593 111.613637 
L 131.176097 148.546282 
L 132.332123 148.546282 
L 132.476627 144.73158 
L 132.62113 186.602571 
L 132.910137 186.602571 
L 133.05464 150.188159 
L 133.199144 75.872854 
L 134.066164 75.872854 
L 134.210667 133.142708 
L 134.355171 141.560792 
L 134.499674 107.236166 
L 134.644177 120.363222 
L 135.077687 120.363222 
L 135.222191 185.757684 
L 135.944707 185.757684 
L 136.089211 151.152503 
L 136.233714 151.152503 
L 136.378218 165.922748 
L 137.389741 165.922748 
L 137.678748 117.551306 
L 137.823251 174.236322 
L 137.967755 174.236322 
L 138.112258 181.557698 
L 138.690271 181.557698 
L 138.834775 112.270238 
L 139.412788 112.270238 
L 139.557291 120.681386 
L 139.846298 120.681386 
L 139.990802 111.182158 
L 140.713318 111.182158 
L 141.146828 192.27801 
L 141.435835 192.27801 
L 141.580339 207.73116 
L 142.736365 207.73116 
L 142.880869 209.281891 
L 143.169875 209.281891 
L 143.314379 213.586115 
L 143.458882 182.04314 
L 143.603386 190.29856 
L 143.892392 190.29856 
L 144.036896 129.72352 
L 144.181399 145.102625 
L 144.759412 145.102625 
L 144.903916 145.764639 
L 145.770936 145.764639 
L 145.915439 181.425372 
L 146.059943 181.425372 
L 146.204446 189.752482 
L 146.348949 189.752482 
L 146.493453 130.816492 
L 146.637956 165.215577 
L 147.21597 165.215577 
L 147.360473 171.616975 
L 147.504976 146.469595 
L 148.5165 146.469595 
L 148.661003 166.697673 
L 149.81703 166.697673 
L 149.961533 162.980639 
L 150.25054 162.980639 
L 150.539547 122.72389 
L 150.68405 147.286477 
L 151.840077 147.286477 
L 151.98458 119.67723 
L 152.418091 119.67723 
L 152.562594 190.589137 
L 152.707097 169.784294 
L 152.996104 169.784294 
L 153.140607 182.100232 
L 153.429614 182.100232 
L 153.574117 179.561101 
L 154.152131 179.561101 
L 154.296634 158.187436 
L 155.019151 158.187436 
L 155.163654 168.834077 
L 155.886171 168.834077 
L 156.030674 144.510336 
L 156.175178 162.678814 
L 156.319681 197.726049 
L 156.608688 197.726049 
L 156.753191 173.639059 
L 157.620211 173.639059 
L 157.764715 192.359328 
L 158.776238 192.359328 
L 158.920742 128.256987 
L 159.065245 185.664973 
L 159.209748 160.044215 
L 159.787762 160.044215 
L 159.932265 153.210517 
L 161.088292 153.210517 
L 161.232795 187.3916 
L 162.099816 187.312767 
L 162.244319 114.043616 
L 162.388822 114.043616 
L 162.533326 146.737701 
L 162.677829 144.841931 
L 163.544849 144.841931 
L 163.689353 131.772955 
L 163.833856 131.772955 
L 164.122863 185.517746 
L 164.267366 185.517746 
L 164.411869 185.180761 
L 164.845379 185.180761 
L 164.989883 151.829834 
L 165.134386 151.829834 
L 165.27889 161.532391 
L 166.57942 161.532391 
L 166.723923 151.74908 
L 168.168957 151.74908 
L 168.31346 139.066007 
L 169.469487 139.066007 
L 169.61399 125.552606 
L 169.758494 173.432375 
L 170.48101 173.432375 
L 170.625514 160.161188 
L 170.770017 177.269936 
L 171.059024 177.269936 
L 171.203527 168.608988 
L 171.492534 168.608988 
L 171.637037 137.954346 
L 171.781541 137.954346 
L 171.926044 83.950623 
L 172.215051 173.531183 
L 172.359554 213.05503 
L 172.504058 213.05503 
L 172.648561 159.775299 
L 172.793064 147.995719 
L 173.371078 147.995719 
L 173.515581 172.586178 
L 174.238098 172.586178 
L 174.382601 180.805751 
L 174.960615 180.805751 
L 175.249621 109.247286 
L 175.394125 109.247286 
L 175.538628 127.500671 
L 175.683131 127.500671 
L 175.827635 182.64962 
L 175.972138 188.462038 
L 176.550152 188.462038 
L 176.694655 170.519687 
L 177.995185 170.519687 
L 178.139689 138.668197 
L 178.284192 179.077983 
L 179.151212 179.077983 
L 179.295715 116.004488 
L 179.873729 116.004488 
L 180.018232 99.442797 
L 180.307239 99.442797 
L 180.451742 152.192956 
L 181.174259 152.192956 
L 181.318762 139.131275 
L 181.607769 139.131275 
L 181.752273 116.291695 
L 182.474789 116.291695 
L 182.619293 144.75425 
L 182.763796 102.986811 
L 182.908299 114.828901 
L 183.052803 137.351683 
L 183.197306 137.351683 
L 183.341809 94.918032 
L 183.486313 92.819071 
L 183.630816 71.704754 
L 183.77532 117.732621 
L 183.919823 117.732621 
L 184.064326 181.608017 
L 184.64234 181.608017 
L 184.931346 158.196288 
L 185.364857 158.196288 
L 185.50936 150.265204 
L 185.653863 180.194118 
L 185.798367 180.194118 
L 185.94287 152.030992 
L 186.087373 186.509467 
L 186.37638 186.509467 
L 186.665387 125.019315 
L 186.80989 125.019315 
L 186.954393 129.813544 
L 187.098897 113.344702 
L 187.67691 113.344702 
L 187.821414 175.047428 
L 188.688434 175.047428 
L 188.832937 168.845796 
L 189.121944 168.845796 
L 189.266447 144.808308 
L 189.410951 161.563341 
L 190.855984 161.563341 
L 191.000488 202.049677 
L 191.144991 117.505956 
L 191.289494 116.982824 
L 191.867508 116.982824 
L 192.012011 130.388543 
L 193.023535 130.388543 
L 193.168038 140.223483 
L 193.457045 140.223483 
L 193.601548 105.261614 
L 193.746051 150.612729 
L 194.035058 150.612729 
L 194.179561 153.59599 
L 194.324065 153.59599 
L 194.468568 173.367112 
L 194.613072 173.367112 
L 194.757575 179.602707 
L 194.902078 179.602707 
L 195.046582 159.84475 
L 195.624595 159.84475 
L 195.769098 202.714398 
L 195.913602 202.714398 
L 196.058105 209.080114 
L 196.347112 209.080114 
L 196.491615 163.972169 
L 196.636119 191.303802 
L 196.780622 166.850153 
L 197.792145 166.850153 
L 197.936649 199.172891 
L 198.081152 198.248997 
L 199.526186 198.248997 
L 199.670689 91.346425 
L 199.959696 91.346425 
L 200.104199 99.838349 
L 200.248703 99.838349 
L 200.393206 114.927349 
L 200.537709 114.927349 
L 200.682213 143.667544 
L 201.549233 143.667544 
L 201.693736 166.851567 
L 202.127246 166.851567 
L 202.27175 187.774228 
L 202.70526 187.774228 
L 202.994266 136.374885 
L 203.13877 175.742056 
L 203.283273 152.834647 
L 203.427776 152.834647 
L 203.57228 119.717246 
L 204.00579 119.717246 
L 204.150293 132.402872 
L 204.294797 132.402872 
L 204.583803 68.403814 
L 204.87281 68.403814 
L 205.017313 132.240353 
L 205.30632 132.240353 
L 205.450824 145.127968 
L 205.595327 145.127968 
L 205.73983 163.09121 
L 205.884334 163.09121 
L 206.028837 134.441693 
L 206.17334 134.441693 
L 206.317844 157.510446 
L 206.60685 157.510446 
L 206.751354 148.489872 
L 206.895857 130.639779 
L 207.04036 130.639779 
L 207.184864 139.705622 
L 207.473871 139.705622 
L 207.618374 143.886425 
L 208.051884 143.886425 
L 208.196387 189.109099 
L 209.641421 189.109099 
L 209.785924 203.078212 
L 210.219434 203.078212 
L 210.363938 112.583766 
L 210.508441 112.583766 
L 210.652944 150.379109 
L 210.797448 150.379109 
L 210.941951 166.845389 
L 211.375461 166.845389 
L 211.519965 167.352737 
L 211.808971 167.352737 
L 211.953475 140.364349 
L 212.097978 140.77696 
L 213.109502 140.77696 
L 213.254005 125.845049 
L 213.832018 125.845049 
L 213.976522 124.304817 
L 214.121025 124.304817 
L 214.265528 118.526965 
L 214.410032 118.526965 
L 214.554535 152.210303 
L 214.699039 152.210303 
L 214.843542 139.1446 
L 216.433079 139.1446 
L 216.577582 138.337806 
L 216.722086 138.337806 
L 216.866589 175.036459 
L 217.011092 130.461348 
L 217.300099 193.535718 
L 217.444602 131.189581 
L 218.889636 131.189581 
L 219.034139 163.838671 
L 219.178643 163.838671 
L 219.323146 208.405921 
L 219.467649 208.405921 
L 219.612153 162.087724 
L 219.756656 180.570298 
L 220.190166 180.570298 
L 220.33467 140.564342 
L 222.06871 140.564342 
L 222.213213 83.778272 
L 222.646723 177.710725 
L 222.93573 177.710725 
L 223.080233 205.939583 
L 223.224737 205.939583 
L 223.36924 128.505629 
L 223.947254 128.505629 
L 224.091757 104.670607 
L 224.23626 145.734517 
L 225.392287 145.734517 
L 225.536791 115.905225 
L 225.825797 195.000151 
L 226.259307 195.000151 
L 226.403811 165.692859 
L 226.692817 165.692859 
L 226.837321 177.260312 
L 228.137851 177.260312 
L 228.282354 151.446342 
L 228.860368 151.446342 
L 229.004871 94.055589 
L 229.149375 94.055589 
L 229.293878 187.67115 
L 229.438381 187.67115 
L 229.582885 152.686207 
L 233.050965 152.686207 
L 233.195469 158.748504 
L 233.484475 158.748504 
L 233.628979 104.359554 
L 235.363019 104.359554 
L 235.507522 89.876432 
L 235.796529 89.876432 
L 235.941032 132.419697 
L 236.519046 132.419697 
L 236.663549 130.388228 
L 236.808053 130.388228 
L 236.952556 94.000485 
L 237.241563 116.027546 
L 237.386066 116.027546 
L 237.530569 199.28063 
L 237.675073 162.873457 
L 238.39759 162.873457 
L 238.542093 128.271727 
L 238.686596 124.512517 
L 238.975603 124.512517 
L 239.120106 167.57452 
L 240.709643 167.57452 
L 240.854147 158.304527 
L 242.877194 158.304527 
L 243.021697 99.406348 
L 243.1662 130.861765 
L 243.310704 195.684087 
L 243.599711 195.684087 
L 243.744214 173.672223 
L 244.755737 173.672223 
L 244.900241 144.382527 
L 245.044744 144.382527 
L 245.189247 96.424528 
L 245.333751 185.509687 
L 245.478254 131.04188 
L 245.767261 131.04188 
L 245.911764 159.333724 
L 246.056268 148.524383 
L 246.200771 128.440072 
L 247.067791 128.440072 
L 247.212294 171.437143 
L 247.356798 167.602257 
L 247.501301 154.679262 
L 247.645805 154.679262 
L 248.079315 78.753988 
L 248.368321 78.753988 
L 248.512825 87.041903 
L 248.657328 142.380602 
L 248.946335 142.380602 
L 249.090838 199.503165 
L 249.235342 199.503165 
L 249.379845 186.347589 
L 249.668852 186.347589 
L 249.813355 117.819476 
L 249.957858 117.819476 
L 250.102362 183.888574 
L 250.246865 166.183878 
L 250.824878 166.183878 
L 250.969382 184.320688 
L 251.113885 184.320688 
L 251.258389 126.985768 
L 251.836402 126.985768 
L 251.980905 128.128056 
L 252.125409 128.128056 
L 252.269912 150.738612 
L 253.714946 150.738612 
L 253.859449 170.187757 
L 254.870973 170.187757 
L 255.015476 145.40654 
L 255.304483 145.40654 
L 255.448986 143.041019 
L 256.316006 143.041019 
L 256.46051 56.792696 
L 256.605013 79.329405 
L 256.749516 84.338345 
L 256.89402 69.379028 
L 257.183026 69.379028 
L 257.32753 138.687047 
L 258.19455 138.687047 
L 258.339053 181.086 
L 258.62806 181.086 
L 258.772563 144.334056 
L 258.917067 144.334056 
L 259.06157 173.817826 
L 260.506604 173.817826 
L 260.651107 191.681603 
L 260.79561 171.172577 
L 261.373624 171.172577 
L 261.518127 150.924391 
L 262.674154 150.924391 
L 262.818657 211.074856 
L 263.252167 211.074856 
L 263.685678 137.494272 
L 264.986208 137.494272 
L 265.275214 148.665833 
L 266.431241 148.665833 
L 266.575745 158.557184 
L 266.720248 158.557184 
L 266.864751 140.761994 
L 267.009255 165.345719 
L 267.298261 165.345719 
L 267.442765 199.489073 
L 267.587268 199.489073 
L 267.731772 187.725424 
L 267.876275 187.725424 
L 268.165282 122.189039 
L 268.309785 124.373918 
L 268.743295 124.373918 
L 268.887798 115.156793 
L 269.032302 115.156793 
L 269.176805 143.019827 
L 269.321309 143.019827 
L 269.465812 170.698809 
L 270.188329 170.698809 
L 270.332832 146.864576 
L 270.621839 146.864576 
L 270.766342 199.898061 
L 270.910845 199.898061 
L 271.055349 147.124258 
L 271.199852 147.124258 
L 271.344356 83.534496 
L 271.488859 122.914892 
L 271.633362 122.914892 
L 271.777866 155.699716 
L 272.211376 155.699716 
L 272.355879 166.141816 
L 272.500382 130.6747 
L 272.644886 130.6747 
L 272.789389 127.655332 
L 272.933893 127.655332 
L 273.367403 159.837953 
L 273.800913 159.837953 
L 273.945416 160.709326 
L 274.089919 145.945432 
L 275.101443 145.945432 
L 275.245946 152.872021 
L 275.534953 152.872021 
L 275.679456 181.660277 
L 276.69098 181.660277 
L 276.835483 175.980689 
L 277.12449 175.980689 
L 277.268993 147.874176 
L 277.702503 147.874176 
L 277.847007 149.405866 
L 278.136013 149.405866 
L 278.280517 139.066121 
L 278.42502 139.066121 
L 278.569524 159.313875 
L 278.714027 53.507749 
L 279.147537 53.507749 
L 279.436544 46.617059 
L 279.581047 46.617059 
L 279.72555 35.641151 
L 279.870054 53.449724 
L 280.014557 53.449724 
L 280.159061 71.060261 
L 280.303564 117.664802 
L 280.448067 117.664802 
L 280.592571 149.815704 
L 281.315087 149.815704 
L 281.459591 137.797544 
L 281.893101 137.797544 
L 282.037604 178.971107 
L 282.182108 160.833956 
L 282.760121 160.833956 
L 282.904624 179.34879 
L 283.049128 179.34879 
L 283.193631 174.261064 
L 283.627141 174.261064 
L 283.771645 162.73165 
L 284.927671 162.73165 
L 285.072175 150.690024 
L 285.216678 150.690024 
L 285.361181 146.356967 
L 286.517208 146.356967 
L 286.661712 143.605515 
L 287.817739 143.605515 
L 287.962242 137.908763 
L 289.840786 137.908763 
L 289.985289 152.809141 
L 290.274296 152.809141 
L 290.418799 117.351757 
L 290.996812 117.351757 
L 291.141316 169.321001 
L 292.441846 169.321001 
L 292.586349 136.404232 
L 292.730853 173.965461 
L 293.01986 173.965461 
L 293.164363 163.198051 
L 294.031383 163.198051 
L 294.175886 177.282186 
L 294.7539 177.282186 
L 294.898403 162.401723 
L 295.042907 87.670198 
L 295.765423 87.670198 
L 295.909927 128.110937 
L 296.05443 128.110937 
L 296.198933 134.144617 
L 296.632444 134.144617 
L 296.776947 113.46629 
L 297.065954 104.625598 
L 298.366484 104.625598 
L 298.510987 122.357677 
L 298.655491 122.357677 
L 298.799994 103.036039 
L 299.522511 103.036039 
L 299.667014 156.873137 
L 300.678538 156.873137 
L 300.823041 145.680054 
L 301.545558 145.680054 
L 301.690061 163.05372 
L 303.857612 163.05372 
L 304.002115 179.75777 
L 304.146618 178.502338 
L 304.869135 178.502338 
L 305.013638 186.547095 
L 305.302645 186.547095 
L 305.447148 132.603294 
L 305.736155 132.603294 
L 305.880659 148.661122 
L 306.025162 148.661122 
L 306.169665 116.94687 
L 306.314169 121.718104 
L 306.892182 121.718104 
L 307.036685 183.1223 
L 307.325692 183.1223 
L 307.470196 196.542104 
L 307.614699 126.000932 
L 308.192712 126.000932 
L 308.337216 80.76345 
L 308.481719 111.213829 
L 308.626222 111.213829 
L 308.770726 129.549126 
L 309.059732 129.549126 
L 309.204236 124.735137 
L 309.348739 124.735137 
L 309.493243 172.862574 
L 309.637746 172.862574 
L 309.782249 127.137101 
L 309.926753 127.137101 
L 310.071256 144.441641 
L 310.360263 144.441641 
L 310.504766 187.706666 
L 310.938276 187.706666 
L 311.08278 206.153407 
L 311.227283 166.757461 
L 311.371786 166.757461 
L 311.51629 182.745335 
L 312.094303 182.745335 
L 312.238806 144.235364 
L 312.38331 144.235364 
L 312.527813 138.499486 
L 312.672316 138.499486 
L 312.81682 122.075813 
L 312.961323 122.075813 
L 313.105827 128.761157 
L 313.394833 128.761157 
L 313.539337 115.874055 
L 313.828343 115.874055 
L 313.972847 87.477651 
L 314.11735 103.903413 
L 314.261853 103.903413 
L 314.406357 107.726485 
L 314.55086 170.38681 
L 315.128874 170.38681 
L 315.273377 194.50011 
L 315.41788 150.948684 
L 315.562384 165.444354 
L 315.85139 165.444354 
L 315.995894 170.208575 
L 316.862914 170.208575 
L 317.007417 96.380227 
L 317.440927 96.380227 
L 317.585431 139.738198 
L 317.729934 139.738198 
L 317.874437 179.911565 
L 318.018941 137.650889 
L 318.163444 137.650889 
L 318.307947 170.441034 
L 318.452451 175.189846 
L 318.741458 175.189846 
L 319.174968 149.537022 
L 319.319471 121.078012 
L 319.608478 121.078012 
L 319.752981 120.799801 
L 321.053511 120.799801 
L 321.198015 168.231757 
L 323.365565 168.231757 
L 323.510068 111.825467 
L 324.232585 111.825467 
L 324.377089 162.579947 
L 324.521592 162.579947 
L 324.666095 175.500935 
L 324.810599 167.006354 
L 324.955102 142.85104 
L 325.388612 142.85104 
L 325.533115 122.632413 
L 326.255632 122.632413 
L 326.400136 148.359964 
L 326.544639 148.359964 
L 326.689142 188.049425 
L 327.122652 188.049425 
L 327.267156 195.406491 
L 327.411659 195.406491 
L 327.556163 118.750928 
L 328.423183 118.750928 
L 328.567686 160.916666 
L 329.57921 160.916666 
L 329.723713 90.421052 
L 329.868216 90.421052 
L 330.01272 104.86847 
L 330.44623 104.86847 
L 330.590733 170.196233 
L 331.024243 170.196233 
L 331.168747 161.687803 
L 331.31325 161.687803 
L 331.457753 132.249399 
L 331.602257 132.249399 
L 331.74676 130.857745 
L 332.324773 130.857745 
L 332.469277 171.933458 
L 333.04729 171.933458 
L 333.191794 139.455375 
L 333.91431 139.455375 
L 334.058814 170.953403 
L 334.203317 170.953403 
L 334.34782 106.833292 
L 334.636827 106.833292 
L 334.78133 124.507037 
L 335.070337 124.507037 
L 335.214841 131.991877 
L 336.370867 131.991877 
L 336.515371 133.609465 
L 337.237888 133.609465 
L 337.382391 168.229884 
L 337.526894 149.159878 
L 337.815901 149.159878 
L 337.960404 187.598405 
L 338.971928 187.598405 
L 339.116431 179.355452 
L 339.694445 179.355452 
L 339.838948 154.993987 
L 339.983451 154.993987 
L 340.127955 145.88574 
L 340.850472 145.88574 
L 340.994975 130.666179 
L 341.139478 130.666179 
L 341.283982 138.297784 
L 342.584512 138.297784 
L 342.729015 138.41191 
L 342.873519 171.589394 
L 343.018022 142.54283 
L 345.330076 142.54283 
L 345.474579 125.547278 
L 345.619082 125.547278 
L 345.763586 151.47965 
L 345.908089 112.957847 
L 346.052593 186.254844 
L 346.052593 186.254844 
" clip-path="url(#p5015fc163e)" style="fill: none; stroke: #56b4e9; stroke-width: 0.7; stroke-linecap: square"/>
   </g>
   <g id="line2d_18">
    <path d="M 42.747266 156.405045 
L 360.495703 156.405045 
" clip-path="url(#p5015fc163e)" style="fill: none; stroke-dasharray: 2.4,3.96; stroke-dashoffset: 0; stroke: #e69f00; stroke-width: 2.4"/>
   </g>
   <g id="patch_3">
    <path d="M 42.747266 235.641101 
L 42.747266 26.117344 
" style="fill: none; stroke: #7a7a7a; stroke-width: 0.8; stroke-linejoin: miter; stroke-linecap: square"/>
   </g>
   <g id="patch_4">
    <path d="M 42.747266 235.641101 
L 360.495703 235.641101 
" style="fill: none; stroke: #7a7a7a; stroke-width: 0.8; stroke-linejoin: miter; stroke-linecap: square"/>
   </g>
   <g id="text_11">
    <text style="font-size: 17px; font-family: 'DejaVu Sans', 'Bitstream Vera Sans', 'Computer Modern Sans Serif', 'Lucida Grande', 'Verdana', 'Geneva', 'Lucid', 'Arial', 'Helvetica', 'Avant Garde', sans-serif; text-anchor: middle; fill: #7a7a7a" x="201.621484" y="20.117344" transform="rotate(-0 201.621484 20.117344)">trace (first 2,000 draws)</text>
   </g>
  </g>
  <g id="axes_2">
   <g id="patch_5">
    <path d="M 433.995312 235.641101 
L 751.74375 235.641101 
L 751.74375 26.117344 
L 433.995312 26.117344 
L 433.995312 235.641101 
z
" style="fill: none; opacity: 0"/>
   </g>
   <g id="patch_6">
    <path d="M 496.964905 235.641101 
L 500.970501 235.641101 
L 500.970501 235.335751 
L 496.964905 235.335751 
z
" clip-path="url(#pedc6eb60e9)" style="fill: #56b4e9; opacity: 0.55"/>
   </g>
   <g id="patch_7">
    <path d="M 500.970501 235.641101 
L 504.976097 235.641101 
L 504.976097 233.808999 
L 500.970501 233.808999 
z
" clip-path="url(#pedc6eb60e9)" style="fill: #56b4e9; opacity: 0.55"/>
   </g>
   <g id="patch_8">
    <path d="M 504.976097 235.641101 
L 508.981692 235.641101 
L 508.981692 234.114349 
L 504.976097 234.114349 
z
" clip-path="url(#pedc6eb60e9)" style="fill: #56b4e9; opacity: 0.55"/>
   </g>
   <g id="patch_9">
    <path d="M 508.981692 235.641101 
L 512.987288 235.641101 
L 512.987288 233.045623 
L 508.981692 233.045623 
z
" clip-path="url(#pedc6eb60e9)" style="fill: #56b4e9; opacity: 0.55"/>
   </g>
   <g id="patch_10">
    <path d="M 512.987288 235.641101 
L 516.992883 235.641101 
L 516.992883 233.656324 
L 512.987288 233.656324 
z
" clip-path="url(#pedc6eb60e9)" style="fill: #56b4e9; opacity: 0.55"/>
   </g>
   <g id="patch_11">
    <path d="M 516.992883 235.641101 
L 520.998479 235.641101 
L 520.998479 230.144795 
L 516.992883 230.144795 
z
" clip-path="url(#pedc6eb60e9)" style="fill: #56b4e9; opacity: 0.55"/>
   </g>
   <g id="patch_12">
    <path d="M 520.998479 235.641101 
L 525.004074 235.641101 
L 525.004074 226.785942 
L 520.998479 226.785942 
z
" clip-path="url(#pedc6eb60e9)" style="fill: #56b4e9; opacity: 0.55"/>
   </g>
   <g id="patch_13">
    <path d="M 525.004074 235.641101 
L 529.00967 235.641101 
L 529.00967 226.022566 
L 525.004074 226.022566 
z
" clip-path="url(#pedc6eb60e9)" style="fill: #56b4e9; opacity: 0.55"/>
   </g>
   <g id="patch_14">
    <path d="M 529.00967 235.641101 
L 533.015265 235.641101 
L 533.015265 219.457534 
L 529.00967 219.457534 
z
" clip-path="url(#pedc6eb60e9)" style="fill: #56b4e9; opacity: 0.55"/>
   </g>
   <g id="patch_15">
    <path d="M 533.015265 235.641101 
L 537.020861 235.641101 
L 537.020861 211.0604 
L 533.015265 211.0604 
z
" clip-path="url(#pedc6eb60e9)" style="fill: #56b4e9; opacity: 0.55"/>
   </g>
   <g id="patch_16">
    <path d="M 537.020861 235.641101 
L 541.026457 235.641101 
L 541.026457 201.59454 
L 537.020861 201.59454 
z
" clip-path="url(#pedc6eb60e9)" style="fill: #56b4e9; opacity: 0.55"/>
   </g>
   <g id="patch_17">
    <path d="M 541.026457 235.641101 
L 545.032052 235.641101 
L 545.032052 187.39575 
L 541.026457 187.39575 
z
" clip-path="url(#pedc6eb60e9)" style="fill: #56b4e9; opacity: 0.55"/>
   </g>
   <g id="patch_18">
    <path d="M 545.032052 235.641101 
L 549.037648 235.641101 
L 549.037648 180.067342 
L 545.032052 180.067342 
z
" clip-path="url(#pedc6eb60e9)" style="fill: #56b4e9; opacity: 0.55"/>
   </g>
   <g id="patch_19">
    <path d="M 549.037648 235.641101 
L 553.043243 235.641101 
L 553.043243 163.578425 
L 549.037648 163.578425 
z
" clip-path="url(#pedc6eb60e9)" style="fill: #56b4e9; opacity: 0.55"/>
   </g>
   <g id="patch_20">
    <path d="M 553.043243 235.641101 
L 557.048839 235.641101 
L 557.048839 146.173457 
L 553.043243 146.173457 
z
" clip-path="url(#pedc6eb60e9)" style="fill: #56b4e9; opacity: 0.55"/>
   </g>
   <g id="patch_21">
    <path d="M 557.048839 235.641101 
L 561.054434 235.641101 
L 561.054434 126.325686 
L 557.048839 126.325686 
z
" clip-path="url(#pedc6eb60e9)" style="fill: #56b4e9; opacity: 0.55"/>
   </g>
   <g id="patch_22">
    <path d="M 561.054434 235.641101 
L 565.06003 235.641101 
L 565.06003 117.928552 
L 561.054434 117.928552 
z
" clip-path="url(#pedc6eb60e9)" style="fill: #56b4e9; opacity: 0.55"/>
   </g>
   <g id="patch_23">
    <path d="M 565.06003 235.641101 
L 569.065626 235.641101 
L 569.065626 116.554475 
L 565.06003 116.554475 
z
" clip-path="url(#pedc6eb60e9)" style="fill: #56b4e9; opacity: 0.55"/>
   </g>
   <g id="patch_24">
    <path d="M 569.065626 235.641101 
L 573.071221 235.641101 
L 573.071221 66.477023 
L 569.065626 66.477023 
z
" clip-path="url(#pedc6eb60e9)" style="fill: #56b4e9; opacity: 0.55"/>
   </g>
   <g id="patch_25">
    <path d="M 573.071221 235.641101 
L 577.076817 235.641101 
L 577.076817 64.492245 
L 573.071221 64.492245 
z
" clip-path="url(#pedc6eb60e9)" style="fill: #56b4e9; opacity: 0.55"/>
   </g>
   <g id="patch_26">
    <path d="M 577.076817 235.641101 
L 581.082412 235.641101 
L 581.082412 70.751927 
L 577.076817 70.751927 
z
" clip-path="url(#pedc6eb60e9)" style="fill: #56b4e9; opacity: 0.55"/>
   </g>
   <g id="patch_27">
    <path d="M 581.082412 235.641101 
L 585.088008 235.641101 
L 585.088008 36.094666 
L 581.082412 36.094666 
z
" clip-path="url(#pedc6eb60e9)" style="fill: #56b4e9; opacity: 0.55"/>
   </g>
   <g id="patch_28">
    <path d="M 585.088008 235.641101 
L 589.093603 235.641101 
L 589.093603 51.209506 
L 585.088008 51.209506 
z
" clip-path="url(#pedc6eb60e9)" style="fill: #56b4e9; opacity: 0.55"/>
   </g>
   <g id="patch_29">
    <path d="M 589.093603 235.641101 
L 593.099199 235.641101 
L 593.099199 73.50008 
L 589.093603 73.50008 
z
" clip-path="url(#pedc6eb60e9)" style="fill: #56b4e9; opacity: 0.55"/>
   </g>
   <g id="patch_30">
    <path d="M 593.099199 235.641101 
L 597.104794 235.641101 
L 597.104794 91.668424 
L 593.099199 91.668424 
z
" clip-path="url(#pedc6eb60e9)" style="fill: #56b4e9; opacity: 0.55"/>
   </g>
   <g id="patch_31">
    <path d="M 597.104794 235.641101 
L 601.11039 235.641101 
L 601.11039 71.209953 
L 597.104794 71.209953 
z
" clip-path="url(#pedc6eb60e9)" style="fill: #56b4e9; opacity: 0.55"/>
   </g>
   <g id="patch_32">
    <path d="M 601.11039 235.641101 
L 605.115986 235.641101 
L 605.115986 65.408296 
L 601.11039 65.408296 
z
" clip-path="url(#pedc6eb60e9)" style="fill: #56b4e9; opacity: 0.55"/>
   </g>
   <g id="patch_33">
    <path d="M 605.115986 235.641101 
L 609.121581 235.641101 
L 609.121581 76.095558 
L 605.115986 76.095558 
z
" clip-path="url(#pedc6eb60e9)" style="fill: #56b4e9; opacity: 0.55"/>
   </g>
   <g id="patch_34">
    <path d="M 609.121581 235.641101 
L 613.127177 235.641101 
L 613.127177 91.057723 
L 609.121581 91.057723 
z
" clip-path="url(#pedc6eb60e9)" style="fill: #56b4e9; opacity: 0.55"/>
   </g>
   <g id="patch_35">
    <path d="M 613.127177 235.641101 
L 617.132772 235.641101 
L 617.132772 96.706704 
L 613.127177 96.706704 
z
" clip-path="url(#pedc6eb60e9)" style="fill: #56b4e9; opacity: 0.55"/>
   </g>
   <g id="patch_36">
    <path d="M 617.132772 235.641101 
L 621.138368 235.641101 
L 621.138368 136.249571 
L 617.132772 136.249571 
z
" clip-path="url(#pedc6eb60e9)" style="fill: #56b4e9; opacity: 0.55"/>
   </g>
   <g id="patch_37">
    <path d="M 621.138368 235.641101 
L 625.143963 235.641101 
L 625.143963 140.3718 
L 621.138368 140.3718 
z
" clip-path="url(#pedc6eb60e9)" style="fill: #56b4e9; opacity: 0.55"/>
   </g>
   <g id="patch_38">
    <path d="M 625.143963 235.641101 
L 629.149559 235.641101 
L 629.149559 149.22696 
L 625.143963 149.22696 
z
" clip-path="url(#pedc6eb60e9)" style="fill: #56b4e9; opacity: 0.55"/>
   </g>
   <g id="patch_39">
    <path d="M 629.149559 235.641101 
L 633.155155 235.641101 
L 633.155155 162.051673 
L 629.149559 162.051673 
z
" clip-path="url(#pedc6eb60e9)" style="fill: #56b4e9; opacity: 0.55"/>
   </g>
   <g id="patch_40">
    <path d="M 633.155155 235.641101 
L 637.16075 235.641101 
L 637.16075 172.586259 
L 633.155155 172.586259 
z
" clip-path="url(#pedc6eb60e9)" style="fill: #56b4e9; opacity: 0.55"/>
   </g>
   <g id="patch_41">
    <path d="M 637.16075 235.641101 
L 641.166346 235.641101 
L 641.166346 172.586259 
L 637.16075 172.586259 
z
" clip-path="url(#pedc6eb60e9)" style="fill: #56b4e9; opacity: 0.55"/>
   </g>
   <g id="patch_42">
    <path d="M 641.166346 235.641101 
L 645.171941 235.641101 
L 645.171941 206.480145 
L 641.166346 206.480145 
z
" clip-path="url(#pedc6eb60e9)" style="fill: #56b4e9; opacity: 0.55"/>
   </g>
   <g id="patch_43">
    <path d="M 645.171941 235.641101 
L 649.177537 235.641101 
L 649.177537 199.609763 
L 645.171941 199.609763 
z
" clip-path="url(#pedc6eb60e9)" style="fill: #56b4e9; opacity: 0.55"/>
   </g>
   <g id="patch_44">
    <path d="M 649.177537 235.641101 
L 653.183132 235.641101 
L 653.183132 205.564094 
L 649.177537 205.564094 
z
" clip-path="url(#pedc6eb60e9)" style="fill: #56b4e9; opacity: 0.55"/>
   </g>
   <g id="patch_45">
    <path d="M 653.183132 235.641101 
L 657.188728 235.641101 
L 657.188728 216.251355 
L 653.183132 216.251355 
z
" clip-path="url(#pedc6eb60e9)" style="fill: #56b4e9; opacity: 0.55"/>
   </g>
   <g id="patch_46">
    <path d="M 657.188728 235.641101 
L 661.194323 235.641101 
L 661.194323 218.236133 
L 657.188728 218.236133 
z
" clip-path="url(#pedc6eb60e9)" style="fill: #56b4e9; opacity: 0.55"/>
   </g>
   <g id="patch_47">
    <path d="M 661.194323 235.641101 
L 665.199919 235.641101 
L 665.199919 220.984285 
L 661.194323 220.984285 
z
" clip-path="url(#pedc6eb60e9)" style="fill: #56b4e9; opacity: 0.55"/>
   </g>
   <g id="patch_48">
    <path d="M 665.199919 235.641101 
L 669.205515 235.641101 
L 669.205515 222.358362 
L 665.199919 222.358362 
z
" clip-path="url(#pedc6eb60e9)" style="fill: #56b4e9; opacity: 0.55"/>
   </g>
   <g id="patch_49">
    <path d="M 669.205515 235.641101 
L 673.21111 235.641101 
L 673.21111 226.633266 
L 669.205515 226.633266 
z
" clip-path="url(#pedc6eb60e9)" style="fill: #56b4e9; opacity: 0.55"/>
   </g>
   <g id="patch_50">
    <path d="M 673.21111 235.641101 
L 677.216706 235.641101 
L 677.216706 231.671547 
L 673.21111 231.671547 
z
" clip-path="url(#pedc6eb60e9)" style="fill: #56b4e9; opacity: 0.55"/>
   </g>
   <g id="patch_51">
    <path d="M 677.216706 235.641101 
L 681.222301 235.641101 
L 681.222301 232.129572 
L 677.216706 232.129572 
z
" clip-path="url(#pedc6eb60e9)" style="fill: #56b4e9; opacity: 0.55"/>
   </g>
   <g id="patch_52">
    <path d="M 681.222301 235.641101 
L 685.227897 235.641101 
L 685.227897 233.198298 
L 681.222301 233.198298 
z
" clip-path="url(#pedc6eb60e9)" style="fill: #56b4e9; opacity: 0.55"/>
   </g>
   <g id="patch_53">
    <path d="M 685.227897 235.641101 
L 689.233492 235.641101 
L 689.233492 233.503649 
L 685.227897 233.503649 
z
" clip-path="url(#pedc6eb60e9)" style="fill: #56b4e9; opacity: 0.55"/>
   </g>
   <g id="patch_54">
    <path d="M 689.233492 235.641101 
L 693.239088 235.641101 
L 693.239088 235.0304 
L 689.233492 235.0304 
z
" clip-path="url(#pedc6eb60e9)" style="fill: #56b4e9; opacity: 0.55"/>
   </g>
   <g id="patch_55">
    <path d="M 693.239088 235.641101 
L 697.244684 235.641101 
L 697.244684 233.656324 
L 693.239088 233.656324 
z
" clip-path="url(#pedc6eb60e9)" style="fill: #56b4e9; opacity: 0.55"/>
   </g>
   <g id="patch_56">
    <path d="M 697.244684 235.641101 
L 701.250279 235.641101 
L 701.250279 233.961674 
L 697.244684 233.961674 
z
" clip-path="url(#pedc6eb60e9)" style="fill: #56b4e9; opacity: 0.55"/>
   </g>
   <g id="patch_57">
    <path d="M 701.250279 235.641101 
L 705.255875 235.641101 
L 705.255875 235.183075 
L 701.250279 235.183075 
z
" clip-path="url(#pedc6eb60e9)" style="fill: #56b4e9; opacity: 0.55"/>
   </g>
   <g id="patch_58">
    <path d="M 705.255875 235.641101 
L 709.26147 235.641101 
L 709.26147 235.488426 
L 705.255875 235.488426 
z
" clip-path="url(#pedc6eb60e9)" style="fill: #56b4e9; opacity: 0.55"/>
   </g>
   <g id="patch_59">
    <path d="M 709.26147 235.641101 
L 713.267066 235.641101 
L 713.267066 235.335751 
L 709.26147 235.335751 
z
" clip-path="url(#pedc6eb60e9)" style="fill: #56b4e9; opacity: 0.55"/>
   </g>
   <g id="patch_60">
    <path d="M 713.267066 235.641101 
L 717.272661 235.641101 
L 717.272661 235.641101 
L 713.267066 235.641101 
z
" clip-path="url(#pedc6eb60e9)" style="fill: #56b4e9; opacity: 0.55"/>
   </g>
   <g id="patch_61">
    <path d="M 717.272661 235.641101 
L 721.278257 235.641101 
L 721.278257 235.488426 
L 717.272661 235.488426 
z
" clip-path="url(#pedc6eb60e9)" style="fill: #56b4e9; opacity: 0.55"/>
   </g>
   <g id="patch_62">
    <path d="M 721.278257 235.641101 
L 725.283853 235.641101 
L 725.283853 235.641101 
L 721.278257 235.641101 
z
" clip-path="url(#pedc6eb60e9)" style="fill: #56b4e9; opacity: 0.55"/>
   </g>
   <g id="patch_63">
    <path d="M 725.283853 235.641101 
L 729.289448 235.641101 
L 729.289448 235.641101 
L 725.283853 235.641101 
z
" clip-path="url(#pedc6eb60e9)" style="fill: #56b4e9; opacity: 0.55"/>
   </g>
   <g id="patch_64">
    <path d="M 729.289448 235.641101 
L 733.295044 235.641101 
L 733.295044 235.641101 
L 729.289448 235.641101 
z
" clip-path="url(#pedc6eb60e9)" style="fill: #56b4e9; opacity: 0.55"/>
   </g>
   <g id="patch_65">
    <path d="M 733.295044 235.641101 
L 737.300639 235.641101 
L 737.300639 235.488426 
L 733.295044 235.488426 
z
" clip-path="url(#pedc6eb60e9)" style="fill: #56b4e9; opacity: 0.55"/>
   </g>
   <g id="matplotlib.axis_3">
    <g id="xtick_6">
     <g id="line2d_19">
      <path d="M 462.142805 235.641101 
L 462.142805 26.117344 
" clip-path="url(#pedc6eb60e9)" style="fill: none; stroke: #7a7a7a; stroke-opacity: 0.3; stroke-width: 0.8; stroke-linecap: square"/>
     </g>
     <g id="line2d_20">
      <g>
       <use xlink:href="#m6b0c61a0ae" x="462.142805" y="235.641101" style="fill: #7a7a7a; stroke: #7a7a7a; stroke-width: 0.8"/>
      </g>
     </g>
     <g id="text_12">
      <text style="font-size: 15px; font-family: 'DejaVu Sans', 'Bitstream Vera Sans', 'Computer Modern Sans Serif', 'Lucida Grande', 'Verdana', 'Geneva', 'Lucid', 'Arial', 'Helvetica', 'Avant Garde', sans-serif; text-anchor: middle; fill: #7a7a7a" x="462.142805" y="254.037585" transform="rotate(-0 462.142805 254.037585)">−1</text>
     </g>
    </g>
    <g id="xtick_7">
     <g id="line2d_21">
      <path d="M 531.944024 235.641101 
L 531.944024 26.117344 
" clip-path="url(#pedc6eb60e9)" style="fill: none; stroke: #7a7a7a; stroke-opacity: 0.3; stroke-width: 0.8; stroke-linecap: square"/>
     </g>
     <g id="line2d_22">
      <g>
       <use xlink:href="#m6b0c61a0ae" x="531.944024" y="235.641101" style="fill: #7a7a7a; stroke: #7a7a7a; stroke-width: 0.8"/>
      </g>
     </g>
     <g id="text_13">
      <text style="font-size: 15px; font-family: 'DejaVu Sans', 'Bitstream Vera Sans', 'Computer Modern Sans Serif', 'Lucida Grande', 'Verdana', 'Geneva', 'Lucid', 'Arial', 'Helvetica', 'Avant Garde', sans-serif; text-anchor: middle; fill: #7a7a7a" x="531.944024" y="254.037585" transform="rotate(-0 531.944024 254.037585)">0</text>
     </g>
    </g>
    <g id="xtick_8">
     <g id="line2d_23">
      <path d="M 601.745242 235.641101 
L 601.745242 26.117344 
" clip-path="url(#pedc6eb60e9)" style="fill: none; stroke: #7a7a7a; stroke-opacity: 0.3; stroke-width: 0.8; stroke-linecap: square"/>
     </g>
     <g id="line2d_24">
      <g>
       <use xlink:href="#m6b0c61a0ae" x="601.745242" y="235.641101" style="fill: #7a7a7a; stroke: #7a7a7a; stroke-width: 0.8"/>
      </g>
     </g>
     <g id="text_14">
      <text style="font-size: 15px; font-family: 'DejaVu Sans', 'Bitstream Vera Sans', 'Computer Modern Sans Serif', 'Lucida Grande', 'Verdana', 'Geneva', 'Lucid', 'Arial', 'Helvetica', 'Avant Garde', sans-serif; text-anchor: middle; fill: #7a7a7a" x="601.745242" y="254.037585" transform="rotate(-0 601.745242 254.037585)">1</text>
     </g>
    </g>
    <g id="xtick_9">
     <g id="line2d_25">
      <path d="M 671.546461 235.641101 
L 671.546461 26.117344 
" clip-path="url(#pedc6eb60e9)" style="fill: none; stroke: #7a7a7a; stroke-opacity: 0.3; stroke-width: 0.8; stroke-linecap: square"/>
     </g>
     <g id="line2d_26">
      <g>
       <use xlink:href="#m6b0c61a0ae" x="671.546461" y="235.641101" style="fill: #7a7a7a; stroke: #7a7a7a; stroke-width: 0.8"/>
      </g>
     </g>
     <g id="text_15">
      <text style="font-size: 15px; font-family: 'DejaVu Sans', 'Bitstream Vera Sans', 'Computer Modern Sans Serif', 'Lucida Grande', 'Verdana', 'Geneva', 'Lucid', 'Arial', 'Helvetica', 'Avant Garde', sans-serif; text-anchor: middle; fill: #7a7a7a" x="671.546461" y="254.037585" transform="rotate(-0 671.546461 254.037585)">2</text>
     </g>
    </g>
    <g id="xtick_10">
     <g id="line2d_27">
      <path d="M 741.347679 235.641101 
L 741.347679 26.117344 
" clip-path="url(#pedc6eb60e9)" style="fill: none; stroke: #7a7a7a; stroke-opacity: 0.3; stroke-width: 0.8; stroke-linecap: square"/>
     </g>
     <g id="line2d_28">
      <g>
       <use xlink:href="#m6b0c61a0ae" x="741.347679" y="235.641101" style="fill: #7a7a7a; stroke: #7a7a7a; stroke-width: 0.8"/>
      </g>
     </g>
     <g id="text_16">
      <text style="font-size: 15px; font-family: 'DejaVu Sans', 'Bitstream Vera Sans', 'Computer Modern Sans Serif', 'Lucida Grande', 'Verdana', 'Geneva', 'Lucid', 'Arial', 'Helvetica', 'Avant Garde', sans-serif; text-anchor: middle; fill: #7a7a7a" x="741.347679" y="254.037585" transform="rotate(-0 741.347679 254.037585)">3</text>
     </g>
    </g>
    <g id="text_17">
     <!-- slope  $w_1$ -->
     <g style="fill: #7a7a7a" transform="translate(558.444531 273.041101)">
      <text>
       <tspan x="0" y="-0.609375" style="font-size: 15px; font-family: 'DejaVu Sans'; fill: #7a7a7a">s</tspan>
       <tspan x="7.814941" y="-0.609375" style="font-size: 15px; font-family: 'DejaVu Sans'; fill: #7a7a7a">l</tspan>
       <tspan x="11.982422" y="-0.609375" style="font-size: 15px; font-family: 'DejaVu Sans'; fill: #7a7a7a">o</tspan>
       <tspan x="21.159668" y="-0.609375" style="font-size: 15px; font-family: 'DejaVu Sans'; fill: #7a7a7a">p</tspan>
       <tspan x="30.681152" y="-0.609375" style="font-size: 15px; font-family: 'DejaVu Sans'; fill: #7a7a7a">e</tspan>
       <tspan x="39.909668" y="-0.609375" style="font-size: 15px; font-family: 'DejaVu Sans'; fill: #7a7a7a"> </tspan>
       <tspan x="44.677734" y="-0.609375" style="font-size: 15px; font-family: 'DejaVu Sans'; fill: #7a7a7a"> </tspan>
       <tspan x="49.445801" y="-0.609375" style="font-style: oblique; font-size: 15px; font-family: 'DejaVu Sans'; fill: #7a7a7a">w</tspan>
       <tspan x="61.713867" y="1.640618" style="font-size: 10.5px; font-family: 'DejaVu Sans'; fill: #7a7a7a">1</tspan>
      </text>
     </g>
    </g>
   </g>
   <g id="matplotlib.axis_4">
    <g id="ytick_4">
     <g id="line2d_29">
      <path d="M 433.995312 235.641101 
L 751.74375 235.641101 
" clip-path="url(#pedc6eb60e9)" style="fill: none; stroke: #7a7a7a; stroke-opacity: 0.3; stroke-width: 0.8; stroke-linecap: square"/>
     </g>
     <g id="line2d_30">
      <g>
       <use xlink:href="#m00dc9f37a7" x="433.995312" y="235.641101" style="fill: #7a7a7a; stroke: #7a7a7a; stroke-width: 0.8"/>
      </g>
     </g>
     <g id="text_18">
      <text style="font-size: 15px; font-family: 'DejaVu Sans', 'Bitstream Vera Sans', 'Computer Modern Sans Serif', 'Lucida Grande', 'Verdana', 'Geneva', 'Lucid', 'Arial', 'Helvetica', 'Avant Garde', sans-serif; text-anchor: end; fill: #7a7a7a" x="426.995312" y="241.339343" transform="rotate(-0 426.995312 241.339343)">0.0</text>
     </g>
    </g>
    <g id="ytick_5">
     <g id="line2d_31">
      <path d="M 433.995312 197.091032 
L 751.74375 197.091032 
" clip-path="url(#pedc6eb60e9)" style="fill: none; stroke: #7a7a7a; stroke-opacity: 0.3; stroke-width: 0.8; stroke-linecap: square"/>
     </g>
     <g id="line2d_32">
      <g>
       <use xlink:href="#m00dc9f37a7" x="433.995312" y="197.091032" style="fill: #7a7a7a; stroke: #7a7a7a; stroke-width: 0.8"/>
      </g>
     </g>
     <g id="text_19">
      <text style="font-size: 15px; font-family: 'DejaVu Sans', 'Bitstream Vera Sans', 'Computer Modern Sans Serif', 'Lucida Grande', 'Verdana', 'Geneva', 'Lucid', 'Arial', 'Helvetica', 'Avant Garde', sans-serif; text-anchor: end; fill: #7a7a7a" x="426.995312" y="202.789274" transform="rotate(-0 426.995312 202.789274)">0.2</text>
     </g>
    </g>
    <g id="ytick_6">
     <g id="line2d_33">
      <path d="M 433.995312 158.540964 
L 751.74375 158.540964 
" clip-path="url(#pedc6eb60e9)" style="fill: none; stroke: #7a7a7a; stroke-opacity: 0.3; stroke-width: 0.8; stroke-linecap: square"/>
     </g>
     <g id="line2d_34">
      <g>
       <use xlink:href="#m00dc9f37a7" x="433.995312" y="158.540964" style="fill: #7a7a7a; stroke: #7a7a7a; stroke-width: 0.8"/>
      </g>
     </g>
     <g id="text_20">
      <text style="font-size: 15px; font-family: 'DejaVu Sans', 'Bitstream Vera Sans', 'Computer Modern Sans Serif', 'Lucida Grande', 'Verdana', 'Geneva', 'Lucid', 'Arial', 'Helvetica', 'Avant Garde', sans-serif; text-anchor: end; fill: #7a7a7a" x="426.995312" y="164.239206" transform="rotate(-0 426.995312 164.239206)">0.4</text>
     </g>
    </g>
    <g id="ytick_7">
     <g id="line2d_35">
      <path d="M 433.995312 119.990895 
L 751.74375 119.990895 
" clip-path="url(#pedc6eb60e9)" style="fill: none; stroke: #7a7a7a; stroke-opacity: 0.3; stroke-width: 0.8; stroke-linecap: square"/>
     </g>
     <g id="line2d_36">
      <g>
       <use xlink:href="#m00dc9f37a7" x="433.995312" y="119.990895" style="fill: #7a7a7a; stroke: #7a7a7a; stroke-width: 0.8"/>
      </g>
     </g>
     <g id="text_21">
      <text style="font-size: 15px; font-family: 'DejaVu Sans', 'Bitstream Vera Sans', 'Computer Modern Sans Serif', 'Lucida Grande', 'Verdana', 'Geneva', 'Lucid', 'Arial', 'Helvetica', 'Avant Garde', sans-serif; text-anchor: end; fill: #7a7a7a" x="426.995312" y="125.689137" transform="rotate(-0 426.995312 125.689137)">0.6</text>
     </g>
    </g>
    <g id="ytick_8">
     <g id="line2d_37">
      <path d="M 433.995312 81.440826 
L 751.74375 81.440826 
" clip-path="url(#pedc6eb60e9)" style="fill: none; stroke: #7a7a7a; stroke-opacity: 0.3; stroke-width: 0.8; stroke-linecap: square"/>
     </g>
     <g id="line2d_38">
      <g>
       <use xlink:href="#m00dc9f37a7" x="433.995312" y="81.440826" style="fill: #7a7a7a; stroke: #7a7a7a; stroke-width: 0.8"/>
      </g>
     </g>
     <g id="text_22">
      <text style="font-size: 15px; font-family: 'DejaVu Sans', 'Bitstream Vera Sans', 'Computer Modern Sans Serif', 'Lucida Grande', 'Verdana', 'Geneva', 'Lucid', 'Arial', 'Helvetica', 'Avant Garde', sans-serif; text-anchor: end; fill: #7a7a7a" x="426.995312" y="87.139069" transform="rotate(-0 426.995312 87.139069)">0.8</text>
     </g>
    </g>
    <g id="ytick_9">
     <g id="line2d_39">
      <path d="M 433.995312 42.890758 
L 751.74375 42.890758 
" clip-path="url(#pedc6eb60e9)" style="fill: none; stroke: #7a7a7a; stroke-opacity: 0.3; stroke-width: 0.8; stroke-linecap: square"/>
     </g>
     <g id="line2d_40">
      <g>
       <use xlink:href="#m00dc9f37a7" x="433.995312" y="42.890758" style="fill: #7a7a7a; stroke: #7a7a7a; stroke-width: 0.8"/>
      </g>
     </g>
     <g id="text_23">
      <text style="font-size: 15px; font-family: 'DejaVu Sans', 'Bitstream Vera Sans', 'Computer Modern Sans Serif', 'Lucida Grande', 'Verdana', 'Geneva', 'Lucid', 'Arial', 'Helvetica', 'Avant Garde', sans-serif; text-anchor: end; fill: #7a7a7a" x="426.995312" y="48.589" transform="rotate(-0 426.995312 48.589)">1.0</text>
     </g>
    </g>
    <g id="text_24">
     <text style="font-size: 15px; font-family: 'DejaVu Sans', 'Bitstream Vera Sans', 'Computer Modern Sans Serif', 'Lucida Grande', 'Verdana', 'Geneva', 'Lucid', 'Arial', 'Helvetica', 'Avant Garde', sans-serif; text-anchor: middle; fill: #7a7a7a" x="395.537109" y="130.879222" transform="rotate(-90 395.537109 130.879222)">density</text>
    </g>
   </g>
   <g id="line2d_41">
    <path d="M 448.438423 235.641029 
L 488.91867 235.542119 
L 496.508716 235.336784 
L 501.568747 235.02713 
L 505.363771 234.627842 
L 509.158794 234.005723 
L 511.688809 233.419028 
L 514.218825 232.652421 
L 516.74884 231.662396 
L 519.278855 230.398938 
L 521.808871 228.80583 
L 524.338886 226.821428 
L 526.868902 224.379988 
L 529.398917 221.413621 
L 531.928933 217.854874 
L 534.458948 213.639934 
L 536.988964 208.712361 
L 539.518979 203.027204 
L 542.048994 196.555288 
L 544.57901 189.287419 
L 547.109025 181.238192 
L 549.639041 172.449092 
L 552.169056 162.990585 
L 555.964079 147.774984 
L 561.02411 126.317671 
L 566.084141 104.843699 
L 569.879164 89.713164 
L 572.40918 80.483255 
L 574.939195 72.16931 
L 577.469211 64.94765 
L 578.734218 61.794554 
L 579.999226 58.968517 
L 581.264234 56.483362 
L 582.529242 54.350682 
L 583.794249 52.579764 
L 585.059257 51.177531 
L 586.324265 50.148508 
L 587.589272 49.494822 
L 588.85428 49.216224 
L 590.119288 49.310135 
L 591.384296 49.771724 
L 592.649303 50.593992 
L 593.914311 51.767894 
L 595.179319 53.282466 
L 596.444326 55.124971 
L 597.709334 57.281064 
L 598.974342 59.734956 
L 601.504357 65.466842 
L 604.034373 72.172347 
L 606.564388 79.691811 
L 609.094404 87.85998 
L 612.889427 100.967817 
L 626.804512 150.339235 
L 630.599535 162.492376 
L 633.12955 170.038214 
L 635.659566 177.096013 
L 638.189581 183.644628 
L 640.719597 189.675158 
L 643.249612 195.189224 
L 645.779628 200.197234 
L 648.309643 204.716685 
L 650.839659 208.770563 
L 653.369674 212.385882 
L 655.899689 215.592367 
L 658.429705 218.421325 
L 660.95972 220.904678 
L 663.489736 223.074172 
L 666.019751 224.960746 
L 668.549767 226.59405 
L 671.079782 228.00209 
L 673.609798 229.210989 
L 677.404821 230.703099 
L 681.199844 231.87342 
L 684.994867 232.784081 
L 688.78989 233.487385 
L 693.849921 234.176359 
L 700.17496 234.748348 
L 707.765006 235.157084 
L 717.885068 235.433027 
L 725.475114 235.532727 
L 725.475114 235.532727 
" clip-path="url(#pedc6eb60e9)" style="fill: none; stroke: #0072b2; stroke-width: 2.4; stroke-linecap: square"/>
   </g>
   <g id="line2d_42">
    <path d="M 448.438423 235.640379 
L 480.063616 235.52775 
L 488.91867 235.271397 
L 493.978701 234.947165 
L 499.038732 234.381315 
L 502.833755 233.713478 
L 505.363771 233.108046 
L 507.893786 232.340103 
L 510.423801 231.375073 
L 512.953817 230.173711 
L 515.483832 228.692228 
L 518.013848 226.882663 
L 520.543863 224.693553 
L 523.073879 222.070941 
L 525.603894 218.959756 
L 528.13391 215.305591 
L 530.663925 211.056848 
L 533.19394 206.167249 
L 535.723956 200.598631 
L 538.253971 194.32394 
L 540.783987 187.330309 
L 543.314002 179.622045 
L 545.844018 171.22338 
L 548.374033 162.180774 
L 552.169056 147.570139 
L 555.964079 132.016474 
L 566.084141 89.770562 
L 568.614157 80.030715 
L 571.144172 71.019239 
L 573.674188 62.932337 
L 576.204203 55.953059 
L 577.469211 52.930686 
L 578.734218 50.244437 
L 579.999226 47.910526 
L 581.264234 45.943171 
L 582.529242 44.354454 
L 583.794249 43.15419 
L 585.059257 42.349833 
L 586.324265 41.946395 
L 587.589272 41.946395 
L 588.85428 42.349833 
L 590.119288 43.15419 
L 591.384296 44.354454 
L 592.649303 45.943171 
L 593.914311 47.910526 
L 595.179319 50.244437 
L 596.444326 52.930686 
L 597.709334 55.953059 
L 600.23935 62.932337 
L 602.769365 71.019239 
L 605.299381 80.030715 
L 607.829396 89.770562 
L 611.624419 105.303498 
L 621.744481 147.570139 
L 625.539504 162.180774 
L 628.06952 171.22338 
L 630.599535 179.622045 
L 633.12955 187.330309 
L 635.659566 194.32394 
L 638.189581 200.598631 
L 640.719597 206.167249 
L 643.249612 211.056848 
L 645.779628 215.305591 
L 648.309643 218.959756 
L 650.839659 222.070941 
L 653.369674 224.693553 
L 655.899689 226.882663 
L 658.429705 228.692228 
L 660.95972 230.173711 
L 663.489736 231.375073 
L 666.019751 232.340103 
L 668.549767 233.108046 
L 672.34479 233.964798 
L 676.139813 234.552395 
L 681.199844 235.046383 
L 687.524882 235.374607 
L 696.379937 235.561744 
L 714.090045 235.635922 
L 725.475114 235.640379 
L 725.475114 235.640379 
" clip-path="url(#pedc6eb60e9)" style="fill: none; stroke-dasharray: 8.88,3.84; stroke-dashoffset: 0; stroke: #d55e00; stroke-width: 2.4"/>
   </g>
   <g id="patch_66">
    <path d="M 433.995312 235.641101 
L 433.995312 26.117344 
" style="fill: none; stroke: #7a7a7a; stroke-width: 0.8; stroke-linejoin: miter; stroke-linecap: square"/>
   </g>
   <g id="patch_67">
    <path d="M 433.995312 235.641101 
L 751.74375 235.641101 
" style="fill: none; stroke: #7a7a7a; stroke-width: 0.8; stroke-linejoin: miter; stroke-linecap: square"/>
   </g>
   <g id="text_25">
    <text style="font-size: 17px; font-family: 'DejaVu Sans', 'Bitstream Vera Sans', 'Computer Modern Sans Serif', 'Lucida Grande', 'Verdana', 'Geneva', 'Lucid', 'Arial', 'Helvetica', 'Avant Garde', sans-serif; text-anchor: middle; fill: #7a7a7a" x="592.869531" y="20.117344" transform="rotate(-0 592.869531 20.117344)">draws vs. exact vs. Laplace</text>
   </g>
   <g id="legend_1">
    <g id="patch_68">
     <path d="M 629.646875 42.715781 
L 649.646875 42.715781 
L 649.646875 35.715781 
L 629.646875 35.715781 
z
" style="fill: #56b4e9; opacity: 0.55"/>
    </g>
    <g id="text_26">
     <text style="font-size: 10px; font-family: 'DejaVu Sans', 'Bitstream Vera Sans', 'Computer Modern Sans Serif', 'Lucida Grande', 'Verdana', 'Geneva', 'Lucid', 'Arial', 'Helvetica', 'Avant Garde', sans-serif; text-anchor: start; fill: #7a7a7a" x="657.646875" y="42.715781" transform="rotate(-0 657.646875 42.715781)">Metropolis draws</text>
    </g>
    <g id="line2d_43">
     <path d="M 629.646875 54.216562 
L 639.646875 54.216562 
L 649.646875 54.216562 
" style="fill: none; stroke: #0072b2; stroke-width: 2.4; stroke-linecap: square"/>
    </g>
    <g id="text_27">
     <text style="font-size: 10px; font-family: 'DejaVu Sans', 'Bitstream Vera Sans', 'Computer Modern Sans Serif', 'Lucida Grande', 'Verdana', 'Geneva', 'Lucid', 'Arial', 'Helvetica', 'Avant Garde', sans-serif; text-anchor: start; fill: #7a7a7a" x="657.646875" y="57.716562" transform="rotate(-0 657.646875 57.716562)">exact</text>
    </g>
    <g id="line2d_44">
     <path d="M 629.646875 69.217344 
L 639.646875 69.217344 
L 649.646875 69.217344 
" style="fill: none; stroke-dasharray: 8.88,3.84; stroke-dashoffset: 0; stroke: #d55e00; stroke-width: 2.4"/>
    </g>
    <g id="text_28">
     <text style="font-size: 10px; font-family: 'DejaVu Sans', 'Bitstream Vera Sans', 'Computer Modern Sans Serif', 'Lucida Grande', 'Verdana', 'Geneva', 'Lucid', 'Arial', 'Helvetica', 'Avant Garde', sans-serif; text-anchor: start; fill: #7a7a7a" x="657.646875" y="72.717344" transform="rotate(-0 657.646875 72.717344)">Laplace</text>
    </g>
   </g>
  </g>
 </g>
 <defs>
  <clipPath id="p5015fc163e">
   <rect x="42.747266" y="26.117344" width="317.748438" height="209.523757"/>
  </clipPath>
  <clipPath id="pedc6eb60e9">
   <rect x="433.995312" y="26.117344" width="317.748438" height="209.523757"/>
  </clipPath>
 </defs>
</svg>
