<?xml version="1.0" encoding="utf-8" standalone="no"?>
<!DOCTYPE svg PUBLIC "-//W3C//DTD SVG 1.1//EN"
  "http://www.w3.org/Graphics/SVG/1.1/DTD/svg11.dtd">
<svg xmlns:xlink="http://www.w3.org/1999/xlink" width="593.177876pt" height="327.601172pt" viewBox="0 0 593.177876 327.601172" xmlns="http://www.w3.org/2000/svg" version="1.1">
 <metadata>
  <rdf:RDF xmlns:dc="http://purl.org/dc/elements/1.1/" xmlns:cc="http://creativecommons.org/ns#" xmlns:rdf="http://www.w3.org/1999/02/22-rdf-syntax-ns#">
   <cc:Work>
    <dc:type rdf:resource="http://purl.org/dc/dcmitype/StillImage"/>
    <dc:date>2026-07-02T19:38:49.559073</dc:date>
    <dc:format>image/svg+xml</dc:format>
    <dc:creator>
     <cc:Agent>
      <dc:title>Matplotlib v3.11.0, https://matplotlib.org/</dc:title>
     </cc:Agent>
    </dc:creator>
   </cc:Work>
  </rdf:RDF>
 </metadata>
 <defs>
  <style type="text/css">*{stroke-linejoin: round; stroke-linecap: butt}</style>
 </defs>
 <g id="figure_1">
  <g id="patch_1">
   <path d="M 0 327.601172 
L 593.177876 327.601172 
L 593.177876 0 
L 0 0 
L 0 327.601172 
z
" style="fill: none; opacity: 0"/>
  </g>
  <g id="axes_1">
   <g id="patch_2">
    <path d="M 61.832422 279.4 
L 585.977876 279.4 
L 585.977876 7.2 
L 61.832422 7.2 
L 61.832422 279.4 
z
" style="fill: none; opacity: 0"/>
   </g>
   <g id="PathCollection_1">
    <defs>
     <path id="m66ed39a77f" d="M 0 1.870829 
C 0.49615 1.870829 0.972045 1.673706 1.322876 1.322876 
C 1.673706 0.972045 1.870829 0.49615 1.870829 0 
C 1.870829 -0.49615 1.673706 -0.972045 1.322876 -1.322876 
C 0.972045 -1.673706 0.49615 -1.870829 0 -1.870829 
C -0.49615 -1.870829 -0.972045 -1.673706 -1.322876 -1.322876 
C -1.673706 -0.972045 -1.870829 -0.49615 -1.870829 0 
C -1.870829 0.49615 -1.673706 0.972045 -1.322876 1.322876 
C -0.972045 1.673706 -0.49615 1.870829 0 1.870829 
z
" style="stroke: #0072b2; stroke-opacity: 0.4"/>
    </defs>
    <g clip-path="url(#p54e00f10d6)">
     <use xlink:href="#m66ed39a77f" x="335.622261" y="133.724307" style="fill: #0072b2; fill-opacity: 0.4; stroke: #0072b2; stroke-opacity: 0.4"/>
     <use xlink:href="#m66ed39a77f" x="452.793376" y="156.554729" style="fill: #0072b2; fill-opacity: 0.4; stroke: #0072b2; stroke-opacity: 0.4"/>
     <use xlink:href="#m66ed39a77f" x="257.508184" y="206.605844" style="fill: #0072b2; fill-opacity: 0.4; stroke: #0072b2; stroke-opacity: 0.4"/>
     <use xlink:href="#m66ed39a77f" x="390.302114" y="132.846305" style="fill: #0072b2; fill-opacity: 0.4; stroke: #0072b2; stroke-opacity: 0.4"/>
     <use xlink:href="#m66ed39a77f" x="390.302114" y="194.3125" style="fill: #0072b2; fill-opacity: 0.4; stroke: #0072b2; stroke-opacity: 0.4"/>
     <use xlink:href="#m66ed39a77f" x="554.341675" y="196.946769" style="fill: #0072b2; fill-opacity: 0.4; stroke: #0072b2; stroke-opacity: 0.4"/>
     <use xlink:href="#m66ed39a77f" x="429.359153" y="156.554729" style="fill: #0072b2; fill-opacity: 0.4; stroke: #0072b2; stroke-opacity: 0.4"/>
     <use xlink:href="#m66ed39a77f" x="304.37663" y="181.141154" style="fill: #0072b2; fill-opacity: 0.4; stroke: #0072b2; stroke-opacity: 0.4"/>
     <use xlink:href="#m66ed39a77f" x="140.337069" y="214.508652" style="fill: #0072b2; fill-opacity: 0.4; stroke: #0072b2; stroke-opacity: 0.4"/>
     <use xlink:href="#m66ed39a77f" x="398.113522" y="112.650153" style="fill: #0072b2; fill-opacity: 0.4; stroke: #0072b2; stroke-opacity: 0.4"/>
     <use xlink:href="#m66ed39a77f" x="312.188038" y="90.697997" style="fill: #0072b2; fill-opacity: 0.4; stroke: #0072b2; stroke-opacity: 0.4"/>
     <use xlink:href="#m66ed39a77f" x="195.016923" y="183.775423" style="fill: #0072b2; fill-opacity: 0.4; stroke: #0072b2; stroke-opacity: 0.4"/>
     <use xlink:href="#m66ed39a77f" x="491.850414" y="176.750617" style="fill: #0072b2; fill-opacity: 0.4; stroke: #0072b2; stroke-opacity: 0.4"/>
     <use xlink:href="#m66ed39a77f" x="327.810853" y="159.188998" style="fill: #0072b2; fill-opacity: 0.4; stroke: #0072b2; stroke-opacity: 0.4"/>
     <use xlink:href="#m66ed39a77f" x="413.736337" y="171.482079" style="fill: #0072b2; fill-opacity: 0.4; stroke: #0072b2; stroke-opacity: 0.4"/>
     <use xlink:href="#m66ed39a77f" x="234.073961" y="116.162424" style="fill: #0072b2; fill-opacity: 0.4; stroke: #0072b2; stroke-opacity: 0.4"/>
     <use xlink:href="#m66ed39a77f" x="296.565222" y="95.966536" style="fill: #0072b2; fill-opacity: 0.4; stroke: #0072b2; stroke-opacity: 0.4"/>
     <use xlink:href="#m66ed39a77f" x="132.525661" y="191.678231" style="fill: #0072b2; fill-opacity: 0.4; stroke: #0072b2; stroke-opacity: 0.4"/>
     <use xlink:href="#m66ed39a77f" x="390.302114" y="159.188998" style="fill: #0072b2; fill-opacity: 0.4; stroke: #0072b2; stroke-opacity: 0.4"/>
     <use xlink:href="#m66ed39a77f" x="195.016923" y="237.33881" style="fill: #0072b2; fill-opacity: 0.4; stroke: #0072b2; stroke-opacity: 0.4"/>
     <use xlink:href="#m66ed39a77f" x="460.604783" y="115.284422" style="fill: #0072b2; fill-opacity: 0.4; stroke: #0072b2; stroke-opacity: 0.4"/>
     <use xlink:href="#m66ed39a77f" x="523.096045" y="160.067" style="fill: #0072b2; fill-opacity: 0.4; stroke: #0072b2; stroke-opacity: 0.4"/>
     <use xlink:href="#m66ed39a77f" x="421.547745" y="168.84781" style="fill: #0072b2; fill-opacity: 0.4; stroke: #0072b2; stroke-opacity: 0.4"/>
     <use xlink:href="#m66ed39a77f" x="562.153083" y="36.256345" style="fill: #0072b2; fill-opacity: 0.4; stroke: #0072b2; stroke-opacity: 0.4"/>
     <use xlink:href="#m66ed39a77f" x="366.867891" y="160.945002" style="fill: #0072b2; fill-opacity: 0.4; stroke: #0072b2; stroke-opacity: 0.4"/>
     <use xlink:href="#m66ed39a77f" x="374.679299" y="114.40642" style="fill: #0072b2; fill-opacity: 0.4; stroke: #0072b2; stroke-opacity: 0.4"/>
     <use xlink:href="#m66ed39a77f" x="304.37663" y="180.263152" style="fill: #0072b2; fill-opacity: 0.4; stroke: #0072b2; stroke-opacity: 0.4"/>
     <use xlink:href="#m66ed39a77f" x="241.885369" y="191.678231" style="fill: #0072b2; fill-opacity: 0.4; stroke: #0072b2; stroke-opacity: 0.4"/>
     <use xlink:href="#m66ed39a77f" x="179.394107" y="163.579271" style="fill: #0072b2; fill-opacity: 0.4; stroke: #0072b2; stroke-opacity: 0.4"/>
     <use xlink:href="#m66ed39a77f" x="202.82833" y="194.3125" style="fill: #0072b2; fill-opacity: 0.4; stroke: #0072b2; stroke-opacity: 0.4"/>
     <use xlink:href="#m66ed39a77f" x="468.416191" y="82.795189" style="fill: #0072b2; fill-opacity: 0.4; stroke: #0072b2; stroke-opacity: 0.4"/>
     <use xlink:href="#m66ed39a77f" x="249.696776" y="185.53169" style="fill: #0072b2; fill-opacity: 0.4; stroke: #0072b2; stroke-opacity: 0.4"/>
     <use xlink:href="#m66ed39a77f" x="280.942407" y="185.53169" style="fill: #0072b2; fill-opacity: 0.4; stroke: #0072b2; stroke-opacity: 0.4"/>
     <use xlink:href="#m66ed39a77f" x="405.92493" y="163.579271" style="fill: #0072b2; fill-opacity: 0.4; stroke: #0072b2; stroke-opacity: 0.4"/>
     <use xlink:href="#m66ed39a77f" x="101.280031" y="202.215308" style="fill: #0072b2; fill-opacity: 0.4; stroke: #0072b2; stroke-opacity: 0.4"/>
     <use xlink:href="#m66ed39a77f" x="273.130999" y="155.676463" style="fill: #0072b2; fill-opacity: 0.4; stroke: #0072b2; stroke-opacity: 0.4"/>
     <use xlink:href="#m66ed39a77f" x="218.451146" y="152.164192" style="fill: #0072b2; fill-opacity: 0.4; stroke: #0072b2; stroke-opacity: 0.4"/>
     <use xlink:href="#m66ed39a77f" x="554.341675" y="255.778695" style="fill: #0072b2; fill-opacity: 0.4; stroke: #0072b2; stroke-opacity: 0.4"/>
     <use xlink:href="#m66ed39a77f" x="155.959884" y="203.971575" style="fill: #0072b2; fill-opacity: 0.4; stroke: #0072b2; stroke-opacity: 0.4"/>
     <use xlink:href="#m66ed39a77f" x="460.604783" y="162.701269" style="fill: #0072b2; fill-opacity: 0.4; stroke: #0072b2; stroke-opacity: 0.4"/>
     <use xlink:href="#m66ed39a77f" x="507.473229" y="89.819732" style="fill: #0072b2; fill-opacity: 0.4; stroke: #0072b2; stroke-opacity: 0.4"/>
     <use xlink:href="#m66ed39a77f" x="523.096045" y="182.897421" style="fill: #0072b2; fill-opacity: 0.4; stroke: #0072b2; stroke-opacity: 0.4"/>
     <use xlink:href="#m66ed39a77f" x="546.530268" y="169.726075" style="fill: #0072b2; fill-opacity: 0.4; stroke: #0072b2; stroke-opacity: 0.4"/>
     <use xlink:href="#m66ed39a77f" x="429.359153" y="104.747345" style="fill: #0072b2; fill-opacity: 0.4; stroke: #0072b2; stroke-opacity: 0.4"/>
     <use xlink:href="#m66ed39a77f" x="499.661822" y="131.96804" style="fill: #0072b2; fill-opacity: 0.4; stroke: #0072b2; stroke-opacity: 0.4"/>
     <use xlink:href="#m66ed39a77f" x="405.92493" y="182.019156" style="fill: #0072b2; fill-opacity: 0.4; stroke: #0072b2; stroke-opacity: 0.4"/>
     <use xlink:href="#m66ed39a77f" x="530.907452" y="204.849577" style="fill: #0072b2; fill-opacity: 0.4; stroke: #0072b2; stroke-opacity: 0.4"/>
     <use xlink:href="#m66ed39a77f" x="468.416191" y="80.16092" style="fill: #0072b2; fill-opacity: 0.4; stroke: #0072b2; stroke-opacity: 0.4"/>
     <use xlink:href="#m66ed39a77f" x="398.113522" y="156.554729" style="fill: #0072b2; fill-opacity: 0.4; stroke: #0072b2; stroke-opacity: 0.4"/>
     <use xlink:href="#m66ed39a77f" x="241.885369" y="177.628883" style="fill: #0072b2; fill-opacity: 0.4; stroke: #0072b2; stroke-opacity: 0.4"/>
     <use xlink:href="#m66ed39a77f" x="155.959884" y="129.333771" style="fill: #0072b2; fill-opacity: 0.4; stroke: #0072b2; stroke-opacity: 0.4"/>
     <use xlink:href="#m66ed39a77f" x="187.205515" y="184.653425" style="fill: #0072b2; fill-opacity: 0.4; stroke: #0072b2; stroke-opacity: 0.4"/>
     <use xlink:href="#m66ed39a77f" x="359.056484" y="180.263152" style="fill: #0072b2; fill-opacity: 0.4; stroke: #0072b2; stroke-opacity: 0.4"/>
     <use xlink:href="#m66ed39a77f" x="101.280031" y="197.824771" style="fill: #0072b2; fill-opacity: 0.4; stroke: #0072b2; stroke-opacity: 0.4"/>
     <use xlink:href="#m66ed39a77f" x="374.679299" y="157.432731" style="fill: #0072b2; fill-opacity: 0.4; stroke: #0072b2; stroke-opacity: 0.4"/>
     <use xlink:href="#m66ed39a77f" x="280.942407" y="118.796694" style="fill: #0072b2; fill-opacity: 0.4; stroke: #0072b2; stroke-opacity: 0.4"/>
     <use xlink:href="#m66ed39a77f" x="93.468623" y="221.533195" style="fill: #0072b2; fill-opacity: 0.4; stroke: #0072b2; stroke-opacity: 0.4"/>
     <use xlink:href="#m66ed39a77f" x="476.227599" y="181.141154" style="fill: #0072b2; fill-opacity: 0.4; stroke: #0072b2; stroke-opacity: 0.4"/>
     <use xlink:href="#m66ed39a77f" x="280.942407" y="148.651921" style="fill: #0072b2; fill-opacity: 0.4; stroke: #0072b2; stroke-opacity: 0.4"/>
     <use xlink:href="#m66ed39a77f" x="515.284637" y="140.749113" style="fill: #0072b2; fill-opacity: 0.4; stroke: #0072b2; stroke-opacity: 0.4"/>
     <use xlink:href="#m66ed39a77f" x="187.205515" y="199.581039" style="fill: #0072b2; fill-opacity: 0.4; stroke: #0072b2; stroke-opacity: 0.4"/>
     <use xlink:href="#m66ed39a77f" x="351.245076" y="158.310732" style="fill: #0072b2; fill-opacity: 0.4; stroke: #0072b2; stroke-opacity: 0.4"/>
     <use xlink:href="#m66ed39a77f" x="343.433668" y="154.798461" style="fill: #0072b2; fill-opacity: 0.4; stroke: #0072b2; stroke-opacity: 0.4"/>
     <use xlink:href="#m66ed39a77f" x="257.508184" y="124.943498" style="fill: #0072b2; fill-opacity: 0.4; stroke: #0072b2; stroke-opacity: 0.4"/>
     <use xlink:href="#m66ed39a77f" x="163.771292" y="201.337306" style="fill: #0072b2; fill-opacity: 0.4; stroke: #0072b2; stroke-opacity: 0.4"/>
     <use xlink:href="#m66ed39a77f" x="484.039006" y="167.091806" style="fill: #0072b2; fill-opacity: 0.4; stroke: #0072b2; stroke-opacity: 0.4"/>
     <use xlink:href="#m66ed39a77f" x="523.096045" y="87.185463" style="fill: #0072b2; fill-opacity: 0.4; stroke: #0072b2; stroke-opacity: 0.4"/>
     <use xlink:href="#m66ed39a77f" x="140.337069" y="170.604077" style="fill: #0072b2; fill-opacity: 0.4; stroke: #0072b2; stroke-opacity: 0.4"/>
     <use xlink:href="#m66ed39a77f" x="319.999445" y="88.94173" style="fill: #0072b2; fill-opacity: 0.4; stroke: #0072b2; stroke-opacity: 0.4"/>
     <use xlink:href="#m66ed39a77f" x="460.604783" y="177.628883" style="fill: #0072b2; fill-opacity: 0.4; stroke: #0072b2; stroke-opacity: 0.4"/>
     <use xlink:href="#m66ed39a77f" x="413.736337" y="199.581039" style="fill: #0072b2; fill-opacity: 0.4; stroke: #0072b2; stroke-opacity: 0.4"/>
     <use xlink:href="#m66ed39a77f" x="390.302114" y="203.09331" style="fill: #0072b2; fill-opacity: 0.4; stroke: #0072b2; stroke-opacity: 0.4"/>
     <use xlink:href="#m66ed39a77f" x="554.341675" y="157.432731" style="fill: #0072b2; fill-opacity: 0.4; stroke: #0072b2; stroke-opacity: 0.4"/>
     <use xlink:href="#m66ed39a77f" x="413.736337" y="177.628883" style="fill: #0072b2; fill-opacity: 0.4; stroke: #0072b2; stroke-opacity: 0.4"/>
     <use xlink:href="#m66ed39a77f" x="304.37663" y="105.625347" style="fill: #0072b2; fill-opacity: 0.4; stroke: #0072b2; stroke-opacity: 0.4"/>
     <use xlink:href="#m66ed39a77f" x="429.359153" y="235.582806" style="fill: #0072b2; fill-opacity: 0.4; stroke: #0072b2; stroke-opacity: 0.4"/>
     <use xlink:href="#m66ed39a77f" x="421.547745" y="37.134347" style="fill: #0072b2; fill-opacity: 0.4; stroke: #0072b2; stroke-opacity: 0.4"/>
     <use xlink:href="#m66ed39a77f" x="249.696776" y="163.579271" style="fill: #0072b2; fill-opacity: 0.4; stroke: #0072b2; stroke-opacity: 0.4"/>
     <use xlink:href="#m66ed39a77f" x="249.696776" y="199.581039" style="fill: #0072b2; fill-opacity: 0.4; stroke: #0072b2; stroke-opacity: 0.4"/>
     <use xlink:href="#m66ed39a77f" x="382.490707" y="160.945002" style="fill: #0072b2; fill-opacity: 0.4; stroke: #0072b2; stroke-opacity: 0.4"/>
     <use xlink:href="#m66ed39a77f" x="491.850414" y="107.381615" style="fill: #0072b2; fill-opacity: 0.4; stroke: #0072b2; stroke-opacity: 0.4"/>
     <use xlink:href="#m66ed39a77f" x="265.319592" y="171.482079" style="fill: #0072b2; fill-opacity: 0.4; stroke: #0072b2; stroke-opacity: 0.4"/>
     <use xlink:href="#m66ed39a77f" x="327.810853" y="127.577767" style="fill: #0072b2; fill-opacity: 0.4; stroke: #0072b2; stroke-opacity: 0.4"/>
     <use xlink:href="#m66ed39a77f" x="429.359153" y="88.94173" style="fill: #0072b2; fill-opacity: 0.4; stroke: #0072b2; stroke-opacity: 0.4"/>
     <use xlink:href="#m66ed39a77f" x="171.5827" y="223.289462" style="fill: #0072b2; fill-opacity: 0.4; stroke: #0072b2; stroke-opacity: 0.4"/>
     <use xlink:href="#m66ed39a77f" x="382.490707" y="141.627115" style="fill: #0072b2; fill-opacity: 0.4; stroke: #0072b2; stroke-opacity: 0.4"/>
     <use xlink:href="#m66ed39a77f" x="327.810853" y="80.16092" style="fill: #0072b2; fill-opacity: 0.4; stroke: #0072b2; stroke-opacity: 0.4"/>
     <use xlink:href="#m66ed39a77f" x="484.039006" y="131.090038" style="fill: #0072b2; fill-opacity: 0.4; stroke: #0072b2; stroke-opacity: 0.4"/>
     <use xlink:href="#m66ed39a77f" x="468.416191" y="126.699501" style="fill: #0072b2; fill-opacity: 0.4; stroke: #0072b2; stroke-opacity: 0.4"/>
     <use xlink:href="#m66ed39a77f" x="460.604783" y="155.676463" style="fill: #0072b2; fill-opacity: 0.4; stroke: #0072b2; stroke-opacity: 0.4"/>
     <use xlink:href="#m66ed39a77f" x="93.468623" y="164.457536" style="fill: #0072b2; fill-opacity: 0.4; stroke: #0072b2; stroke-opacity: 0.4"/>
     <use xlink:href="#m66ed39a77f" x="116.902846" y="172.360344" style="fill: #0072b2; fill-opacity: 0.4; stroke: #0072b2; stroke-opacity: 0.4"/>
     <use xlink:href="#m66ed39a77f" x="476.227599" y="180.263152" style="fill: #0072b2; fill-opacity: 0.4; stroke: #0072b2; stroke-opacity: 0.4"/>
     <use xlink:href="#m66ed39a77f" x="468.416191" y="156.554729" style="fill: #0072b2; fill-opacity: 0.4; stroke: #0072b2; stroke-opacity: 0.4"/>
     <use xlink:href="#m66ed39a77f" x="437.17056" y="135.480575" style="fill: #0072b2; fill-opacity: 0.4; stroke: #0072b2; stroke-opacity: 0.4"/>
     <use xlink:href="#m66ed39a77f" x="319.999445" y="154.798461" style="fill: #0072b2; fill-opacity: 0.4; stroke: #0072b2; stroke-opacity: 0.4"/>
     <use xlink:href="#m66ed39a77f" x="335.622261" y="180.263152" style="fill: #0072b2; fill-opacity: 0.4; stroke: #0072b2; stroke-opacity: 0.4"/>
     <use xlink:href="#m66ed39a77f" x="296.565222" y="162.701269" style="fill: #0072b2; fill-opacity: 0.4; stroke: #0072b2; stroke-opacity: 0.4"/>
     <use xlink:href="#m66ed39a77f" x="421.547745" y="193.434498" style="fill: #0072b2; fill-opacity: 0.4; stroke: #0072b2; stroke-opacity: 0.4"/>
     <use xlink:href="#m66ed39a77f" x="234.073961" y="139.870848" style="fill: #0072b2; fill-opacity: 0.4; stroke: #0072b2; stroke-opacity: 0.4"/>
     <use xlink:href="#m66ed39a77f" x="312.188038" y="194.3125" style="fill: #0072b2; fill-opacity: 0.4; stroke: #0072b2; stroke-opacity: 0.4"/>
     <use xlink:href="#m66ed39a77f" x="234.073961" y="99.478807" style="fill: #0072b2; fill-opacity: 0.4; stroke: #0072b2; stroke-opacity: 0.4"/>
     <use xlink:href="#m66ed39a77f" x="452.793376" y="188.16596" style="fill: #0072b2; fill-opacity: 0.4; stroke: #0072b2; stroke-opacity: 0.4"/>
     <use xlink:href="#m66ed39a77f" x="319.999445" y="159.188998" style="fill: #0072b2; fill-opacity: 0.4; stroke: #0072b2; stroke-opacity: 0.4"/>
     <use xlink:href="#m66ed39a77f" x="124.714254" y="196.068767" style="fill: #0072b2; fill-opacity: 0.4; stroke: #0072b2; stroke-opacity: 0.4"/>
     <use xlink:href="#m66ed39a77f" x="359.056484" y="153.920459" style="fill: #0072b2; fill-opacity: 0.4; stroke: #0072b2; stroke-opacity: 0.4"/>
     <use xlink:href="#m66ed39a77f" x="452.793376" y="154.798461" style="fill: #0072b2; fill-opacity: 0.4; stroke: #0072b2; stroke-opacity: 0.4"/>
     <use xlink:href="#m66ed39a77f" x="452.793376" y="173.238346" style="fill: #0072b2; fill-opacity: 0.4; stroke: #0072b2; stroke-opacity: 0.4"/>
     <use xlink:href="#m66ed39a77f" x="155.959884" y="159.188998" style="fill: #0072b2; fill-opacity: 0.4; stroke: #0072b2; stroke-opacity: 0.4"/>
     <use xlink:href="#m66ed39a77f" x="405.92493" y="204.849577" style="fill: #0072b2; fill-opacity: 0.4; stroke: #0072b2; stroke-opacity: 0.4"/>
     <use xlink:href="#m66ed39a77f" x="476.227599" y="117.04069" style="fill: #0072b2; fill-opacity: 0.4; stroke: #0072b2; stroke-opacity: 0.4"/>
     <use xlink:href="#m66ed39a77f" x="437.17056" y="110.893886" style="fill: #0072b2; fill-opacity: 0.4; stroke: #0072b2; stroke-opacity: 0.4"/>
     <use xlink:href="#m66ed39a77f" x="429.359153" y="66.989574" style="fill: #0072b2; fill-opacity: 0.4; stroke: #0072b2; stroke-opacity: 0.4"/>
     <use xlink:href="#m66ed39a77f" x="163.771292" y="214.508652" style="fill: #0072b2; fill-opacity: 0.4; stroke: #0072b2; stroke-opacity: 0.4"/>
     <use xlink:href="#m66ed39a77f" x="437.17056" y="243.485614" style="fill: #0072b2; fill-opacity: 0.4; stroke: #0072b2; stroke-opacity: 0.4"/>
     <use xlink:href="#m66ed39a77f" x="460.604783" y="153.042194" style="fill: #0072b2; fill-opacity: 0.4; stroke: #0072b2; stroke-opacity: 0.4"/>
     <use xlink:href="#m66ed39a77f" x="429.359153" y="144.261384" style="fill: #0072b2; fill-opacity: 0.4; stroke: #0072b2; stroke-opacity: 0.4"/>
     <use xlink:href="#m66ed39a77f" x="374.679299" y="131.090038" style="fill: #0072b2; fill-opacity: 0.4; stroke: #0072b2; stroke-opacity: 0.4"/>
     <use xlink:href="#m66ed39a77f" x="476.227599" y="208.361848" style="fill: #0072b2; fill-opacity: 0.4; stroke: #0072b2; stroke-opacity: 0.4"/>
     <use xlink:href="#m66ed39a77f" x="327.810853" y="19.572727" style="fill: #0072b2; fill-opacity: 0.4; stroke: #0072b2; stroke-opacity: 0.4"/>
    </g>
   </g>
   <g id="FillBetweenPolyCollection_1">
    <defs>
     <path id="m1cfd7edb8c" d="M 85.657215 -232.245983 
L 85.657215 -60.573899 
L 88.051667 -60.814443 
L 90.446118 -61.054748 
L 92.84057 -61.294813 
L 95.235022 -61.53464 
L 97.629473 -61.774226 
L 100.023925 -62.013573 
L 102.418376 -62.252679 
L 104.812828 -62.491545 
L 107.20728 -62.730171 
L 109.601731 -62.968556 
L 111.996183 -63.2067 
L 114.390634 -63.444603 
L 116.785086 -63.682264 
L 119.179538 -63.919684 
L 121.573989 -64.156862 
L 123.968441 -64.393798 
L 126.362892 -64.630492 
L 128.757344 -64.866943 
L 131.151796 -65.103152 
L 133.546247 -65.339118 
L 135.940699 -65.574841 
L 138.33515 -65.810321 
L 140.729602 -66.045558 
L 143.124054 -66.280551 
L 145.518505 -66.5153 
L 147.912957 -66.749805 
L 150.307408 -66.984066 
L 152.70186 -67.218083 
L 155.096312 -67.451855 
L 157.490763 -67.685383 
L 159.885215 -67.918666 
L 162.279666 -68.151704 
L 164.674118 -68.384497 
L 167.06857 -68.617044 
L 169.463021 -68.849346 
L 171.857473 -69.081402 
L 174.251924 -69.313212 
L 176.646376 -69.544777 
L 179.040828 -69.776095 
L 181.435279 -70.007167 
L 183.829731 -70.237992 
L 186.224182 -70.468571 
L 188.618634 -70.698903 
L 191.013086 -70.928988 
L 193.407537 -71.158826 
L 195.801989 -71.388417 
L 198.19644 -71.61776 
L 200.590892 -71.846856 
L 202.985344 -72.075704 
L 205.379795 -72.304305 
L 207.774247 -72.532657 
L 210.168698 -72.760762 
L 212.56315 -72.988618 
L 214.957601 -73.216226 
L 217.352053 -73.443586 
L 219.746505 -73.670697 
L 222.140956 -73.897559 
L 224.535408 -74.124173 
L 226.929859 -74.350537 
L 229.324311 -74.576653 
L 231.718763 -74.80252 
L 234.113214 -75.028137 
L 236.507666 -75.253505 
L 238.902117 -75.478623 
L 241.296569 -75.703492 
L 243.691021 -75.928111 
L 246.085472 -76.15248 
L 248.479924 -76.376599 
L 250.874375 -76.600469 
L 253.268827 -76.824088 
L 255.663279 -77.047457 
L 258.05773 -77.270576 
L 260.452182 -77.493444 
L 262.846633 -77.716063 
L 265.241085 -77.93843 
L 267.635537 -78.160547 
L 270.029988 -78.382413 
L 272.42444 -78.604029 
L 274.818891 -78.825394 
L 277.213343 -79.046507 
L 279.607795 -79.26737 
L 282.002246 -79.487982 
L 284.396698 -79.708343 
L 286.791149 -79.928452 
L 289.185601 -80.14831 
L 291.580053 -80.367917 
L 293.974504 -80.587273 
L 296.368956 -80.806377 
L 298.763407 -81.02523 
L 301.157859 -81.243831 
L 303.552311 -81.46218 
L 305.946762 -81.680278 
L 308.341214 -81.898125 
L 310.735665 -82.11572 
L 313.130117 -82.333062 
L 315.524569 -82.550154 
L 317.91902 -82.766993 
L 320.313472 -82.983581 
L 322.707923 -83.199916 
L 325.102375 -83.416 
L 327.496827 -83.631832 
L 329.891278 -83.847412 
L 332.28573 -84.06274 
L 334.680181 -84.277816 
L 337.074633 -84.49264 
L 339.469085 -84.707212 
L 341.863536 -84.921532 
L 344.257988 -85.1356 
L 346.652439 -85.349415 
L 349.046891 -85.562979 
L 351.441343 -85.776291 
L 353.835794 -85.989351 
L 356.230246 -86.202158 
L 358.624697 -86.414714 
L 361.019149 -86.627017 
L 363.4136 -86.839069 
L 365.808052 -87.050868 
L 368.202504 -87.262416 
L 370.596955 -87.473711 
L 372.991407 -87.684755 
L 375.385858 -87.895546 
L 377.78031 -88.106086 
L 380.174762 -88.316374 
L 382.569213 -88.526409 
L 384.963665 -88.736193 
L 387.358116 -88.945725 
L 389.752568 -89.155006 
L 392.14702 -89.364034 
L 394.541471 -89.572811 
L 396.935923 -89.781336 
L 399.330374 -89.989609 
L 401.724826 -90.197631 
L 404.119278 -90.405402 
L 406.513729 -90.61292 
L 408.908181 -90.820188 
L 411.302632 -91.027204 
L 413.697084 -91.233968 
L 416.091536 -91.440482 
L 418.485987 -91.646744 
L 420.880439 -91.852755 
L 423.27489 -92.058514 
L 425.669342 -92.264023 
L 428.063794 -92.469281 
L 430.458245 -92.674288 
L 432.852697 -92.879044 
L 435.247148 -93.083549 
L 437.6416 -93.287804 
L 440.036052 -93.491808 
L 442.430503 -93.695562 
L 444.824955 -93.899065 
L 447.219406 -94.102318 
L 449.613858 -94.30532 
L 452.00831 -94.508073 
L 454.402761 -94.710575 
L 456.797213 -94.912827 
L 459.191664 -95.11483 
L 461.586116 -95.316582 
L 463.980568 -95.518085 
L 466.375019 -95.719339 
L 468.769471 -95.920343 
L 471.163922 -96.121097 
L 473.558374 -96.321603 
L 475.952826 -96.521859 
L 478.347277 -96.721866 
L 480.741729 -96.921625 
L 483.13618 -97.121134 
L 485.530632 -97.320395 
L 487.925084 -97.519407 
L 490.319535 -97.718171 
L 492.713987 -97.916687 
L 495.108438 -98.114954 
L 497.50289 -98.312974 
L 499.897342 -98.510745 
L 502.291793 -98.708269 
L 504.686245 -98.905545 
L 507.080696 -99.102574 
L 509.475148 -99.299355 
L 511.869599 -99.495889 
L 514.264051 -99.692176 
L 516.658503 -99.888217 
L 519.052954 -100.08401 
L 521.447406 -100.279557 
L 523.841857 -100.474857 
L 526.236309 -100.669911 
L 528.630761 -100.864719 
L 531.025212 -101.059281 
L 533.419664 -101.253597 
L 535.814115 -101.447668 
L 538.208567 -101.641493 
L 540.603019 -101.835072 
L 542.99747 -102.028407 
L 545.391922 -102.221496 
L 547.786373 -102.414341 
L 550.180825 -102.606941 
L 552.575277 -102.799297 
L 554.969728 -102.991408 
L 557.36418 -103.183276 
L 559.758631 -103.374899 
L 562.153083 -103.566279 
L 562.153083 -274.108514 
L 562.153083 -274.108514 
L 559.758631 -273.873487 
L 557.36418 -273.638704 
L 554.969728 -273.404164 
L 552.575277 -273.169869 
L 550.180825 -272.935818 
L 547.786373 -272.702012 
L 545.391922 -272.46845 
L 542.99747 -272.235133 
L 540.603019 -272.002061 
L 538.208567 -271.769234 
L 535.814115 -271.536652 
L 533.419664 -271.304316 
L 531.025212 -271.072226 
L 528.630761 -270.840381 
L 526.236309 -270.608782 
L 523.841857 -270.37743 
L 521.447406 -270.146324 
L 519.052954 -269.915464 
L 516.658503 -269.684851 
L 514.264051 -269.454484 
L 511.869599 -269.224365 
L 509.475148 -268.994492 
L 507.080696 -268.764867 
L 504.686245 -268.535489 
L 502.291793 -268.306359 
L 499.897342 -268.077476 
L 497.50289 -267.848841 
L 495.108438 -267.620454 
L 492.713987 -267.392315 
L 490.319535 -267.164424 
L 487.925084 -266.936781 
L 485.530632 -266.709387 
L 483.13618 -266.482241 
L 480.741729 -266.255344 
L 478.347277 -266.028696 
L 475.952826 -265.802296 
L 473.558374 -265.576146 
L 471.163922 -265.350245 
L 468.769471 -265.124593 
L 466.375019 -264.89919 
L 463.980568 -264.674037 
L 461.586116 -264.449134 
L 459.191664 -264.22448 
L 456.797213 -264.000076 
L 454.402761 -263.775921 
L 452.00831 -263.552017 
L 449.613858 -263.328363 
L 447.219406 -263.104959 
L 444.824955 -262.881805 
L 442.430503 -262.658902 
L 440.036052 -262.436249 
L 437.6416 -262.213846 
L 435.247148 -261.991694 
L 432.852697 -261.769793 
L 430.458245 -261.548142 
L 428.063794 -261.326743 
L 425.669342 -261.105594 
L 423.27489 -260.884696 
L 420.880439 -260.664049 
L 418.485987 -260.443654 
L 416.091536 -260.223509 
L 413.697084 -260.003616 
L 411.302632 -259.783974 
L 408.908181 -259.564583 
L 406.513729 -259.345444 
L 404.119278 -259.126556 
L 401.724826 -258.90792 
L 399.330374 -258.689535 
L 396.935923 -258.471402 
L 394.541471 -258.253521 
L 392.14702 -258.035891 
L 389.752568 -257.818513 
L 387.358116 -257.601387 
L 384.963665 -257.384512 
L 382.569213 -257.167889 
L 380.174762 -256.951519 
L 377.78031 -256.7354 
L 375.385858 -256.519533 
L 372.991407 -256.303918 
L 370.596955 -256.088555 
L 368.202504 -255.873443 
L 365.808052 -255.658584 
L 363.4136 -255.443977 
L 361.019149 -255.229622 
L 358.624697 -255.015519 
L 356.230246 -254.801668 
L 353.835794 -254.588069 
L 351.441343 -254.374722 
L 349.046891 -254.161627 
L 346.652439 -253.948785 
L 344.257988 -253.736194 
L 341.863536 -253.523855 
L 339.469085 -253.311768 
L 337.074633 -253.099934 
L 334.680181 -252.888351 
L 332.28573 -252.677021 
L 329.891278 -252.465942 
L 327.496827 -252.255115 
L 325.102375 -252.044541 
L 322.707923 -251.834218 
L 320.313472 -251.624147 
L 317.91902 -251.414328 
L 315.524569 -251.204761 
L 313.130117 -250.995445 
L 310.735665 -250.786382 
L 308.341214 -250.57757 
L 305.946762 -250.36901 
L 303.552311 -250.160701 
L 301.157859 -249.952644 
L 298.763407 -249.744839 
L 296.368956 -249.537285 
L 293.974504 -249.329982 
L 291.580053 -249.122931 
L 289.185601 -248.916132 
L 286.791149 -248.709583 
L 284.396698 -248.503286 
L 282.002246 -248.29724 
L 279.607795 -248.091445 
L 277.213343 -247.885902 
L 274.818891 -247.680609 
L 272.42444 -247.475567 
L 270.029988 -247.270776 
L 267.635537 -247.066236 
L 265.241085 -246.861946 
L 262.846633 -246.657907 
L 260.452182 -246.454118 
L 258.05773 -246.25058 
L 255.663279 -246.047293 
L 253.268827 -245.844255 
L 250.874375 -245.641468 
L 248.479924 -245.438931 
L 246.085472 -245.236644 
L 243.691021 -245.034606 
L 241.296569 -244.832819 
L 238.902117 -244.631281 
L 236.507666 -244.429993 
L 234.113214 -244.228954 
L 231.718763 -244.028164 
L 229.324311 -243.827624 
L 226.929859 -243.627333 
L 224.535408 -243.427291 
L 222.140956 -243.227498 
L 219.746505 -243.027954 
L 217.352053 -242.828659 
L 214.957601 -242.629612 
L 212.56315 -242.430813 
L 210.168698 -242.232263 
L 207.774247 -242.033961 
L 205.379795 -241.835907 
L 202.985344 -241.638101 
L 200.590892 -241.440542 
L 198.19644 -241.243232 
L 195.801989 -241.046168 
L 193.407537 -240.849353 
L 191.013086 -240.652784 
L 188.618634 -240.456462 
L 186.224182 -240.260388 
L 183.829731 -240.06456 
L 181.435279 -239.868979 
L 179.040828 -239.673644 
L 176.646376 -239.478556 
L 174.251924 -239.283714 
L 171.857473 -239.089117 
L 169.463021 -238.894767 
L 167.06857 -238.700662 
L 164.674118 -238.506803 
L 162.279666 -238.313189 
L 159.885215 -238.11982 
L 157.490763 -237.926697 
L 155.096312 -237.733818 
L 152.70186 -237.541184 
L 150.307408 -237.348794 
L 147.912957 -237.156648 
L 145.518505 -236.964747 
L 143.124054 -236.77309 
L 140.729602 -236.581676 
L 138.33515 -236.390506 
L 135.940699 -236.199579 
L 133.546247 -236.008896 
L 131.151796 -235.818455 
L 128.757344 -235.628257 
L 126.362892 -235.438302 
L 123.968441 -235.24859 
L 121.573989 -235.059119 
L 119.179538 -234.86989 
L 116.785086 -234.680904 
L 114.390634 -234.492159 
L 111.996183 -234.303655 
L 109.601731 -234.115392 
L 107.20728 -233.92737 
L 104.812828 -233.73959 
L 102.418376 -233.552049 
L 100.023925 -233.364749 
L 97.629473 -233.177689 
L 95.235022 -232.990869 
L 92.84057 -232.804289 
L 90.446118 -232.617948 
L 88.051667 -232.431846 
L 85.657215 -232.245983 
z
" style="stroke: #d55e00; stroke-opacity: 0.18"/>
    </defs>
    <g clip-path="url(#p54e00f10d6)">
     <use xlink:href="#m1cfd7edb8c" x="0" y="327.601172" style="fill: #d55e00; fill-opacity: 0.18; stroke: #d55e00; stroke-opacity: 0.18"/>
    </g>
   </g>
   <g id="matplotlib.axis_1">
    <g id="xtick_1">
     <g id="line2d_1">
      <path d="M 74.643565 279.4 
L 74.643565 7.2 
" clip-path="url(#p54e00f10d6)" style="fill: none; stroke: #7a7a7a; stroke-opacity: 0.3; stroke-width: 0.8; stroke-linecap: square"/>
     </g>
     <g id="line2d_2">
      <defs>
       <path id="m6b8c2875d4" d="M 0 0 
L 0 3.5 
" style="stroke: #7a7a7a; stroke-width: 0.8"/>
      </defs>
      <g>
       <use xlink:href="#m6b8c2875d4" x="74.643565" y="279.4" style="fill: #7a7a7a; stroke: #7a7a7a; stroke-width: 0.8"/>
      </g>
     </g>
     <g id="text_1">
      <text style="font-size: 15px; font-family: 'DejaVu Sans', 'Bitstream Vera Sans', 'Computer Modern Sans Serif', 'Lucida Grande', 'Verdana', 'Geneva', 'Lucid', 'Arial', 'Helvetica', 'Avant Garde', sans-serif; text-anchor: middle; fill: #7a7a7a" x="74.643565" y="297.796484" transform="rotate(-0 74.643565 297.796484)">−2.0</text>
     </g>
    </g>
    <g id="xtick_2">
     <g id="line2d_3">
      <path d="M 142.109024 279.4 
L 142.109024 7.2 
" clip-path="url(#p54e00f10d6)" style="fill: none; stroke: #7a7a7a; stroke-opacity: 0.3; stroke-width: 0.8; stroke-linecap: square"/>
     </g>
     <g id="line2d_4">
      <g>
       <use xlink:href="#m6b8c2875d4" x="142.109024" y="279.4" style="fill: #7a7a7a; stroke: #7a7a7a; stroke-width: 0.8"/>
      </g>
     </g>
     <g id="text_2">
      <text style="font-size: 15px; font-family: 'DejaVu Sans', 'Bitstream Vera Sans', 'Computer Modern Sans Serif', 'Lucida Grande', 'Verdana', 'Geneva', 'Lucid', 'Arial', 'Helvetica', 'Avant Garde', sans-serif; text-anchor: middle; fill: #7a7a7a" x="142.109024" y="297.796484" transform="rotate(-0 142.109024 297.796484)">−1.5</text>
     </g>
    </g>
    <g id="xtick_3">
     <g id="line2d_5">
      <path d="M 209.574484 279.4 
L 209.574484 7.2 
" clip-path="url(#p54e00f10d6)" style="fill: none; stroke: #7a7a7a; stroke-opacity: 0.3; stroke-width: 0.8; stroke-linecap: square"/>
     </g>
     <g id="line2d_6">
      <g>
       <use xlink:href="#m6b8c2875d4" x="209.574484" y="279.4" style="fill: #7a7a7a; stroke: #7a7a7a; stroke-width: 0.8"/>
      </g>
     </g>
     <g id="text_3">
      <text style="font-size: 15px; font-family: 'DejaVu Sans', 'Bitstream Vera Sans', 'Computer Modern Sans Serif', 'Lucida Grande', 'Verdana', 'Geneva', 'Lucid', 'Arial', 'Helvetica', 'Avant Garde', sans-serif; text-anchor: middle; fill: #7a7a7a" x="209.574484" y="297.796484" transform="rotate(-0 209.574484 297.796484)">−1.0</text>
     </g>
    </g>
    <g id="xtick_4">
     <g id="line2d_7">
      <path d="M 277.039943 279.4 
L 277.039943 7.2 
" clip-path="url(#p54e00f10d6)" style="fill: none; stroke: #7a7a7a; stroke-opacity: 0.3; stroke-width: 0.8; stroke-linecap: square"/>
     </g>
     <g id="line2d_8">
      <g>
       <use xlink:href="#m6b8c2875d4" x="277.039943" y="279.4" style="fill: #7a7a7a; stroke: #7a7a7a; stroke-width: 0.8"/>
      </g>
     </g>
     <g id="text_4">
      <text style="font-size: 15px; font-family: 'DejaVu Sans', 'Bitstream Vera Sans', 'Computer Modern Sans Serif', 'Lucida Grande', 'Verdana', 'Geneva', 'Lucid', 'Arial', 'Helvetica', 'Avant Garde', sans-serif; text-anchor: middle; fill: #7a7a7a" x="277.039943" y="297.796484" transform="rotate(-0 277.039943 297.796484)">−0.5</text>
     </g>
    </g>
    <g id="xtick_5">
     <g id="line2d_9">
      <path d="M 344.505402 279.4 
L 344.505402 7.2 
" clip-path="url(#p54e00f10d6)" style="fill: none; stroke: #7a7a7a; stroke-opacity: 0.3; stroke-width: 0.8; stroke-linecap: square"/>
     </g>
     <g id="line2d_10">
      <g>
       <use xlink:href="#m6b8c2875d4" x="344.505402" y="279.4" style="fill: #7a7a7a; stroke: #7a7a7a; stroke-width: 0.8"/>
      </g>
     </g>
     <g id="text_5">
      <text style="font-size: 15px; font-family: 'DejaVu Sans', 'Bitstream Vera Sans', 'Computer Modern Sans Serif', 'Lucida Grande', 'Verdana', 'Geneva', 'Lucid', 'Arial', 'Helvetica', 'Avant Garde', sans-serif; text-anchor: middle; fill: #7a7a7a" x="344.505402" y="297.796484" transform="rotate(-0 344.505402 297.796484)">0.0</text>
     </g>
    </g>
    <g id="xtick_6">
     <g id="line2d_11">
      <path d="M 411.970861 279.4 
L 411.970861 7.2 
" clip-path="url(#p54e00f10d6)" style="fill: none; stroke: #7a7a7a; stroke-opacity: 0.3; stroke-width: 0.8; stroke-linecap: square"/>
     </g>
     <g id="line2d_12">
      <g>
       <use xlink:href="#m6b8c2875d4" x="411.970861" y="279.4" style="fill: #7a7a7a; stroke: #7a7a7a; stroke-width: 0.8"/>
      </g>
     </g>
     <g id="text_6">
      <text style="font-size: 15px; font-family: 'DejaVu Sans', 'Bitstream Vera Sans', 'Computer Modern Sans Serif', 'Lucida Grande', 'Verdana', 'Geneva', 'Lucid', 'Arial', 'Helvetica', 'Avant Garde', sans-serif; text-anchor: middle; fill: #7a7a7a" x="411.970861" y="297.796484" transform="rotate(-0 411.970861 297.796484)">0.5</text>
     </g>
    </g>
    <g id="xtick_7">
     <g id="line2d_13">
      <path d="M 479.436321 279.4 
L 479.436321 7.2 
" clip-path="url(#p54e00f10d6)" style="fill: none; stroke: #7a7a7a; stroke-opacity: 0.3; stroke-width: 0.8; stroke-linecap: square"/>
     </g>
     <g id="line2d_14">
      <g>
       <use xlink:href="#m6b8c2875d4" x="479.436321" y="279.4" style="fill: #7a7a7a; stroke: #7a7a7a; stroke-width: 0.8"/>
      </g>
     </g>
     <g id="text_7">
      <text style="font-size: 15px; font-family: 'DejaVu Sans', 'Bitstream Vera Sans', 'Computer Modern Sans Serif', 'Lucida Grande', 'Verdana', 'Geneva', 'Lucid', 'Arial', 'Helvetica', 'Avant Garde', sans-serif; text-anchor: middle; fill: #7a7a7a" x="479.436321" y="297.796484" transform="rotate(-0 479.436321 297.796484)">1.0</text>
     </g>
    </g>
    <g id="xtick_8">
     <g id="line2d_15">
      <path d="M 546.90178 279.4 
L 546.90178 7.2 
" clip-path="url(#p54e00f10d6)" style="fill: none; stroke: #7a7a7a; stroke-opacity: 0.3; stroke-width: 0.8; stroke-linecap: square"/>
     </g>
     <g id="line2d_16">
      <g>
       <use xlink:href="#m6b8c2875d4" x="546.90178" y="279.4" style="fill: #7a7a7a; stroke: #7a7a7a; stroke-width: 0.8"/>
      </g>
     </g>
     <g id="text_8">
      <text style="font-size: 15px; font-family: 'DejaVu Sans', 'Bitstream Vera Sans', 'Computer Modern Sans Serif', 'Lucida Grande', 'Verdana', 'Geneva', 'Lucid', 'Arial', 'Helvetica', 'Avant Garde', sans-serif; text-anchor: middle; fill: #7a7a7a" x="546.90178" y="297.796484" transform="rotate(-0 546.90178 297.796484)">1.5</text>
     </g>
    </g>
    <g id="text_9">
     <text style="font-size: 15px; font-family: 'DejaVu Sans', 'Bitstream Vera Sans', 'Computer Modern Sans Serif', 'Lucida Grande', 'Verdana', 'Geneva', 'Lucid', 'Arial', 'Helvetica', 'Avant Garde', sans-serif; text-anchor: middle; fill: #7a7a7a" x="323.905149" y="316.797656" transform="rotate(-0 323.905149 316.797656)">standardized age (z)</text>
    </g>
   </g>
   <g id="matplotlib.axis_2">
    <g id="ytick_1">
     <g id="line2d_17">
      <path d="M 61.832422 268.072039 
L 585.977876 268.072039 
" clip-path="url(#p54e00f10d6)" style="fill: none; stroke: #7a7a7a; stroke-opacity: 0.3; stroke-width: 0.8; stroke-linecap: square"/>
     </g>
     <g id="line2d_18">
      <defs>
       <path id="m178e344505" d="M 0 0 
L -3.5 0 
" style="stroke: #7a7a7a; stroke-width: 0.8"/>
      </defs>
      <g>
       <use xlink:href="#m178e344505" x="61.832422" y="268.072039" style="fill: #7a7a7a; stroke: #7a7a7a; stroke-width: 0.8"/>
      </g>
     </g>
     <g id="text_10">
      <text style="font-size: 15px; font-family: 'DejaVu Sans', 'Bitstream Vera Sans', 'Computer Modern Sans Serif', 'Lucida Grande', 'Verdana', 'Geneva', 'Lucid', 'Arial', 'Helvetica', 'Avant Garde', sans-serif; text-anchor: end; fill: #7a7a7a" x="54.832422" y="273.770281" transform="rotate(-0 54.832422 273.770281)">80</text>
     </g>
    </g>
    <g id="ytick_2">
     <g id="line2d_19">
      <path d="M 61.832422 215.386654 
L 585.977876 215.386654 
" clip-path="url(#p54e00f10d6)" style="fill: none; stroke: #7a7a7a; stroke-opacity: 0.3; stroke-width: 0.8; stroke-linecap: square"/>
     </g>
     <g id="line2d_20">
      <g>
       <use xlink:href="#m178e344505" x="61.832422" y="215.386654" style="fill: #7a7a7a; stroke: #7a7a7a; stroke-width: 0.8"/>
      </g>
     </g>
     <g id="text_11">
      <text style="font-size: 15px; font-family: 'DejaVu Sans', 'Bitstream Vera Sans', 'Computer Modern Sans Serif', 'Lucida Grande', 'Verdana', 'Geneva', 'Lucid', 'Arial', 'Helvetica', 'Avant Garde', sans-serif; text-anchor: end; fill: #7a7a7a" x="54.832422" y="221.084896" transform="rotate(-0 54.832422 221.084896)">100</text>
     </g>
    </g>
    <g id="ytick_3">
     <g id="line2d_21">
      <path d="M 61.832422 162.701269 
L 585.977876 162.701269 
" clip-path="url(#p54e00f10d6)" style="fill: none; stroke: #7a7a7a; stroke-opacity: 0.3; stroke-width: 0.8; stroke-linecap: square"/>
     </g>
     <g id="line2d_22">
      <g>
       <use xlink:href="#m178e344505" x="61.832422" y="162.701269" style="fill: #7a7a7a; stroke: #7a7a7a; stroke-width: 0.8"/>
      </g>
     </g>
     <g id="text_12">
      <text style="font-size: 15px; font-family: 'DejaVu Sans', 'Bitstream Vera Sans', 'Computer Modern Sans Serif', 'Lucida Grande', 'Verdana', 'Geneva', 'Lucid', 'Arial', 'Helvetica', 'Avant Garde', sans-serif; text-anchor: end; fill: #7a7a7a" x="54.832422" y="168.399511" transform="rotate(-0 54.832422 168.399511)">120</text>
     </g>
    </g>
    <g id="ytick_4">
     <g id="line2d_23">
      <path d="M 61.832422 110.015884 
L 585.977876 110.015884 
" clip-path="url(#p54e00f10d6)" style="fill: none; stroke: #7a7a7a; stroke-opacity: 0.3; stroke-width: 0.8; stroke-linecap: square"/>
     </g>
     <g id="line2d_24">
      <g>
       <use xlink:href="#m178e344505" x="61.832422" y="110.015884" style="fill: #7a7a7a; stroke: #7a7a7a; stroke-width: 0.8"/>
      </g>
     </g>
     <g id="text_13">
      <text style="font-size: 15px; font-family: 'DejaVu Sans', 'Bitstream Vera Sans', 'Computer Modern Sans Serif', 'Lucida Grande', 'Verdana', 'Geneva', 'Lucid', 'Arial', 'Helvetica', 'Avant Garde', sans-serif; text-anchor: end; fill: #7a7a7a" x="54.832422" y="115.714126" transform="rotate(-0 54.832422 115.714126)">140</text>
     </g>
    </g>
    <g id="ytick_5">
     <g id="line2d_25">
      <path d="M 61.832422 57.330499 
L 585.977876 57.330499 
" clip-path="url(#p54e00f10d6)" style="fill: none; stroke: #7a7a7a; stroke-opacity: 0.3; stroke-width: 0.8; stroke-linecap: square"/>
     </g>
     <g id="line2d_26">
      <g>
       <use xlink:href="#m178e344505" x="61.832422" y="57.330499" style="fill: #7a7a7a; stroke: #7a7a7a; stroke-width: 0.8"/>
      </g>
     </g>
     <g id="text_14">
      <text style="font-size: 15px; font-family: 'DejaVu Sans', 'Bitstream Vera Sans', 'Computer Modern Sans Serif', 'Lucida Grande', 'Verdana', 'Geneva', 'Lucid', 'Arial', 'Helvetica', 'Avant Garde', sans-serif; text-anchor: end; fill: #7a7a7a" x="54.832422" y="63.028741" transform="rotate(-0 54.832422 63.028741)">160</text>
     </g>
    </g>
    <g id="text_15">
     <text style="font-size: 15px; font-family: 'DejaVu Sans', 'Bitstream Vera Sans', 'Computer Modern Sans Serif', 'Lucida Grande', 'Verdana', 'Geneva', 'Lucid', 'Arial', 'Helvetica', 'Avant Garde', sans-serif; text-anchor: middle; fill: #7a7a7a" x="18.597656" y="143.3" transform="rotate(-90 18.597656 143.3)">systolic BP (mmHg)</text>
    </g>
   </g>
   <g id="line2d_27">
    <path d="M 85.657215 181.191231 
L 562.153083 138.763776 
L 562.153083 138.763776 
" clip-path="url(#p54e00f10d6)" style="fill: none; stroke: #d55e00; stroke-width: 2.4; stroke-linecap: square"/>
   </g>
   <g id="line2d_28">
    <path d="M 85.657215 265.143205 
L 562.153083 222.71575 
L 562.153083 222.71575 
" clip-path="url(#p54e00f10d6)" style="fill: none; stroke-dasharray: 5.92,2.56; stroke-dashoffset: 0; stroke: #009e73; stroke-width: 1.6"/>
   </g>
   <g id="line2d_29">
    <path d="M 85.657215 97.239257 
L 562.153083 54.811802 
L 562.153083 54.811802 
" clip-path="url(#p54e00f10d6)" style="fill: none; stroke-dasharray: 5.92,2.56; stroke-dashoffset: 0; stroke: #009e73; stroke-width: 1.6"/>
   </g>
   <g id="patch_3">
    <path d="M 61.832422 279.4 
L 61.832422 7.2 
" style="fill: none; stroke: #7a7a7a; stroke-width: 0.8; stroke-linejoin: miter; stroke-linecap: square"/>
   </g>
   <g id="patch_4">
    <path d="M 61.832422 279.4 
L 585.977876 279.4 
" style="fill: none; stroke: #7a7a7a; stroke-width: 0.8; stroke-linejoin: miter; stroke-linecap: square"/>
   </g>
   <g id="legend_1">
    <g id="PathCollection_2">
     <g>
      <use xlink:href="#m66ed39a77f" x="82.732422" y="22.570781" style="fill: #0072b2; fill-opacity: 0.4; stroke: #0072b2; stroke-opacity: 0.4"/>
     </g>
    </g>
    <g id="text_16">
     <text style="font-size: 11px; font-family: 'DejaVu Sans', 'Bitstream Vera Sans', 'Computer Modern Sans Serif', 'Lucida Grande', 'Verdana', 'Geneva', 'Lucid', 'Arial', 'Helvetica', 'Avant Garde', sans-serif; text-anchor: start; fill: #7a7a7a" x="102.532422" y="25.458281" transform="rotate(-0 102.532422 25.458281)">NHANES subsample (N = 120)</text>
    </g>
    <g id="line2d_30">
     <path d="M 71.732422 38.109141 
L 82.732422 38.109141 
L 93.732422 38.109141 
" style="fill: none; stroke: #d55e00; stroke-width: 2.4; stroke-linecap: square"/>
    </g>
    <g id="text_17">
     <text style="font-size: 11px; font-family: 'DejaVu Sans', 'Bitstream Vera Sans', 'Computer Modern Sans Serif', 'Lucida Grande', 'Verdana', 'Geneva', 'Lucid', 'Arial', 'Helvetica', 'Avant Garde', sans-serif; text-anchor: start; fill: #7a7a7a" x="102.532422" y="41.959141" transform="rotate(-0 102.532422 41.959141)">predictive mean</text>
    </g>
    <g id="patch_5">
     <path d="M 71.732422 58.46 
L 93.732422 58.46 
L 93.732422 50.76 
L 71.732422 50.76 
z
" style="fill: #d55e00; fill-opacity: 0.18; stroke: #d55e00; stroke-opacity: 0.18; stroke-linejoin: miter"/>
    </g>
    <g id="text_18">
     <text style="font-size: 11px; font-family: 'DejaVu Sans', 'Bitstream Vera Sans', 'Computer Modern Sans Serif', 'Lucida Grande', 'Verdana', 'Geneva', 'Lucid', 'Arial', 'Helvetica', 'Avant Garde', sans-serif; text-anchor: start; fill: #7a7a7a" x="102.532422" y="58.46" transform="rotate(-0 102.532422 58.46)">±2 SD, full predictive</text>
    </g>
    <g id="line2d_31">
     <path d="M 71.732422 71.110859 
L 82.732422 71.110859 
L 93.732422 71.110859 
" style="fill: none; stroke-dasharray: 5.92,2.56; stroke-dashoffset: 0; stroke: #009e73; stroke-width: 1.6"/>
    </g>
    <g id="text_19">
     <text style="font-size: 11px; font-family: 'DejaVu Sans', 'Bitstream Vera Sans', 'Computer Modern Sans Serif', 'Lucida Grande', 'Verdana', 'Geneva', 'Lucid', 'Arial', 'Helvetica', 'Avant Garde', sans-serif; text-anchor: start; fill: #7a7a7a" x="102.532422" y="74.960859" transform="rotate(-0 102.532422 74.960859)">±2σ, noise only</text>
    </g>
   </g>
  </g>
 </g>
 <defs>
  <clipPath id="p54e00f10d6">
   <rect x="61.832422" y="7.2" width="524.145455" height="272.2"/>
  </clipPath>
 </defs>
</svg>
