<?xml version="1.0" encoding="utf-8" standalone="no"?>
<!DOCTYPE svg PUBLIC "-//W3C//DTD SVG 1.1//EN"
  "http://www.w3.org/Graphics/SVG/1.1/DTD/svg11.dtd">
<svg xmlns:xlink="http://www.w3.org/1999/xlink" width="773.177876pt" height="298.627607pt" viewBox="0 0 773.177876 298.627607" xmlns="http://www.w3.org/2000/svg" version="1.1">
 <metadata>
  <rdf:RDF xmlns:dc="http://purl.org/dc/elements/1.1/" xmlns:cc="http://creativecommons.org/ns#" xmlns:rdf="http://www.w3.org/1999/02/22-rdf-syntax-ns#">
   <cc:Work>
    <dc:type rdf:resource="http://purl.org/dc/dcmitype/StillImage"/>
    <dc:date>2026-07-02T08:41:16.112426</dc:date>
    <dc:format>image/svg+xml</dc:format>
    <dc:creator>
     <cc:Agent>
      <dc:title>Matplotlib v3.11.0, https://matplotlib.org/</dc:title>
     </cc:Agent>
    </dc:creator>
   </cc:Work>
  </rdf:RDF>
 </metadata>
 <defs>
  <style type="text/css">*{stroke-linejoin: round; stroke-linecap: butt}</style>
 </defs>
 <g id="figure_1">
  <g id="patch_1">
   <path d="M 0 298.627607 
L 773.177876 298.627607 
L 773.177876 0 
L 0 0 
L 0 298.627607 
z
" style="fill: none; opacity: 0"/>
  </g>
  <g id="axes_1">
   <g id="patch_2">
    <path d="M 61.832422 250.426435 
L 403.651166 250.426435 
L 403.651166 26.117344 
L 61.832422 26.117344 
L 61.832422 250.426435 
z
" style="fill: none; opacity: 0"/>
   </g>
   <g id="matplotlib.axis_1">
    <g id="xtick_1">
     <g id="line2d_1">
      <path d="M 70.187143 250.426435 
L 70.187143 26.117344 
" clip-path="url(#pf47bbf227e)" style="fill: none; stroke: #7a7a7a; stroke-opacity: 0.3; stroke-width: 0.8; stroke-linecap: square"/>
     </g>
     <g id="line2d_2">
      <defs>
       <path id="m11e878142d" d="M 0 0 
L 0 3.5 
" style="stroke: #7a7a7a; stroke-width: 0.8"/>
      </defs>
      <g>
       <use xlink:href="#m11e878142d" x="70.187143" y="250.426435" style="fill: #7a7a7a; stroke: #7a7a7a; stroke-width: 0.8"/>
      </g>
     </g>
     <g id="text_1">
      <text style="font-size: 15px; font-family: 'DejaVu Sans', 'Bitstream Vera Sans', 'Computer Modern Sans Serif', 'Lucida Grande', 'Verdana', 'Geneva', 'Lucid', 'Arial', 'Helvetica', 'Avant Garde', sans-serif; text-anchor: middle; fill: #7a7a7a" x="70.187143" y="268.822919" transform="rotate(-0 70.187143 268.822919)">−2</text>
     </g>
    </g>
    <g id="xtick_2">
     <g id="line2d_3">
      <path d="M 158.181642 250.426435 
L 158.181642 26.117344 
" clip-path="url(#pf47bbf227e)" style="fill: none; stroke: #7a7a7a; stroke-opacity: 0.3; stroke-width: 0.8; stroke-linecap: square"/>
     </g>
     <g id="line2d_4">
      <g>
       <use xlink:href="#m11e878142d" x="158.181642" y="250.426435" style="fill: #7a7a7a; stroke: #7a7a7a; stroke-width: 0.8"/>
      </g>
     </g>
     <g id="text_2">
      <text style="font-size: 15px; font-family: 'DejaVu Sans', 'Bitstream Vera Sans', 'Computer Modern Sans Serif', 'Lucida Grande', 'Verdana', 'Geneva', 'Lucid', 'Arial', 'Helvetica', 'Avant Garde', sans-serif; text-anchor: middle; fill: #7a7a7a" x="158.181642" y="268.822919" transform="rotate(-0 158.181642 268.822919)">−1</text>
     </g>
    </g>
    <g id="xtick_3">
     <g id="line2d_5">
      <path d="M 246.176142 250.426435 
L 246.176142 26.117344 
" clip-path="url(#pf47bbf227e)" style="fill: none; stroke: #7a7a7a; stroke-opacity: 0.3; stroke-width: 0.8; stroke-linecap: square"/>
     </g>
     <g id="line2d_6">
      <g>
       <use xlink:href="#m11e878142d" x="246.176142" y="250.426435" style="fill: #7a7a7a; stroke: #7a7a7a; stroke-width: 0.8"/>
      </g>
     </g>
     <g id="text_3">
      <text style="font-size: 15px; font-family: 'DejaVu Sans', 'Bitstream Vera Sans', 'Computer Modern Sans Serif', 'Lucida Grande', 'Verdana', 'Geneva', 'Lucid', 'Arial', 'Helvetica', 'Avant Garde', sans-serif; text-anchor: middle; fill: #7a7a7a" x="246.176142" y="268.822919" transform="rotate(-0 246.176142 268.822919)">0</text>
     </g>
    </g>
    <g id="xtick_4">
     <g id="line2d_7">
      <path d="M 334.170642 250.426435 
L 334.170642 26.117344 
" clip-path="url(#pf47bbf227e)" style="fill: none; stroke: #7a7a7a; stroke-opacity: 0.3; stroke-width: 0.8; stroke-linecap: square"/>
     </g>
     <g id="line2d_8">
      <g>
       <use xlink:href="#m11e878142d" x="334.170642" y="250.426435" style="fill: #7a7a7a; stroke: #7a7a7a; stroke-width: 0.8"/>
      </g>
     </g>
     <g id="text_4">
      <text style="font-size: 15px; font-family: 'DejaVu Sans', 'Bitstream Vera Sans', 'Computer Modern Sans Serif', 'Lucida Grande', 'Verdana', 'Geneva', 'Lucid', 'Arial', 'Helvetica', 'Avant Garde', sans-serif; text-anchor: middle; fill: #7a7a7a" x="334.170642" y="268.822919" transform="rotate(-0 334.170642 268.822919)">1</text>
     </g>
    </g>
    <g id="text_5">
     <text style="font-size: 15px; font-family: 'DejaVu Sans', 'Bitstream Vera Sans', 'Computer Modern Sans Serif', 'Lucida Grande', 'Verdana', 'Geneva', 'Lucid', 'Arial', 'Helvetica', 'Avant Garde', sans-serif; text-anchor: middle; fill: #7a7a7a" x="232.741794" y="287.824091" transform="rotate(-0 232.741794 287.824091)">standardized age (z)</text>
    </g>
   </g>
   <g id="matplotlib.axis_2">
    <g id="ytick_1">
     <g id="line2d_9">
      <path d="M 61.832422 230.034699 
L 403.651166 230.034699 
" clip-path="url(#pf47bbf227e)" style="fill: none; stroke: #7a7a7a; stroke-opacity: 0.3; stroke-width: 0.8; stroke-linecap: square"/>
     </g>
     <g id="line2d_10">
      <defs>
       <path id="m2cca0ddffb" d="M 0 0 
L -3.5 0 
" style="stroke: #7a7a7a; stroke-width: 0.8"/>
      </defs>
      <g>
       <use xlink:href="#m2cca0ddffb" x="61.832422" y="230.034699" style="fill: #7a7a7a; stroke: #7a7a7a; stroke-width: 0.8"/>
      </g>
     </g>
     <g id="text_6">
      <text style="font-size: 15px; font-family: 'DejaVu Sans', 'Bitstream Vera Sans', 'Computer Modern Sans Serif', 'Lucida Grande', 'Verdana', 'Geneva', 'Lucid', 'Arial', 'Helvetica', 'Avant Garde', sans-serif; text-anchor: end; fill: #7a7a7a" x="54.832422" y="235.732941" transform="rotate(-0 54.832422 235.732941)">100</text>
     </g>
    </g>
    <g id="ytick_2">
     <g id="line2d_11">
      <path d="M 61.832422 189.251228 
L 403.651166 189.251228 
" clip-path="url(#pf47bbf227e)" style="fill: none; stroke: #7a7a7a; stroke-opacity: 0.3; stroke-width: 0.8; stroke-linecap: square"/>
     </g>
     <g id="line2d_12">
      <g>
       <use xlink:href="#m2cca0ddffb" x="61.832422" y="189.251228" style="fill: #7a7a7a; stroke: #7a7a7a; stroke-width: 0.8"/>
      </g>
     </g>
     <g id="text_7">
      <text style="font-size: 15px; font-family: 'DejaVu Sans', 'Bitstream Vera Sans', 'Computer Modern Sans Serif', 'Lucida Grande', 'Verdana', 'Geneva', 'Lucid', 'Arial', 'Helvetica', 'Avant Garde', sans-serif; text-anchor: end; fill: #7a7a7a" x="54.832422" y="194.94947" transform="rotate(-0 54.832422 194.94947)">110</text>
     </g>
    </g>
    <g id="ytick_3">
     <g id="line2d_13">
      <path d="M 61.832422 148.467757 
L 403.651166 148.467757 
" clip-path="url(#pf47bbf227e)" style="fill: none; stroke: #7a7a7a; stroke-opacity: 0.3; stroke-width: 0.8; stroke-linecap: square"/>
     </g>
     <g id="line2d_14">
      <g>
       <use xlink:href="#m2cca0ddffb" x="61.832422" y="148.467757" style="fill: #7a7a7a; stroke: #7a7a7a; stroke-width: 0.8"/>
      </g>
     </g>
     <g id="text_8">
      <text style="font-size: 15px; font-family: 'DejaVu Sans', 'Bitstream Vera Sans', 'Computer Modern Sans Serif', 'Lucida Grande', 'Verdana', 'Geneva', 'Lucid', 'Arial', 'Helvetica', 'Avant Garde', sans-serif; text-anchor: end; fill: #7a7a7a" x="54.832422" y="154.165999" transform="rotate(-0 54.832422 154.165999)">120</text>
     </g>
    </g>
    <g id="ytick_4">
     <g id="line2d_15">
      <path d="M 61.832422 107.684286 
L 403.651166 107.684286 
" clip-path="url(#pf47bbf227e)" style="fill: none; stroke: #7a7a7a; stroke-opacity: 0.3; stroke-width: 0.8; stroke-linecap: square"/>
     </g>
     <g id="line2d_16">
      <g>
       <use xlink:href="#m2cca0ddffb" x="61.832422" y="107.684286" style="fill: #7a7a7a; stroke: #7a7a7a; stroke-width: 0.8"/>
      </g>
     </g>
     <g id="text_9">
      <text style="font-size: 15px; font-family: 'DejaVu Sans', 'Bitstream Vera Sans', 'Computer Modern Sans Serif', 'Lucida Grande', 'Verdana', 'Geneva', 'Lucid', 'Arial', 'Helvetica', 'Avant Garde', sans-serif; text-anchor: end; fill: #7a7a7a" x="54.832422" y="113.382528" transform="rotate(-0 54.832422 113.382528)">130</text>
     </g>
    </g>
    <g id="ytick_5">
     <g id="line2d_17">
      <path d="M 61.832422 66.900815 
L 403.651166 66.900815 
" clip-path="url(#pf47bbf227e)" style="fill: none; stroke: #7a7a7a; stroke-opacity: 0.3; stroke-width: 0.8; stroke-linecap: square"/>
     </g>
     <g id="line2d_18">
      <g>
       <use xlink:href="#m2cca0ddffb" x="61.832422" y="66.900815" style="fill: #7a7a7a; stroke: #7a7a7a; stroke-width: 0.8"/>
      </g>
     </g>
     <g id="text_10">
      <text style="font-size: 15px; font-family: 'DejaVu Sans', 'Bitstream Vera Sans', 'Computer Modern Sans Serif', 'Lucida Grande', 'Verdana', 'Geneva', 'Lucid', 'Arial', 'Helvetica', 'Avant Garde', sans-serif; text-anchor: end; fill: #7a7a7a" x="54.832422" y="72.599057" transform="rotate(-0 54.832422 72.599057)">140</text>
     </g>
    </g>
    <g id="ytick_6">
     <g id="line2d_19">
      <path d="M 61.832422 26.117344 
L 403.651166 26.117344 
" clip-path="url(#pf47bbf227e)" style="fill: none; stroke: #7a7a7a; stroke-opacity: 0.3; stroke-width: 0.8; stroke-linecap: square"/>
     </g>
     <g id="line2d_20">
      <g>
       <use xlink:href="#m2cca0ddffb" x="61.832422" y="26.117344" style="fill: #7a7a7a; stroke: #7a7a7a; stroke-width: 0.8"/>
      </g>
     </g>
     <g id="text_11">
      <text style="font-size: 15px; font-family: 'DejaVu Sans', 'Bitstream Vera Sans', 'Computer Modern Sans Serif', 'Lucida Grande', 'Verdana', 'Geneva', 'Lucid', 'Arial', 'Helvetica', 'Avant Garde', sans-serif; text-anchor: end; fill: #7a7a7a" x="54.832422" y="31.815586" transform="rotate(-0 54.832422 31.815586)">150</text>
     </g>
    </g>
    <g id="text_12">
     <text style="font-size: 15px; font-family: 'DejaVu Sans', 'Bitstream Vera Sans', 'Computer Modern Sans Serif', 'Lucida Grande', 'Verdana', 'Geneva', 'Lucid', 'Arial', 'Helvetica', 'Avant Garde', sans-serif; text-anchor: middle; fill: #7a7a7a" x="18.597656" y="138.271889" transform="rotate(-90 18.597656 138.271889)">response (illustrative)</text>
    </g>
   </g>
   <g id="line2d_21">
    <path d="M 77.369638 220.658691 
L 388.113951 88.899206 
L 388.113951 88.899206 
" clip-path="url(#pf47bbf227e)" style="fill: none; stroke: #0072b2; stroke-opacity: 0.22; stroke-linecap: square"/>
   </g>
   <g id="line2d_22">
    <path d="M 77.369638 246.914908 
L 388.113951 78.89547 
L 388.113951 78.89547 
" clip-path="url(#pf47bbf227e)" style="fill: none; stroke-dasharray: 3.7,1.6; stroke-dashoffset: 0; stroke: #0072b2; stroke-opacity: 0.22"/>
   </g>
   <g id="line2d_23">
    <path d="M 77.369638 248.676589 
L 388.113951 50.693499 
L 388.113951 50.693499 
" clip-path="url(#pf47bbf227e)" style="fill: none; stroke-dasharray: 6.4,1.6,1,1.6; stroke-dashoffset: 0; stroke: #0072b2; stroke-opacity: 0.22"/>
   </g>
   <g id="line2d_24">
    <path d="M 77.369638 267.770116 
L 388.113951 47.699307 
L 388.113951 47.699307 
" clip-path="url(#pf47bbf227e)" style="fill: none; stroke-dasharray: 1,1.65; stroke-dashoffset: 0; stroke: #0072b2; stroke-opacity: 0.22"/>
   </g>
   <g id="line2d_25">
    <path d="M 77.369638 238.589474 
L 388.113951 60.607527 
L 388.113951 60.607527 
" clip-path="url(#pf47bbf227e)" style="fill: none; stroke-dasharray: 3,1,1,1; stroke-dashoffset: 0; stroke: #0072b2; stroke-opacity: 0.22"/>
   </g>
   <g id="line2d_26">
    <path d="M 77.369638 232.513865 
L 388.113951 50.956215 
L 388.113951 50.956215 
" clip-path="url(#pf47bbf227e)" style="fill: none; stroke-dasharray: 5,1; stroke-dashoffset: 0; stroke: #0072b2; stroke-opacity: 0.22"/>
   </g>
   <g id="line2d_27">
    <path d="M 77.369638 225.596252 
L 388.113951 43.491696 
L 388.113951 43.491696 
" clip-path="url(#pf47bbf227e)" style="fill: none; stroke: #0072b2; stroke-opacity: 0.22; stroke-linecap: square"/>
   </g>
   <g id="line2d_28">
    <path d="M 77.369638 291.675005 
L 388.113951 51.986767 
L 388.113951 51.986767 
" clip-path="url(#pf47bbf227e)" style="fill: none; stroke-dasharray: 3.7,1.6; stroke-dashoffset: 0; stroke: #0072b2; stroke-opacity: 0.22"/>
   </g>
   <g id="line2d_29">
    <path d="M 77.369638 259.496007 
L 388.113951 46.021988 
L 388.113951 46.021988 
" clip-path="url(#pf47bbf227e)" style="fill: none; stroke-dasharray: 6.4,1.6,1,1.6; stroke-dashoffset: 0; stroke: #0072b2; stroke-opacity: 0.22"/>
   </g>
   <g id="line2d_30">
    <path d="M 77.369638 229.301458 
L 388.113951 83.20329 
L 388.113951 83.20329 
" clip-path="url(#pf47bbf227e)" style="fill: none; stroke-dasharray: 1,1.65; stroke-dashoffset: 0; stroke: #0072b2; stroke-opacity: 0.22"/>
   </g>
   <g id="line2d_31">
    <path d="M 77.369638 251.226896 
L 388.113951 56.760945 
L 388.113951 56.760945 
" clip-path="url(#pf47bbf227e)" style="fill: none; stroke-dasharray: 3,1,1,1; stroke-dashoffset: 0; stroke: #0072b2; stroke-opacity: 0.22"/>
   </g>
   <g id="line2d_32">
    <path d="M 77.369638 209.484163 
L 388.113951 74.835752 
L 388.113951 74.835752 
" clip-path="url(#pf47bbf227e)" style="fill: none; stroke-dasharray: 5,1; stroke-dashoffset: 0; stroke: #0072b2; stroke-opacity: 0.22"/>
   </g>
   <g id="line2d_33">
    <path d="M 77.369638 245.347824 
L 388.113951 47.10912 
L 388.113951 47.10912 
" clip-path="url(#pf47bbf227e)" style="fill: none; stroke: #0072b2; stroke-opacity: 0.22; stroke-linecap: square"/>
   </g>
   <g id="line2d_34">
    <path d="M 77.369638 256.847899 
L 388.113951 53.645156 
L 388.113951 53.645156 
" clip-path="url(#pf47bbf227e)" style="fill: none; stroke-dasharray: 3.7,1.6; stroke-dashoffset: 0; stroke: #0072b2; stroke-opacity: 0.22"/>
   </g>
   <g id="line2d_35">
    <path d="M 77.369638 267.68838 
L 388.113951 61.943021 
L 388.113951 61.943021 
" clip-path="url(#pf47bbf227e)" style="fill: none; stroke-dasharray: 6.4,1.6,1,1.6; stroke-dashoffset: 0; stroke: #0072b2; stroke-opacity: 0.22"/>
   </g>
   <g id="line2d_36">
    <path d="M 77.369638 280.937683 
L 388.113951 60.059899 
L 388.113951 60.059899 
" clip-path="url(#pf47bbf227e)" style="fill: none; stroke-dasharray: 1,1.65; stroke-dashoffset: 0; stroke: #0072b2; stroke-opacity: 0.22"/>
   </g>
   <g id="line2d_37">
    <path d="M 77.369638 232.205722 
L 388.113951 60.107358 
L 388.113951 60.107358 
" clip-path="url(#pf47bbf227e)" style="fill: none; stroke-dasharray: 3,1,1,1; stroke-dashoffset: 0; stroke: #0072b2; stroke-opacity: 0.22"/>
   </g>
   <g id="line2d_38">
    <path d="M 77.369638 248.232518 
L 388.113951 52.988393 
L 388.113951 52.988393 
" clip-path="url(#pf47bbf227e)" style="fill: none; stroke-dasharray: 5,1; stroke-dashoffset: 0; stroke: #0072b2; stroke-opacity: 0.22"/>
   </g>
   <g id="line2d_39">
    <path d="M 77.369638 232.188913 
L 388.113951 72.525784 
L 388.113951 72.525784 
" clip-path="url(#pf47bbf227e)" style="fill: none; stroke: #0072b2; stroke-opacity: 0.22; stroke-linecap: square"/>
   </g>
   <g id="line2d_40">
    <path d="M 77.369638 255.777178 
L 388.113951 55.114307 
L 388.113951 55.114307 
" clip-path="url(#pf47bbf227e)" style="fill: none; stroke-dasharray: 3.7,1.6; stroke-dashoffset: 0; stroke: #0072b2; stroke-opacity: 0.22"/>
   </g>
   <g id="line2d_41">
    <path d="M 77.369638 247.056477 
L 388.113951 59.877235 
L 388.113951 59.877235 
" clip-path="url(#pf47bbf227e)" style="fill: none; stroke-dasharray: 16.64,4.16,2.6,4.16; stroke-dashoffset: 0; stroke: #e69f00; stroke-width: 2.6"/>
   </g>
   <g id="line2d_42">
    <path d="M 77.369638 201.025866 
L 83.615754 204.785275 
L 88.300342 207.376401 
L 92.98493 209.755547 
L 97.669517 211.909242 
L 102.354105 213.825095 
L 107.038693 215.491854 
L 111.72328 216.89946 
L 116.407868 218.039094 
L 121.092455 218.903221 
L 125.777043 219.485625 
L 130.461631 219.781437 
L 135.146218 219.787163 
L 139.830806 219.500695 
L 144.515394 218.921326 
L 149.199981 218.049752 
L 153.884569 216.888066 
L 158.569157 215.43975 
L 163.253744 213.709661 
L 167.938332 211.704003 
L 172.622919 209.430299 
L 177.307507 206.897357 
L 181.992095 204.115225 
L 186.676682 201.095144 
L 191.36127 197.849495 
L 197.607387 193.194493 
L 203.853504 188.197213 
L 210.099621 182.895251 
L 216.345737 177.328794 
L 224.153383 170.063617 
L 233.522559 161.010265 
L 249.137851 145.517338 
L 263.191614 131.673691 
L 272.560789 122.775369 
L 280.368435 115.693503 
L 286.614552 110.307409 
L 292.860669 105.214132 
L 299.106786 100.452085 
L 303.791373 97.119446 
L 308.475961 94.007087 
L 313.160549 91.127831 
L 317.845136 88.493384 
L 322.529724 86.11428 
L 327.214311 83.999831 
L 331.898899 82.158082 
L 336.583487 80.595772 
L 341.268074 79.318302 
L 345.952662 78.329709 
L 350.63725 77.632647 
L 355.321837 77.228376 
L 360.006425 77.11675 
L 364.691013 77.296227 
L 369.3756 77.763866 
L 374.060188 78.515351 
L 378.744776 79.545004 
L 383.429363 80.845815 
L 388.113951 82.409479 
L 388.113951 82.409479 
" clip-path="url(#pf47bbf227e)" style="fill: none; stroke-dasharray: 8.88,3.84; stroke-dashoffset: 0; stroke: #d55e00; stroke-width: 2.4"/>
   </g>
   <g id="patch_3">
    <path d="M 61.832422 250.426435 
L 61.832422 26.117344 
" style="fill: none; stroke: #7a7a7a; stroke-width: 0.8; stroke-linejoin: miter; stroke-linecap: square"/>
   </g>
   <g id="patch_4">
    <path d="M 61.832422 250.426435 
L 403.651166 250.426435 
" style="fill: none; stroke: #7a7a7a; stroke-width: 0.8; stroke-linejoin: miter; stroke-linecap: square"/>
   </g>
   <g id="text_13">
    <text style="font-size: 17px; font-family: 'DejaVu Sans', 'Bitstream Vera Sans', 'Computer Modern Sans Serif', 'Lucida Grande', 'Verdana', 'Geneva', 'Lucid', 'Arial', 'Helvetica', 'Avant Garde', sans-serif; text-anchor: middle; fill: #7a7a7a" x="232.741794" y="20.117344" transform="rotate(-0 232.741794 20.117344)">degree 1 — high bias</text>
   </g>
  </g>
  <g id="axes_2">
   <g id="patch_5">
    <path d="M 424.159132 250.426435 
L 765.977876 250.426435 
L 765.977876 26.117344 
L 424.159132 26.117344 
L 424.159132 250.426435 
z
" style="fill: none; opacity: 0"/>
   </g>
   <g id="matplotlib.axis_3">
    <g id="xtick_5">
     <g id="line2d_43">
      <path d="M 432.513853 250.426435 
L 432.513853 26.117344 
" clip-path="url(#p259ee98097)" style="fill: none; stroke: #7a7a7a; stroke-opacity: 0.3; stroke-width: 0.8; stroke-linecap: square"/>
     </g>
     <g id="line2d_44">
      <g>
       <use xlink:href="#m11e878142d" x="432.513853" y="250.426435" style="fill: #7a7a7a; stroke: #7a7a7a; stroke-width: 0.8"/>
      </g>
     </g>
     <g id="text_14">
      <text style="font-size: 15px; font-family: 'DejaVu Sans', 'Bitstream Vera Sans', 'Computer Modern Sans Serif', 'Lucida Grande', 'Verdana', 'Geneva', 'Lucid', 'Arial', 'Helvetica', 'Avant Garde', sans-serif; text-anchor: middle; fill: #7a7a7a" x="432.513853" y="268.822919" transform="rotate(-0 432.513853 268.822919)">−2</text>
     </g>
    </g>
    <g id="xtick_6">
     <g id="line2d_45">
      <path d="M 520.508352 250.426435 
L 520.508352 26.117344 
" clip-path="url(#p259ee98097)" style="fill: none; stroke: #7a7a7a; stroke-opacity: 0.3; stroke-width: 0.8; stroke-linecap: square"/>
     </g>
     <g id="line2d_46">
      <g>
       <use xlink:href="#m11e878142d" x="520.508352" y="250.426435" style="fill: #7a7a7a; stroke: #7a7a7a; stroke-width: 0.8"/>
      </g>
     </g>
     <g id="text_15">
      <text style="font-size: 15px; font-family: 'DejaVu Sans', 'Bitstream Vera Sans', 'Computer Modern Sans Serif', 'Lucida Grande', 'Verdana', 'Geneva', 'Lucid', 'Arial', 'Helvetica', 'Avant Garde', sans-serif; text-anchor: middle; fill: #7a7a7a" x="520.508352" y="268.822919" transform="rotate(-0 520.508352 268.822919)">−1</text>
     </g>
    </g>
    <g id="xtick_7">
     <g id="line2d_47">
      <path d="M 608.502852 250.426435 
L 608.502852 26.117344 
" clip-path="url(#p259ee98097)" style="fill: none; stroke: #7a7a7a; stroke-opacity: 0.3; stroke-width: 0.8; stroke-linecap: square"/>
     </g>
     <g id="line2d_48">
      <g>
       <use xlink:href="#m11e878142d" x="608.502852" y="250.426435" style="fill: #7a7a7a; stroke: #7a7a7a; stroke-width: 0.8"/>
      </g>
     </g>
     <g id="text_16">
      <text style="font-size: 15px; font-family: 'DejaVu Sans', 'Bitstream Vera Sans', 'Computer Modern Sans Serif', 'Lucida Grande', 'Verdana', 'Geneva', 'Lucid', 'Arial', 'Helvetica', 'Avant Garde', sans-serif; text-anchor: middle; fill: #7a7a7a" x="608.502852" y="268.822919" transform="rotate(-0 608.502852 268.822919)">0</text>
     </g>
    </g>
    <g id="xtick_8">
     <g id="line2d_49">
      <path d="M 696.497352 250.426435 
L 696.497352 26.117344 
" clip-path="url(#p259ee98097)" style="fill: none; stroke: #7a7a7a; stroke-opacity: 0.3; stroke-width: 0.8; stroke-linecap: square"/>
     </g>
     <g id="line2d_50">
      <g>
       <use xlink:href="#m11e878142d" x="696.497352" y="250.426435" style="fill: #7a7a7a; stroke: #7a7a7a; stroke-width: 0.8"/>
      </g>
     </g>
     <g id="text_17">
      <text style="font-size: 15px; font-family: 'DejaVu Sans', 'Bitstream Vera Sans', 'Computer Modern Sans Serif', 'Lucida Grande', 'Verdana', 'Geneva', 'Lucid', 'Arial', 'Helvetica', 'Avant Garde', sans-serif; text-anchor: middle; fill: #7a7a7a" x="696.497352" y="268.822919" transform="rotate(-0 696.497352 268.822919)">1</text>
     </g>
    </g>
    <g id="text_18">
     <text style="font-size: 15px; font-family: 'DejaVu Sans', 'Bitstream Vera Sans', 'Computer Modern Sans Serif', 'Lucida Grande', 'Verdana', 'Geneva', 'Lucid', 'Arial', 'Helvetica', 'Avant Garde', sans-serif; text-anchor: middle; fill: #7a7a7a" x="595.068504" y="287.824091" transform="rotate(-0 595.068504 287.824091)">standardized age (z)</text>
    </g>
   </g>
   <g id="matplotlib.axis_4">
    <g id="ytick_7">
     <g id="line2d_51">
      <path d="M 424.159132 230.034699 
L 765.977876 230.034699 
" clip-path="url(#p259ee98097)" style="fill: none; stroke: #7a7a7a; stroke-opacity: 0.3; stroke-width: 0.8; stroke-linecap: square"/>
     </g>
     <g id="line2d_52">
      <g>
       <use xlink:href="#m2cca0ddffb" x="424.159132" y="230.034699" style="fill: #7a7a7a; stroke: #7a7a7a; stroke-width: 0.8"/>
      </g>
     </g>
    </g>
    <g id="ytick_8">
     <g id="line2d_53">
      <path d="M 424.159132 189.251228 
L 765.977876 189.251228 
" clip-path="url(#p259ee98097)" style="fill: none; stroke: #7a7a7a; stroke-opacity: 0.3; stroke-width: 0.8; stroke-linecap: square"/>
     </g>
     <g id="line2d_54">
      <g>
       <use xlink:href="#m2cca0ddffb" x="424.159132" y="189.251228" style="fill: #7a7a7a; stroke: #7a7a7a; stroke-width: 0.8"/>
      </g>
     </g>
    </g>
    <g id="ytick_9">
     <g id="line2d_55">
      <path d="M 424.159132 148.467757 
L 765.977876 148.467757 
" clip-path="url(#p259ee98097)" style="fill: none; stroke: #7a7a7a; stroke-opacity: 0.3; stroke-width: 0.8; stroke-linecap: square"/>
     </g>
     <g id="line2d_56">
      <g>
       <use xlink:href="#m2cca0ddffb" x="424.159132" y="148.467757" style="fill: #7a7a7a; stroke: #7a7a7a; stroke-width: 0.8"/>
      </g>
     </g>
    </g>
    <g id="ytick_10">
     <g id="line2d_57">
      <path d="M 424.159132 107.684286 
L 765.977876 107.684286 
" clip-path="url(#p259ee98097)" style="fill: none; stroke: #7a7a7a; stroke-opacity: 0.3; stroke-width: 0.8; stroke-linecap: square"/>
     </g>
     <g id="line2d_58">
      <g>
       <use xlink:href="#m2cca0ddffb" x="424.159132" y="107.684286" style="fill: #7a7a7a; stroke: #7a7a7a; stroke-width: 0.8"/>
      </g>
     </g>
    </g>
    <g id="ytick_11">
     <g id="line2d_59">
      <path d="M 424.159132 66.900815 
L 765.977876 66.900815 
" clip-path="url(#p259ee98097)" style="fill: none; stroke: #7a7a7a; stroke-opacity: 0.3; stroke-width: 0.8; stroke-linecap: square"/>
     </g>
     <g id="line2d_60">
      <g>
       <use xlink:href="#m2cca0ddffb" x="424.159132" y="66.900815" style="fill: #7a7a7a; stroke: #7a7a7a; stroke-width: 0.8"/>
      </g>
     </g>
    </g>
    <g id="ytick_12">
     <g id="line2d_61">
      <path d="M 424.159132 26.117344 
L 765.977876 26.117344 
" clip-path="url(#p259ee98097)" style="fill: none; stroke: #7a7a7a; stroke-opacity: 0.3; stroke-width: 0.8; stroke-linecap: square"/>
     </g>
     <g id="line2d_62">
      <g>
       <use xlink:href="#m2cca0ddffb" x="424.159132" y="26.117344" style="fill: #7a7a7a; stroke: #7a7a7a; stroke-width: 0.8"/>
      </g>
     </g>
    </g>
   </g>
   <g id="line2d_63">
    <path d="M 439.696348 227.596921 
L 441.257877 229.403207 
L 442.819406 231.835647 
L 444.380935 234.734289 
L 447.503994 241.383671 
L 452.188581 251.869525 
L 455.31164 258.271824 
L 456.873169 261.129607 
L 458.434698 263.707924 
L 459.996227 265.979601 
L 461.557756 267.925025 
L 463.119286 269.531334 
L 464.680815 270.79167 
L 466.242344 271.704478 
L 467.803873 272.272849 
L 469.365403 272.503915 
L 470.926932 272.408285 
L 472.488461 271.999519 
L 474.04999 271.293648 
L 475.611519 270.308726 
L 477.173049 269.064423 
L 478.734578 267.581651 
L 480.296107 265.882219 
L 483.419165 261.92327 
L 486.542224 257.36893 
L 489.665282 252.397956 
L 495.911399 241.872843 
L 500.595987 234.043342 
L 503.719045 229.079885 
L 506.842104 224.428743 
L 509.965162 220.158094 
L 513.08822 216.315331 
L 516.211279 212.928006 
L 519.334337 210.005193 
L 522.457396 207.539179 
L 525.580454 205.507405 
L 528.703513 203.874566 
L 531.826571 202.594824 
L 534.949629 201.614043 
L 538.072688 200.87203 
L 542.757276 200.065953 
L 553.68798 198.476009 
L 556.811038 197.821032 
L 559.934097 196.979457 
L 563.057155 195.908667 
L 566.180214 194.573738 
L 569.303272 192.94793 
L 572.426331 191.01298 
L 575.549389 188.75916 
L 578.672447 186.185151 
L 581.795506 183.297729 
L 584.918564 180.11127 
L 588.041623 176.64712 
L 591.164681 172.932818 
L 595.849269 166.965417 
L 600.533856 160.638253 
L 609.903032 147.479278 
L 617.710678 136.692845 
L 622.395265 130.576211 
L 627.079853 124.858679 
L 631.764441 119.620274 
L 634.887499 116.421074 
L 638.010557 113.466756 
L 641.133616 110.759812 
L 644.256674 108.297244 
L 647.379733 106.07097 
L 650.502791 104.068394 
L 653.62585 102.273114 
L 656.748908 100.665784 
L 661.433496 98.560232 
L 666.118083 96.754523 
L 670.802671 95.177463 
L 677.048788 93.330358 
L 683.294905 91.700483 
L 689.541021 90.27976 
L 694.225609 89.389657 
L 698.910197 88.699624 
L 703.594784 88.250855 
L 708.279372 88.051604 
L 720.771606 87.789716 
L 722.333135 87.557426 
L 723.894664 87.203305 
L 725.456193 86.691675 
L 727.017723 85.981049 
L 728.579252 85.023507 
L 730.140781 83.764027 
L 731.70231 82.139771 
L 733.263839 80.079325 
L 734.825369 77.501883 
L 736.386898 74.316387 
L 737.948427 70.420604 
L 739.509956 65.700154 
L 741.071485 60.027473 
L 742.633015 53.260719 
L 744.194544 45.242611 
L 745.756073 35.799205 
L 747.317602 24.738596 
L 748.879132 11.849556 
L 750.221317 -1 
L 750.221317 -1 
" clip-path="url(#p259ee98097)" style="fill: none; stroke: #0072b2; stroke-opacity: 0.22; stroke-linecap: square"/>
   </g>
   <g id="line2d_64">
    <path d="M 439.696348 221.52317 
L 441.257877 86.582104 
L 442.518939 -1 
M 472.248492 -1 
L 474.04999 28.120716 
L 477.173049 73.593938 
L 478.734578 93.791939 
L 480.296107 112.224074 
L 481.857636 128.877896 
L 483.419165 143.769415 
L 484.980695 156.938824 
L 486.542224 168.446577 
L 488.103753 178.3698 
L 489.665282 186.799032 
L 491.226812 193.835252 
L 492.788341 199.587204 
L 494.34987 204.168986 
L 495.911399 207.697892 
L 497.472928 210.292494 
L 499.034458 212.070944 
L 500.595987 213.149492 
L 502.157516 213.641194 
L 503.719045 213.654808 
L 505.280574 213.293858 
L 506.842104 212.655855 
L 509.965162 210.905034 
L 513.08822 209.04156 
L 514.64975 208.233738 
L 516.211279 207.581294 
L 517.772808 207.128874 
L 519.334337 206.913294 
L 520.895867 206.96372 
L 522.457396 207.301901 
L 524.018925 207.942468 
L 525.580454 208.893268 
L 527.141983 210.155751 
L 528.703513 211.725375 
L 530.265042 213.592055 
L 531.826571 215.740621 
L 533.3881 218.151303 
L 536.511159 223.659886 
L 539.634217 229.886463 
L 544.318805 239.967712 
L 549.003392 250.028429 
L 552.126451 256.210053 
L 555.249509 261.628434 
L 556.811038 263.967193 
L 558.372568 266.018234 
L 559.934097 267.754038 
L 561.495626 269.149787 
L 563.057155 270.183558 
L 564.618685 270.836477 
L 566.180214 271.092842 
L 567.741743 270.940223 
L 569.303272 270.369525 
L 570.864801 269.375028 
L 572.426331 267.954396 
L 573.98786 266.108655 
L 575.549389 263.84215 
L 577.110918 261.162473 
L 578.672447 258.080369 
L 580.233977 254.609611 
L 581.795506 250.766864 
L 583.357035 246.57152 
L 586.480093 237.213152 
L 589.603152 226.736898 
L 592.72621 215.375539 
L 597.410798 197.236535 
L 606.779973 160.37128 
L 609.903032 148.880292 
L 613.02609 138.184252 
L 616.149149 128.478602 
L 619.272207 119.921551 
L 620.833736 116.111758 
L 622.395265 112.629097 
L 623.956795 109.480877 
L 625.518324 106.671394 
L 627.079853 104.2019 
L 628.641382 102.070603 
L 630.202911 100.272682 
L 631.764441 98.800341 
L 633.32597 97.642883 
L 634.887499 96.78681 
L 636.449028 96.215956 
L 638.010557 95.911642 
L 639.572087 95.852858 
L 641.133616 96.016474 
L 642.695145 96.377469 
L 644.256674 96.909194 
L 647.379733 98.371766 
L 650.502791 100.169487 
L 655.187379 102.968629 
L 658.310437 104.565068 
L 659.871966 105.202874 
L 661.433496 105.702884 
L 662.995025 106.045118 
L 664.556554 106.212559 
L 666.118083 106.191493 
L 667.679613 105.971832 
L 669.241142 105.547404 
L 670.802671 104.916212 
L 672.3642 104.08065 
L 673.925729 103.047677 
L 675.487259 101.82893 
L 678.610317 98.90435 
L 681.733375 95.494015 
L 687.979492 88.307545 
L 691.102551 85.210386 
L 692.66408 83.949157 
L 694.225609 82.941701 
L 695.787138 82.231874 
L 697.348668 81.859433 
L 698.910197 81.858253 
L 700.471726 82.254318 
L 702.033255 83.063484 
L 703.594784 84.288985 
L 705.156314 85.918683 
L 706.717843 87.922033 
L 708.279372 90.246749 
L 711.40243 95.520255 
L 714.525489 100.739248 
L 716.087018 102.851532 
L 717.648547 104.286687 
L 719.210077 104.718391 
L 720.771606 103.759109 
L 722.333135 100.953273 
L 723.894664 95.769957 
L 725.456193 87.595046 
L 727.017723 75.722868 
L 728.579252 59.34726 
L 730.140781 37.552052 
L 731.70231 9.300942 
L 732.150689 -1 
L 732.150689 -1 
" clip-path="url(#p259ee98097)" style="fill: none; stroke-dasharray: 3.7,1.6; stroke-dashoffset: 0; stroke: #0072b2; stroke-opacity: 0.22"/>
   </g>
   <g id="line2d_65">
    <path d="M 442.80442 299.627607 
L 442.819406 299.293445 
L 444.380935 271.543347 
L 445.942464 249.874842 
L 447.503994 233.400419 
L 449.065523 221.324489 
L 450.627052 212.936463 
L 452.188581 207.60419 
L 453.75011 204.767775 
L 455.31164 203.933733 
L 456.873169 204.669486 
L 458.434698 206.598176 
L 459.996227 209.393794 
L 461.557756 212.7766 
L 469.365403 231.427958 
L 470.926932 234.542891 
L 472.488461 237.254664 
L 474.04999 239.520614 
L 475.611519 241.314584 
L 477.173049 242.624694 
L 478.734578 243.451282 
L 480.296107 243.805024 
L 481.857636 243.70521 
L 483.419165 243.178172 
L 484.980695 242.255858 
L 486.542224 240.974541 
L 488.103753 239.373659 
L 489.665282 237.494774 
L 491.226812 235.380645 
L 494.34987 230.618858 
L 499.034458 222.76661 
L 503.719045 214.963381 
L 506.842104 210.202353 
L 509.965162 206.011637 
L 511.526691 204.171854 
L 513.08822 202.518071 
L 514.64975 201.05796 
L 516.211279 199.796077 
L 517.772808 198.733993 
L 519.334337 197.870447 
L 520.895867 197.20151 
L 522.457396 196.720779 
L 524.018925 196.419572 
L 525.580454 196.287138 
L 527.141983 196.310878 
L 528.703513 196.476566 
L 531.826571 197.170111 
L 534.949629 198.230065 
L 539.634217 200.179092 
L 544.318805 202.099422 
L 547.441863 203.118521 
L 550.564922 203.773843 
L 552.126451 203.928795 
L 553.68798 203.95176 
L 555.249509 203.83184 
L 556.811038 203.559616 
L 558.372568 203.127216 
L 559.934097 202.528353 
L 561.495626 201.758364 
L 563.057155 200.814223 
L 564.618685 199.694548 
L 566.180214 198.399588 
L 567.741743 196.931204 
L 569.303272 195.292831 
L 572.426331 191.527435 
L 575.549389 187.160282 
L 578.672447 182.269248 
L 581.795506 176.950188 
L 586.480093 168.413319 
L 597.410798 148.07265 
L 600.533856 142.718323 
L 603.656915 137.776795 
L 606.779973 133.341008 
L 609.903032 129.485276 
L 613.02609 126.262325 
L 614.587619 124.898127 
L 616.149149 123.700954 
L 617.710678 122.670401 
L 619.272207 121.804406 
L 620.833736 121.099245 
L 622.395265 120.549538 
L 623.956795 120.148271 
L 625.518324 119.886833 
L 627.079853 119.755061 
L 630.202911 119.832536 
L 633.32597 120.271261 
L 638.010557 121.321231 
L 642.695145 122.399348 
L 645.818204 122.873265 
L 647.379733 122.977997 
L 648.941262 122.969378 
L 650.502791 122.829446 
L 652.06432 122.541273 
L 653.62585 122.089196 
L 655.187379 121.459057 
L 656.748908 120.638436 
L 658.310437 119.616881 
L 659.871966 118.386143 
L 661.433496 116.940386 
L 662.995025 115.276404 
L 664.556554 113.393815 
L 666.118083 111.29524 
L 667.679613 108.98647 
L 670.802671 103.778152 
L 673.925729 97.883202 
L 677.048788 91.472676 
L 686.417963 71.684719 
L 689.541021 65.986229 
L 691.102551 63.514205 
L 692.66408 61.358617 
L 694.225609 59.567426 
L 695.787138 58.186922 
L 697.348668 57.260703 
L 698.910197 56.828534 
L 700.471726 56.925074 
L 702.033255 57.578477 
L 703.594784 58.808839 
L 705.156314 60.626496 
L 706.717843 63.03017 
L 708.279372 66.00493 
L 709.840901 69.519991 
L 711.40243 73.526316 
L 714.525489 82.70958 
L 719.210077 97.58854 
L 720.771606 102.136984 
L 722.333135 106.077262 
L 723.894664 109.102319 
L 725.456193 110.855185 
L 727.017723 110.924138 
L 728.579252 108.837552 
L 730.140781 104.058424 
L 731.70231 95.97857 
L 733.263839 83.912468 
L 734.825369 67.090746 
L 736.386898 44.65329 
L 737.948427 15.641957 
L 738.657501 -1 
L 738.657501 -1 
" clip-path="url(#p259ee98097)" style="fill: none; stroke-dasharray: 6.4,1.6,1,1.6; stroke-dashoffset: 0; stroke: #0072b2; stroke-opacity: 0.22"/>
   </g>
   <g id="line2d_66">
    <path d="M 439.696348 270.773796 
L 441.257877 256.823403 
L 442.819406 244.522453 
L 444.380935 233.775538 
L 445.942464 224.485426 
L 447.503994 216.55392 
L 449.065523 209.882635 
L 450.627052 204.373698 
L 452.188581 199.930383 
L 453.75011 196.457673 
L 455.31164 193.862762 
L 456.873169 192.055495 
L 458.434698 190.948756 
L 459.996227 190.458794 
L 461.557756 190.505511 
L 463.119286 191.01269 
L 464.680815 191.90819 
L 466.242344 193.124092 
L 467.803873 194.596811 
L 470.926932 198.080445 
L 480.296107 209.454727 
L 483.419165 212.618104 
L 484.980695 213.97476 
L 486.542224 215.16219 
L 488.103753 216.170265 
L 489.665282 216.992049 
L 491.226812 217.623613 
L 492.788341 218.063834 
L 494.34987 218.314194 
L 495.911399 218.378576 
L 497.472928 218.263053 
L 499.034458 217.975683 
L 500.595987 217.5263 
L 502.157516 216.926309 
L 503.719045 216.188479 
L 506.842104 214.356008 
L 509.965162 212.150822 
L 514.64975 208.432805 
L 520.895867 203.414726 
L 524.018925 201.167409 
L 527.141983 199.246493 
L 530.265042 197.74759 
L 531.826571 197.181435 
L 533.3881 196.748407 
L 534.949629 196.455102 
L 536.511159 196.306783 
L 538.072688 196.307357 
L 539.634217 196.459354 
L 541.195746 196.763923 
L 542.757276 197.220831 
L 544.318805 197.828471 
L 545.880334 198.583881 
L 547.441863 199.482771 
L 550.564922 201.687411 
L 553.68798 204.383012 
L 556.811038 207.491916 
L 559.934097 210.920284 
L 564.618685 216.423472 
L 570.864801 223.791779 
L 573.98786 227.196067 
L 577.110918 230.23743 
L 580.233977 232.787175 
L 581.795506 233.839247 
L 583.357035 234.723415 
L 584.918564 235.426023 
L 586.480093 235.934232 
L 588.041623 236.236099 
L 589.603152 236.320665 
L 591.164681 236.178032 
L 592.72621 235.799441 
L 594.28774 235.177333 
L 595.849269 234.305418 
L 597.410798 233.178728 
L 598.972327 231.793666 
L 600.533856 230.148047 
L 602.095386 228.241135 
L 603.656915 226.073669 
L 605.218444 223.647883 
L 606.779973 220.967513 
L 608.341502 218.037804 
L 611.464561 211.458837 
L 614.587619 203.98262 
L 617.710678 195.703586 
L 620.833736 186.737475 
L 625.518324 172.299953 
L 633.32597 146.931886 
L 638.010557 131.891672 
L 641.133616 122.316398 
L 644.256674 113.306345 
L 647.379733 105.023968 
L 650.502791 97.614867 
L 652.06432 94.277387 
L 653.62585 91.20252 
L 655.187379 88.401407 
L 656.748908 85.883186 
L 658.310437 83.654856 
L 659.871966 81.721143 
L 661.433496 80.08439 
L 662.995025 78.744443 
L 664.556554 77.69857 
L 666.118083 76.941379 
L 667.679613 76.464766 
L 669.241142 76.257876 
L 670.802671 76.307094 
L 672.3642 76.596049 
L 673.925729 77.105657 
L 675.487259 77.814182 
L 677.048788 78.697336 
L 680.171846 80.878436 
L 684.856434 84.723387 
L 687.979492 87.270832 
L 691.102551 89.468209 
L 692.66408 90.345211 
L 694.225609 91.028184 
L 695.787138 91.484838 
L 697.348668 91.685705 
L 698.910197 91.604973 
L 700.471726 91.221411 
L 702.033255 90.519366 
L 703.594784 89.489857 
L 705.156314 88.131752 
L 706.717843 86.453049 
L 708.279372 84.472252 
L 709.840901 82.219851 
L 712.96396 77.091796 
L 717.648547 69.000365 
L 719.210077 66.645289 
L 720.771606 64.716425 
L 722.333135 63.40771 
L 723.894664 62.943944 
L 725.456193 63.583603 
L 727.017723 65.621809 
L 728.579252 69.393478 
L 730.140781 75.276639 
L 731.70231 83.695938 
L 733.263839 95.126329 
L 734.825369 110.096962 
L 736.386898 129.195272 
L 737.948427 153.07128 
L 739.509956 182.442111 
L 741.071485 218.096732 
L 742.633015 260.900924 
L 743.82105 299.627607 
L 743.82105 299.627607 
" clip-path="url(#p259ee98097)" style="fill: none; stroke-dasharray: 1,1.65; stroke-dashoffset: 0; stroke: #0072b2; stroke-opacity: 0.22"/>
   </g>
   <g id="line2d_67">
    <path d="M 439.696348 261.625004 
L 441.257877 237.248336 
L 442.819406 217.347128 
L 444.380935 201.36404 
L 445.942464 188.793082 
L 447.503994 179.17606 
L 449.065523 172.099204 
L 450.627052 167.189972 
L 452.188581 164.114019 
L 453.75011 162.572329 
L 455.31164 162.298507 
L 456.873169 163.056216 
L 458.434698 164.636762 
L 459.996227 166.856816 
L 461.557756 169.556269 
L 464.680815 175.857072 
L 470.926932 189.297302 
L 474.04999 195.373016 
L 475.611519 198.108379 
L 477.173049 200.612562 
L 478.734578 202.872428 
L 480.296107 204.880919 
L 481.857636 206.636203 
L 483.419165 208.140894 
L 484.980695 209.401341 
L 486.542224 210.426975 
L 488.103753 211.229714 
L 489.665282 211.823435 
L 491.226812 212.223485 
L 492.788341 212.446252 
L 494.34987 212.508777 
L 495.911399 212.428416 
L 499.034458 211.908247 
L 502.157516 211.020357 
L 505.280574 209.888915 
L 513.08822 206.664733 
L 517.772808 204.82565 
L 522.457396 203.227371 
L 527.141983 201.899453 
L 531.826571 200.794449 
L 544.318805 198.02873 
L 547.441863 197.134054 
L 550.564922 196.067137 
L 553.68798 194.788877 
L 556.811038 193.2667 
L 559.934097 191.475853 
L 563.057155 189.400354 
L 566.180214 187.033559 
L 569.303272 184.378386 
L 572.426331 181.447178 
L 575.549389 178.26125 
L 580.233977 173.071354 
L 584.918564 167.505133 
L 603.656915 144.718077 
L 608.341502 139.693377 
L 611.464561 136.62615 
L 614.587619 133.808928 
L 617.710678 131.251542 
L 620.833736 128.953652 
L 623.956795 126.904492 
L 627.079853 125.082962 
L 630.202911 123.458082 
L 634.887499 121.299749 
L 647.379733 115.915368 
L 650.502791 114.335358 
L 653.62585 112.548857 
L 656.748908 110.510052 
L 659.871966 108.184113 
L 662.995025 105.550256 
L 666.118083 102.604636 
L 669.241142 99.36295 
L 672.3642 95.862601 
L 677.048788 90.266325 
L 684.856434 80.844877 
L 687.979492 77.429515 
L 691.102551 74.454235 
L 692.66408 73.185377 
L 694.225609 72.091266 
L 695.787138 71.193141 
L 697.348668 70.51144 
L 698.910197 70.065352 
L 700.471726 69.872334 
L 702.033255 69.947559 
L 703.594784 70.303318 
L 705.156314 70.948354 
L 706.717843 71.887134 
L 708.279372 73.119053 
L 709.840901 74.637569 
L 711.40243 76.429256 
L 712.96396 78.472787 
L 716.087018 83.183824 
L 722.333135 93.534974 
L 723.894664 95.825225 
L 725.456193 97.760052 
L 727.017723 99.185834 
L 728.579252 99.92552 
L 730.140781 99.776441 
L 731.70231 98.507993 
L 733.263839 95.859166 
L 734.825369 91.535939 
L 736.386898 85.208517 
L 737.948427 76.508402 
L 739.509956 65.025314 
L 741.071485 50.303928 
L 742.633015 31.840441 
L 744.194544 9.078948 
L 744.763312 -1 
L 744.763312 -1 
" clip-path="url(#p259ee98097)" style="fill: none; stroke-dasharray: 3,1,1,1; stroke-dashoffset: 0; stroke: #0072b2; stroke-opacity: 0.22"/>
   </g>
   <g id="line2d_68">
    <path d="M 439.696348 200.310584 
L 441.257877 236.257598 
L 442.819406 264.509913 
L 444.380935 286.078563 
L 445.719732 299.627607 
M 459.569554 299.627607 
L 461.557756 289.908041 
L 467.803873 258.584601 
L 470.926932 244.840436 
L 472.488461 238.797334 
L 474.04999 233.381204 
L 475.611519 228.625412 
L 477.173049 224.547913 
L 478.734578 221.153141 
L 480.296107 218.43378 
L 481.857636 216.372392 
L 483.419165 214.942932 
L 484.980695 214.112135 
L 486.542224 213.840802 
L 488.103753 214.084968 
L 489.665282 214.796978 
L 491.226812 215.926461 
L 492.788341 217.421212 
L 494.34987 219.227994 
L 495.911399 221.293253 
L 499.034458 225.987157 
L 508.403633 241.031496 
L 511.526691 245.228551 
L 513.08822 247.018271 
L 514.64975 248.567085 
L 516.211279 249.853026 
L 517.772808 250.857562 
L 519.334337 251.56556 
L 520.895867 251.965227 
L 522.457396 252.04802 
L 524.018925 251.808543 
L 525.580454 251.244429 
L 527.141983 250.356194 
L 528.703513 249.147093 
L 530.265042 247.622957 
L 531.826571 245.792015 
L 533.3881 243.664724 
L 534.949629 241.253576 
L 536.511159 238.572912 
L 539.634217 232.468479 
L 542.757276 225.495753 
L 545.880334 217.816238 
L 549.003392 209.602549 
L 555.249509 192.284241 
L 561.495626 174.933486 
L 566.180214 162.656921 
L 569.303272 155.072155 
L 572.426331 148.090963 
L 575.549389 141.795161 
L 578.672447 136.243815 
L 581.795506 131.472946 
L 583.357035 129.385206 
L 584.918564 127.495824 
L 586.480093 125.803047 
L 588.041623 124.303835 
L 589.603152 122.993918 
L 591.164681 121.867856 
L 592.72621 120.919107 
L 594.28774 120.140097 
L 595.849269 119.522303 
L 597.410798 119.056331 
L 598.972327 118.732007 
L 600.533856 118.538466 
L 603.656915 118.497371 
L 606.779973 118.835902 
L 609.903032 119.452025 
L 614.587619 120.670063 
L 620.833736 122.317645 
L 623.956795 122.946338 
L 627.079853 123.341352 
L 630.202911 123.440845 
L 633.32597 123.197759 
L 636.449028 122.581042 
L 639.572087 121.576361 
L 642.695145 120.186299 
L 645.818204 118.429992 
L 648.941262 116.342199 
L 652.06432 113.971815 
L 656.748908 110.02249 
L 669.241142 98.975439 
L 672.3642 96.514581 
L 675.487259 94.307032 
L 678.610317 92.396987 
L 681.733375 90.809547 
L 684.856434 89.547286 
L 687.979492 88.587458 
L 691.102551 87.880108 
L 695.787138 87.114543 
L 700.471726 86.360087 
L 703.594784 85.625664 
L 706.717843 84.517579 
L 708.279372 83.771279 
L 709.840901 82.869717 
L 711.40243 81.793853 
L 712.96396 80.526339 
L 714.525489 79.052152 
L 716.087018 77.35931 
L 717.648547 75.439649 
L 719.210077 73.289692 
L 720.771606 70.911601 
L 723.894664 65.51421 
L 727.017723 59.419567 
L 733.263839 46.711781 
L 734.825369 43.904305 
L 736.386898 41.48106 
L 737.948427 39.598626 
L 739.509956 38.43922 
L 741.071485 38.213245 
L 742.633015 39.162023 
L 744.194544 41.560687 
L 745.756073 45.721262 
L 747.317602 51.995933 
L 748.879132 60.780512 
L 750.440661 72.518103 
L 750.440661 72.518103 
" clip-path="url(#p259ee98097)" style="fill: none; stroke-dasharray: 5,1; stroke-dashoffset: 0; stroke: #0072b2; stroke-opacity: 0.22"/>
   </g>
   <g id="line2d_69">
    <path d="M 439.696348 191.667823 
L 441.257877 185.212229 
L 442.819406 180.810448 
L 444.380935 178.145077 
L 445.942464 176.932864 
L 447.503994 176.922042 
L 449.065523 177.889815 
L 450.627052 179.639984 
L 452.188581 182.000708 
L 453.75011 184.822405 
L 456.873169 191.349916 
L 464.680815 208.731151 
L 467.803873 214.951913 
L 470.926932 220.420952 
L 472.488461 222.849361 
L 474.04999 225.071151 
L 475.611519 227.089513 
L 477.173049 228.910883 
L 478.734578 230.544315 
L 480.296107 232.000912 
L 481.857636 233.293323 
L 484.980695 235.441182 
L 488.103753 237.103723 
L 491.226812 238.397037 
L 494.34987 239.429181 
L 499.034458 240.688467 
L 516.211279 244.77226 
L 520.895867 245.737391 
L 524.018925 246.212085 
L 527.141983 246.475647 
L 530.265042 246.457267 
L 533.3881 246.084761 
L 534.949629 245.743542 
L 536.511159 245.28766 
L 538.072688 244.709045 
L 539.634217 244.000076 
L 541.195746 243.153658 
L 542.757276 242.163289 
L 544.318805 241.023118 
L 545.880334 239.728008 
L 547.441863 238.273579 
L 549.003392 236.656256 
L 552.126451 232.922865 
L 555.249509 228.516553 
L 558.372568 223.440587 
L 561.495626 217.713029 
L 564.618685 211.366573 
L 567.741743 204.448001 
L 570.864801 197.017273 
L 575.549389 185.071063 
L 580.233977 172.421414 
L 595.849269 129.460776 
L 600.533856 117.659067 
L 603.656915 110.363844 
L 606.779973 103.617142 
L 609.903032 97.483739 
L 613.02609 92.015458 
L 616.149149 87.250035 
L 619.272207 83.210311 
L 620.833736 81.465536 
L 622.395265 79.903796 
L 623.956795 78.523626 
L 625.518324 77.322619 
L 627.079853 76.297442 
L 628.641382 75.443872 
L 630.202911 74.756818 
L 631.764441 74.23037 
L 633.32597 73.857838 
L 634.887499 73.631808 
L 636.449028 73.544198 
L 638.010557 73.586319 
L 641.133616 74.022388 
L 644.256674 74.861122 
L 647.379733 76.018796 
L 650.502791 77.409644 
L 656.748908 80.555357 
L 662.995025 83.684513 
L 667.679613 85.736355 
L 670.802671 86.8946 
L 673.925729 87.868086 
L 677.048788 88.661391 
L 681.733375 89.563333 
L 687.979492 90.440477 
L 695.787138 91.556007 
L 706.717843 93.441168 
L 708.279372 93.551078 
L 709.840901 93.53273 
L 711.40243 93.336866 
L 712.96396 92.903936 
L 714.525489 92.16284 
L 716.087018 91.029586 
L 717.648547 89.405837 
L 719.210077 87.177367 
L 720.771606 84.2124 
L 722.333135 80.359842 
L 723.894664 75.447396 
L 725.456193 69.279549 
L 727.017723 61.635438 
L 728.579252 52.266581 
L 730.140781 40.894466 
L 731.70231 27.208004 
L 733.263839 10.860822 
L 734.218905 -1 
L 734.218905 -1 
" clip-path="url(#p259ee98097)" style="fill: none; stroke: #0072b2; stroke-opacity: 0.22; stroke-linecap: square"/>
   </g>
   <g id="line2d_70">
    <path d="M 439.696348 188.747706 
L 441.257877 206.022207 
L 442.819406 220.172555 
L 444.380935 231.580503 
L 445.942464 240.592641 
L 447.503994 247.522858 
L 449.065523 252.654687 
L 450.627052 256.24352 
L 452.188581 258.518706 
L 453.75011 259.68553 
L 455.31164 259.927087 
L 456.873169 259.406042 
L 458.434698 258.266294 
L 459.996227 256.634538 
L 461.557756 254.621736 
L 463.119286 252.324494 
L 466.242344 247.199007 
L 474.04999 233.939863 
L 477.173049 229.211222 
L 480.296107 225.031509 
L 483.419165 221.447746 
L 486.542224 218.45798 
L 489.665282 216.02575 
L 492.788341 214.091957 
L 495.911399 212.584438 
L 499.034458 211.425515 
L 502.157516 210.53778 
L 505.280574 209.84836 
L 509.965162 209.045572 
L 525.580454 206.618352 
L 531.826571 205.348005 
L 539.634217 203.501168 
L 552.126451 200.249007 
L 563.057155 197.235539 
L 569.303272 195.296072 
L 573.98786 193.614225 
L 578.672447 191.636039 
L 581.795506 190.103235 
L 584.918564 188.364335 
L 588.041623 186.390771 
L 591.164681 184.156492 
L 594.28774 181.639171 
L 597.410798 178.82137 
L 600.533856 175.691613 
L 603.656915 172.245356 
L 606.779973 168.485792 
L 609.903032 164.424474 
L 613.02609 160.081728 
L 617.710678 153.106371 
L 622.395265 145.701397 
L 638.010557 120.420338 
L 641.133616 115.769503 
L 644.256674 111.421063 
L 647.379733 107.441123 
L 650.502791 103.888488 
L 653.62585 100.812001 
L 656.748908 98.2479 
L 659.871966 96.217279 
L 661.433496 95.403896 
L 662.995025 94.723761 
L 664.556554 94.174267 
L 666.118083 93.751487 
L 667.679613 93.450138 
L 670.802671 93.183686 
L 673.925729 93.304871 
L 677.048788 93.721666 
L 683.294905 94.972788 
L 686.417963 95.530721 
L 689.541021 95.840984 
L 691.102551 95.854486 
L 692.66408 95.748212 
L 694.225609 95.504142 
L 695.787138 95.105532 
L 697.348668 94.537354 
L 698.910197 93.786793 
L 700.471726 92.843785 
L 702.033255 91.701612 
L 703.594784 90.357551 
L 705.156314 88.813578 
L 706.717843 87.077135 
L 709.840901 83.088998 
L 712.96396 78.595288 
L 717.648547 71.722008 
L 719.210077 69.676465 
L 720.771606 67.912231 
L 722.333135 66.549318 
L 723.894664 65.726611 
L 725.456193 65.603635 
L 727.017723 66.362433 
L 728.579252 68.209554 
L 730.140781 71.37816 
L 731.70231 76.130255 
L 733.263839 82.759044 
L 734.825369 91.59142 
L 736.386898 102.990589 
L 737.948427 117.358841 
L 739.509956 135.140464 
L 741.071485 156.824811 
L 742.633015 182.949528 
L 744.194544 214.103941 
L 745.756073 250.932619 
L 747.487817 299.627607 
L 747.487817 299.627607 
" clip-path="url(#p259ee98097)" style="fill: none; stroke-dasharray: 3.7,1.6; stroke-dashoffset: 0; stroke: #0072b2; stroke-opacity: 0.22"/>
   </g>
   <g id="line2d_71">
    <path d="M 455.156954 -1 
L 455.31164 4.228967 
L 456.873169 49.566936 
L 458.434698 88.256691 
L 459.996227 121.029762 
L 461.557756 148.554188 
L 463.119286 171.438872 
L 464.680815 190.237699 
L 466.242344 205.453444 
L 467.803873 217.541456 
L 469.365403 226.913151 
L 470.926932 233.939301 
L 472.488461 238.953139 
L 474.04999 242.253286 
L 475.611519 244.106497 
L 477.173049 244.750257 
L 478.734578 244.395202 
L 480.296107 243.227402 
L 481.857636 241.410491 
L 483.419165 239.087665 
L 484.980695 236.383543 
L 488.103753 230.247321 
L 495.911399 214.095007 
L 499.034458 208.296264 
L 502.157516 203.175282 
L 505.280574 198.806679 
L 506.842104 196.910612 
L 508.403633 195.20395 
L 509.965162 193.681754 
L 511.526691 192.337301 
L 513.08822 191.16246 
L 514.64975 190.148027 
L 516.211279 189.284011 
L 517.772808 188.559893 
L 520.895867 187.487916 
L 524.018925 186.844932 
L 527.141983 186.546303 
L 530.265042 186.513059 
L 533.3881 186.673775 
L 538.072688 187.14301 
L 550.564922 188.612034 
L 555.249509 188.912855 
L 559.934097 188.940639 
L 563.057155 188.769796 
L 566.180214 188.421111 
L 569.303272 187.871261 
L 572.426331 187.095996 
L 575.549389 186.070181 
L 578.672447 184.768118 
L 581.795506 183.164107 
L 584.918564 181.233231 
L 588.041623 178.952324 
L 591.164681 176.301082 
L 594.28774 173.263273 
L 597.410798 169.827985 
L 600.533856 165.990868 
L 603.656915 161.755308 
L 606.779973 157.133477 
L 609.903032 152.147206 
L 613.02609 146.828632 
L 617.710678 138.324263 
L 623.956795 126.310315 
L 633.32597 108.082856 
L 638.010557 99.534709 
L 641.133616 94.265205 
L 644.256674 89.448005 
L 647.379733 85.169084 
L 650.502791 81.503817 
L 652.06432 79.921018 
L 653.62585 78.513149 
L 655.187379 77.284938 
L 656.748908 76.239735 
L 658.310437 75.379397 
L 659.871966 74.704184 
L 661.433496 74.212655 
L 662.995025 73.901576 
L 664.556554 73.765844 
L 666.118083 73.798409 
L 667.679613 73.990225 
L 669.241142 74.330202 
L 670.802671 74.805188 
L 673.925729 76.097266 
L 677.048788 77.720412 
L 684.856434 82.001786 
L 686.417963 82.679885 
L 687.979492 83.230275 
L 689.541021 83.622984 
L 691.102551 83.828434 
L 692.66408 83.817954 
L 694.225609 83.564349 
L 695.787138 83.042539 
L 697.348668 82.230273 
L 698.910197 81.108916 
L 700.471726 79.664317 
L 702.033255 77.887766 
L 703.594784 75.777043 
L 705.156314 73.337551 
L 706.717843 70.58357 
L 708.279372 67.539601 
L 711.40243 60.739703 
L 717.648547 46.240146 
L 719.210077 43.049112 
L 720.771606 40.333945 
L 722.333135 38.292434 
L 723.894664 37.153284 
L 725.456193 37.179057 
L 727.017723 38.669286 
L 728.579252 41.963794 
L 730.140781 47.446209 
L 731.70231 55.547694 
L 733.263839 66.750893 
L 734.825369 81.594104 
L 736.386898 100.675692 
L 737.948427 124.658745 
L 739.509956 154.275986 
L 741.071485 190.334948 
L 742.633015 233.723429 
L 744.558001 299.627607 
L 744.558001 299.627607 
" clip-path="url(#p259ee98097)" style="fill: none; stroke-dasharray: 6.4,1.6,1,1.6; stroke-dashoffset: 0; stroke: #0072b2; stroke-opacity: 0.22"/>
   </g>
   <g id="line2d_72">
    <path d="M 439.696348 172.728265 
L 441.257877 176.509808 
L 442.819406 179.972561 
L 444.380935 183.133594 
L 445.942464 186.010046 
L 447.503994 188.619018 
L 449.065523 190.97748 
L 450.627052 193.102179 
L 452.188581 195.009568 
L 453.75011 196.715732 
L 455.31164 198.236331 
L 456.873169 199.586543 
L 458.434698 200.781021 
L 461.557756 202.758523 
L 464.680815 204.274178 
L 467.803873 205.422991 
L 470.926932 206.289167 
L 474.04999 206.945937 
L 478.734578 207.671875 
L 486.542224 208.568882 
L 497.472928 209.842743 
L 519.334337 212.63151 
L 524.018925 212.925131 
L 528.703513 212.971505 
L 533.3881 212.711751 
L 536.511159 212.34306 
L 539.634217 211.803011 
L 542.757276 211.081285 
L 545.880334 210.169916 
L 549.003392 209.063335 
L 552.126451 207.758363 
L 555.249509 206.254136 
L 558.372568 204.551993 
L 561.495626 202.655306 
L 564.618685 200.569283 
L 569.303272 197.100515 
L 573.98786 193.249768 
L 578.672447 189.050188 
L 583.357035 184.537579 
L 588.041623 179.748399 
L 594.28774 172.993253 
L 600.533856 165.884729 
L 608.341502 156.597692 
L 616.149149 146.951948 
L 625.518324 135.002795 
L 638.010557 118.644835 
L 650.502791 102.317047 
L 656.748908 94.50086 
L 661.433496 88.966569 
L 666.118083 83.846316 
L 669.241142 80.730859 
L 672.3642 77.905605 
L 675.487259 75.416974 
L 678.610317 73.311865 
L 681.733375 71.636056 
L 683.294905 70.972648 
L 684.856434 70.432178 
L 686.417963 70.019077 
L 687.979492 69.737241 
L 689.541021 69.589924 
L 691.102551 69.579624 
L 692.66408 69.707954 
L 694.225609 69.975507 
L 695.787138 70.381705 
L 697.348668 70.924647 
L 698.910197 71.600927 
L 702.033255 73.331282 
L 705.156314 75.508239 
L 708.279372 78.030074 
L 716.087018 84.743925 
L 717.648547 85.915228 
L 719.210077 86.935577 
L 720.771606 87.754383 
L 722.333135 88.315116 
L 723.894664 88.554855 
L 725.456193 88.403809 
L 727.017723 87.784817 
L 728.579252 86.612821 
L 730.140781 84.794314 
L 731.70231 82.226759 
L 733.263839 78.797979 
L 734.825369 74.385522 
L 736.386898 68.855991 
L 737.948427 62.064342 
L 739.509956 53.853159 
L 741.071485 44.051881 
L 742.633015 32.476009 
L 744.194544 18.92627 
L 746.11619 -1 
L 746.11619 -1 
" clip-path="url(#p259ee98097)" style="fill: none; stroke-dasharray: 1,1.65; stroke-dashoffset: 0; stroke: #0072b2; stroke-opacity: 0.22"/>
   </g>
   <g id="line2d_73">
    <path d="M 439.696348 153.896668 
L 442.819406 167.462746 
L 449.065523 194.921834 
L 452.188581 207.373741 
L 455.31164 218.39748 
L 456.873169 223.302425 
L 458.434698 227.782484 
L 459.996227 231.831716 
L 461.557756 235.450435 
L 463.119286 238.644336 
L 464.680815 241.423696 
L 466.242344 243.802626 
L 467.803873 245.798401 
L 469.365403 247.430841 
L 470.926932 248.721747 
L 472.488461 249.694395 
L 474.04999 250.373076 
L 475.611519 250.782689 
L 477.173049 250.948369 
L 478.734578 250.895166 
L 480.296107 250.647761 
L 481.857636 250.230212 
L 483.419165 249.665749 
L 486.542224 248.18377 
L 489.665282 246.364836 
L 494.34987 243.306555 
L 502.157516 238.175505 
L 506.842104 235.418184 
L 511.526691 232.99878 
L 516.211279 230.889054 
L 522.457396 228.385124 
L 530.265042 225.259371 
L 534.949629 223.097792 
L 538.072688 221.445251 
L 541.195746 219.581689 
L 544.318805 217.4802 
L 547.441863 215.123124 
L 550.564922 212.50281 
L 553.68798 209.622004 
L 556.811038 206.493859 
L 561.495626 201.391272 
L 566.180214 195.903606 
L 583.357035 175.274961 
L 586.480093 171.943118 
L 589.603152 168.880273 
L 592.72621 166.132152 
L 595.849269 163.736097 
L 598.972327 161.719435 
L 602.095386 160.098064 
L 605.218444 158.875295 
L 608.341502 158.040978 
L 611.464561 157.570959 
L 614.587619 157.426904 
L 617.710678 157.556495 
L 620.833736 157.894046 
L 633.32597 159.611513 
L 636.449028 159.631189 
L 639.572087 159.270904 
L 641.133616 158.914557 
L 642.695145 158.423373 
L 644.256674 157.784913 
L 645.818204 156.98736 
L 647.379733 156.019638 
L 648.941262 154.871541 
L 650.502791 153.533862 
L 652.06432 151.998513 
L 653.62585 150.25866 
L 655.187379 148.308842 
L 656.748908 146.145095 
L 658.310437 143.765069 
L 659.871966 141.168147 
L 662.995025 135.330417 
L 666.118083 128.665458 
L 669.241142 121.240569 
L 672.3642 113.158905 
L 677.048788 100.121878 
L 686.417963 73.277006 
L 689.541021 65.038964 
L 692.66408 57.647857 
L 694.225609 54.367401 
L 695.787138 51.415457 
L 697.348668 48.829901 
L 698.910197 46.647199 
L 700.471726 44.901795 
L 702.033255 43.625449 
L 703.594784 42.846503 
L 705.156314 42.589086 
L 706.717843 42.872241 
L 708.279372 43.708986 
L 709.840901 45.105289 
L 711.40243 47.058968 
L 712.96396 49.5585 
L 714.525489 52.581745 
L 716.087018 56.09457 
L 717.648547 60.049381 
L 720.771606 69.01775 
L 727.017723 88.279521 
L 728.579252 92.506883 
L 730.140781 96.098645 
L 731.70231 98.801532 
L 733.263839 100.327713 
L 734.825369 100.35195 
L 736.386898 98.508584 
L 737.948427 94.388354 
L 739.509956 87.535057 
L 741.071485 77.442026 
L 742.633015 63.548425 
L 744.194544 45.235369 
L 745.756073 21.821835 
L 746.973954 -1 
L 746.973954 -1 
" clip-path="url(#p259ee98097)" style="fill: none; stroke-dasharray: 3,1,1,1; stroke-dashoffset: 0; stroke: #0072b2; stroke-opacity: 0.22"/>
   </g>
   <g id="line2d_74">
    <path d="M 439.696348 235.225281 
L 441.257877 237.136306 
L 442.819406 236.750125 
L 444.380935 234.552307 
L 445.942464 230.970953 
L 447.503994 226.381205 
L 449.065523 221.109525 
L 456.873169 193.029917 
L 458.434698 188.276409 
L 459.996227 184.074343 
L 461.557756 180.487898 
L 463.119286 177.561385 
L 464.680815 175.321532 
L 466.242344 173.779597 
L 467.803873 172.93335 
L 469.365403 172.768896 
L 470.926932 173.262369 
L 472.488461 174.381494 
L 474.04999 176.087019 
L 475.611519 178.334042 
L 477.173049 181.073209 
L 478.734578 184.251814 
L 480.296107 187.814803 
L 483.419165 195.86725 
L 486.542224 204.77505 
L 495.911399 232.339047 
L 499.034458 240.564522 
L 502.157516 247.813229 
L 503.719045 251.002853 
L 505.280574 253.873554 
L 506.842104 256.408102 
L 508.403633 258.592874 
L 509.965162 260.417769 
L 511.526691 261.876102 
L 513.08822 262.964471 
L 514.64975 263.682612 
L 516.211279 264.03324 
L 517.772808 264.02187 
L 519.334337 263.656636 
L 520.895867 262.948094 
L 522.457396 261.909021 
L 524.018925 260.554207 
L 525.580454 258.900247 
L 527.141983 256.965327 
L 528.703513 254.769009 
L 530.265042 252.332022 
L 533.3881 246.823525 
L 536.511159 240.621065 
L 539.634217 233.911484 
L 545.880334 219.710963 
L 552.126451 205.614564 
L 555.249509 198.979527 
L 558.372568 192.780213 
L 561.495626 187.108007 
L 564.618685 182.029482 
L 567.741743 177.585783 
L 570.864801 173.792724 
L 573.98786 170.641547 
L 575.549389 169.297535 
L 578.672447 167.042544 
L 581.795506 165.310471 
L 584.918564 164.020982 
L 588.041623 163.0794 
L 591.164681 162.380095 
L 600.533856 160.59211 
L 603.656915 159.715632 
L 606.779973 158.518979 
L 609.903032 156.90897 
L 611.464561 155.923718 
L 613.02609 154.806913 
L 614.587619 153.551454 
L 617.710678 150.602437 
L 620.833736 147.045798 
L 623.956795 142.873176 
L 627.079853 138.099808 
L 630.202911 132.764989 
L 633.32597 126.931856 
L 636.449028 120.686491 
L 641.133616 110.785749 
L 650.502791 90.769601 
L 653.62585 84.608181 
L 656.748908 78.976575 
L 659.871966 74.03526 
L 661.433496 71.870808 
L 662.995025 69.933863 
L 664.556554 68.240445 
L 666.118083 66.805139 
L 667.679613 65.64091 
L 669.241142 64.758917 
L 670.802671 64.168343 
L 672.3642 63.876215 
L 673.925729 63.887252 
L 675.487259 64.203712 
L 677.048788 64.825254 
L 678.610317 65.748822 
L 680.171846 66.968537 
L 681.733375 68.475621 
L 683.294905 70.258328 
L 684.856434 72.301917 
L 686.417963 74.588644 
L 689.541021 79.80569 
L 692.66408 85.709232 
L 697.348668 95.310266 
L 702.033255 104.939262 
L 705.156314 110.852023 
L 706.717843 113.538078 
L 708.279372 115.993975 
L 709.840901 118.185243 
L 711.40243 120.080898 
L 712.96396 121.654464 
L 714.525489 122.885102 
L 716.087018 123.758836 
L 717.648547 124.269904 
L 719.210077 124.422217 
L 720.771606 124.230945 
L 722.333135 123.724237 
L 723.894664 122.945072 
L 725.456193 121.953259 
L 730.140781 118.598635 
L 731.70231 117.769369 
L 733.263839 117.359703 
L 734.825369 117.581239 
L 736.386898 118.680981 
L 737.948427 120.944734 
L 739.509956 124.700712 
L 741.071485 130.323366 
L 742.633015 138.237439 
L 744.194544 148.922253 
L 745.756073 162.916248 
L 747.317602 180.821765 
L 748.879132 203.310106 
L 750.440661 231.126852 
L 750.440661 231.126852 
" clip-path="url(#p259ee98097)" style="fill: none; stroke-dasharray: 5,1; stroke-dashoffset: 0; stroke: #0072b2; stroke-opacity: 0.22"/>
   </g>
   <g id="line2d_75">
    <path d="M 439.696348 188.057734 
L 441.257877 185.713736 
L 442.819406 184.372447 
L 444.380935 183.873662 
L 445.942464 184.074459 
L 447.503994 184.847852 
L 449.065523 186.081513 
L 450.627052 187.676572 
L 452.188581 189.54648 
L 455.31164 193.819941 
L 463.119286 205.186158 
L 466.242344 209.298388 
L 469.365403 212.944823 
L 472.488461 216.070386 
L 475.611519 218.664963 
L 478.734578 220.750667 
L 481.857636 222.37123 
L 484.980695 223.583315 
L 488.103753 224.449517 
L 491.226812 225.032876 
L 494.34987 225.392704 
L 499.034458 225.625935 
L 503.719045 225.611481 
L 509.965162 225.350805 
L 516.211279 224.865726 
L 520.895867 224.314776 
L 525.580454 223.528904 
L 528.703513 222.830777 
L 531.826571 221.959714 
L 534.949629 220.886714 
L 538.072688 219.584135 
L 541.195746 218.02699 
L 544.318805 216.194071 
L 547.441863 214.068909 
L 550.564922 211.640527 
L 553.68798 208.904001 
L 556.811038 205.860808 
L 559.934097 202.518973 
L 563.057155 198.893004 
L 566.180214 195.003651 
L 570.864801 188.735311 
L 575.549389 182.04618 
L 581.795506 172.701748 
L 594.28774 153.859443 
L 598.972327 147.181291 
L 603.656915 140.90794 
L 608.341502 135.130316 
L 611.464561 131.584845 
L 614.587619 128.296088 
L 617.710678 125.266007 
L 620.833736 122.489321 
L 623.956795 119.953656 
L 627.079853 117.639928 
L 631.764441 114.528876 
L 636.449028 111.752992 
L 642.695145 108.356669 
L 652.06432 103.289759 
L 656.748908 100.525097 
L 661.433496 97.511895 
L 666.118083 94.240871 
L 672.3642 89.5839 
L 678.610317 84.90992 
L 681.733375 82.737895 
L 684.856434 80.796001 
L 687.979492 79.189289 
L 689.541021 78.546821 
L 691.102551 78.031046 
L 692.66408 77.656667 
L 694.225609 77.438262 
L 695.787138 77.390056 
L 697.348668 77.525676 
L 698.910197 77.857867 
L 700.471726 78.398189 
L 702.033255 79.156673 
L 703.594784 80.141449 
L 705.156314 81.358335 
L 706.717843 82.81039 
L 708.279372 84.497424 
L 709.840901 86.415475 
L 711.40243 88.556232 
L 714.525489 93.447122 
L 717.648547 98.991944 
L 725.456193 113.439331 
L 727.017723 115.885688 
L 728.579252 117.962186 
L 730.140781 119.544669 
L 731.70231 120.492156 
L 733.263839 120.645394 
L 734.825369 119.825344 
L 736.386898 117.831568 
L 737.948427 114.440539 
L 739.509956 109.403842 
L 741.071485 102.446301 
L 742.633015 93.263985 
L 744.194544 81.522128 
L 745.756073 66.852934 
L 747.317602 48.853273 
L 748.879132 27.082266 
L 750.440661 1.05875 
L 750.440661 1.05875 
" clip-path="url(#p259ee98097)" style="fill: none; stroke: #0072b2; stroke-opacity: 0.22; stroke-linecap: square"/>
   </g>
   <g id="line2d_76">
    <path d="M 439.828897 -1 
L 441.257877 72.535651 
L 442.819406 139.120379 
L 444.380935 193.505483 
L 445.942464 237.133036 
L 447.503994 271.32287 
L 449.260259 299.627607 
M 464.862916 299.627607 
L 467.803873 278.234777 
L 472.488461 243.909915 
L 475.611519 223.095684 
L 477.173049 213.70013 
L 478.734578 205.09128 
L 480.296107 197.325782 
L 481.857636 190.441069 
L 483.419165 184.457556 
L 484.980695 179.38069 
L 486.542224 175.202851 
L 488.103753 171.905117 
L 489.665282 169.458891 
L 491.226812 167.827412 
L 492.788341 166.967135 
L 494.34987 166.829002 
L 495.911399 167.359607 
L 497.472928 168.50225 
L 499.034458 170.197903 
L 500.595987 172.386078 
L 502.157516 175.005605 
L 503.719045 177.995338 
L 506.842104 184.844587 
L 509.965162 192.46688 
L 517.772808 212.164914 
L 520.895867 219.376629 
L 524.018925 225.790213 
L 525.580454 228.632988 
L 527.141983 231.205605 
L 528.703513 233.491748 
L 530.265042 235.478423 
L 531.826571 237.155842 
L 533.3881 238.517301 
L 534.949629 239.559025 
L 536.511159 240.280019 
L 538.072688 240.681896 
L 539.634217 240.768707 
L 541.195746 240.546751 
L 542.757276 240.024396 
L 544.318805 239.211882 
L 545.880334 238.121134 
L 547.441863 236.765567 
L 549.003392 235.159893 
L 550.564922 233.319931 
L 552.126451 231.262424 
L 555.249509 226.565245 
L 558.372568 221.213873 
L 561.495626 215.357433 
L 566.180214 205.947605 
L 578.672447 180.31047 
L 583.357035 171.486275 
L 586.480093 166.028869 
L 589.603152 160.950968 
L 592.72621 156.265486 
L 595.849269 151.968124 
L 598.972327 148.038939 
L 602.095386 144.444312 
L 605.218444 141.139245 
L 609.903032 136.6051 
L 616.149149 131.027587 
L 623.956795 124.109129 
L 628.641382 119.661727 
L 633.32597 114.83536 
L 638.010557 109.572786 
L 642.695145 103.887778 
L 648.941262 95.812269 
L 658.310437 83.517416 
L 662.995025 77.829923 
L 666.118083 74.400485 
L 669.241142 71.357137 
L 672.3642 68.7748 
L 673.925729 67.67688 
L 675.487259 66.716824 
L 677.048788 65.900018 
L 678.610317 65.230578 
L 680.171846 64.711223 
L 681.733375 64.343148 
L 683.294905 64.125913 
L 684.856434 64.057335 
L 686.417963 64.133391 
L 687.979492 64.348144 
L 689.541021 64.69367 
L 692.66408 65.735155 
L 695.787138 67.153461 
L 700.471726 69.679446 
L 705.156314 72.151253 
L 708.279372 73.425073 
L 709.840901 73.866385 
L 711.40243 74.139808 
L 712.96396 74.217903 
L 714.525489 74.07443 
L 716.087018 73.68498 
L 717.648547 73.027676 
L 719.210077 72.083952 
L 720.771606 70.839424 
L 722.333135 69.284833 
L 723.894664 67.417099 
L 725.456193 65.240461 
L 727.017723 62.767723 
L 728.579252 60.021611 
L 731.70231 53.858741 
L 737.948427 40.723956 
L 739.509956 37.874789 
L 741.071485 35.494748 
L 742.633015 33.777867 
L 744.194544 32.949012 
L 745.756073 33.266846 
L 747.317602 35.026993 
L 748.879132 38.565393 
L 750.440661 44.261867 
L 750.440661 44.261867 
" clip-path="url(#p259ee98097)" style="fill: none; stroke-dasharray: 3.7,1.6; stroke-dashoffset: 0; stroke: #0072b2; stroke-opacity: 0.22"/>
   </g>
   <g id="line2d_77">
    <path d="M 443.92726 -1 
L 444.380935 10.843229 
L 445.942464 46.075837 
L 447.503994 76.400205 
L 449.065523 102.383412 
L 450.627052 124.540448 
L 452.188581 143.337859 
L 453.75011 159.197216 
L 455.31164 172.498395 
L 456.873169 183.582682 
L 458.434698 192.755715 
L 459.996227 200.290254 
L 461.557756 206.428808 
L 463.119286 211.386098 
L 464.680815 215.351388 
L 466.242344 218.49067 
L 467.803873 220.948717 
L 469.365403 222.851013 
L 470.926932 224.305558 
L 472.488461 225.404554 
L 474.04999 226.225981 
L 475.611519 226.835072 
L 478.734578 227.621525 
L 481.857636 228.08032 
L 488.103753 228.680403 
L 495.911399 229.247036 
L 499.034458 229.309933 
L 502.157516 229.179639 
L 505.280574 228.786054 
L 508.403633 228.066731 
L 511.526691 226.972026 
L 514.64975 225.468386 
L 517.772808 223.540066 
L 520.895867 221.189543 
L 524.018925 218.436878 
L 527.141983 215.318228 
L 530.265042 211.883736 
L 534.949629 206.276838 
L 542.757276 196.328056 
L 549.003392 188.518439 
L 552.126451 184.863458 
L 555.249509 181.457835 
L 558.372568 178.351539 
L 561.495626 175.582917 
L 564.618685 173.177588 
L 567.741743 171.147742 
L 570.864801 169.491874 
L 573.98786 168.194929 
L 577.110918 167.228847 
L 580.233977 166.553481 
L 583.357035 166.117855 
L 588.041623 165.780081 
L 597.410798 165.359375 
L 600.533856 165.016059 
L 603.656915 164.446093 
L 606.779973 163.580556 
L 609.903032 162.357819 
L 613.02609 160.725652 
L 616.149149 158.643138 
L 619.272207 156.082333 
L 622.395265 153.029621 
L 625.518324 149.486732 
L 628.641382 145.471372 
L 631.764441 141.017443 
L 634.887499 136.17481 
L 639.572087 128.328441 
L 645.818204 117.227903 
L 652.06432 106.148782 
L 655.187379 100.900144 
L 658.310437 96.000015 
L 661.433496 91.560285 
L 664.556554 87.684907 
L 666.118083 85.988167 
L 667.679613 84.465837 
L 669.241142 83.126873 
L 670.802671 81.978979 
L 672.3642 81.028492 
L 673.925729 80.280271 
L 675.487259 79.737592 
L 677.048788 79.402053 
L 678.610317 79.273486 
L 680.171846 79.349884 
L 681.733375 79.627339 
L 683.294905 80.099992 
L 684.856434 80.76001 
L 686.417963 81.597564 
L 687.979492 82.600848 
L 691.102551 85.047669 
L 694.225609 87.968188 
L 698.910197 92.882692 
L 703.594784 97.878436 
L 706.717843 100.924526 
L 709.840901 103.520415 
L 711.40243 104.597018 
L 712.96396 105.503099 
L 714.525489 106.22585 
L 716.087018 106.756976 
L 717.648547 107.093591 
L 719.210077 107.239212 
L 720.771606 107.204824 
L 722.333135 107.010044 
L 725.456193 106.268553 
L 728.579252 105.394491 
L 730.140781 105.087594 
L 731.70231 104.99672 
L 733.263839 105.242915 
L 734.825369 105.968937 
L 736.386898 107.341444 
L 737.948427 109.553315 
L 739.509956 112.826125 
L 741.071485 117.412769 
L 742.633015 123.600242 
L 744.194544 131.712591 
L 745.756073 142.114024 
L 747.317602 155.212214 
L 748.879132 171.46177 
L 750.440661 191.367916 
L 750.440661 191.367916 
" clip-path="url(#p259ee98097)" style="fill: none; stroke-dasharray: 6.4,1.6,1,1.6; stroke-dashoffset: 0; stroke: #0072b2; stroke-opacity: 0.22"/>
   </g>
   <g id="line2d_78">
    <path d="M 439.696348 183.488888 
L 441.257877 196.143656 
L 442.819406 206.139625 
L 444.380935 213.859249 
L 445.942464 219.646381 
L 447.503994 223.809046 
L 449.065523 226.622068 
L 450.627052 228.329563 
L 452.188581 229.147303 
L 453.75011 229.264954 
L 455.31164 228.848184 
L 456.873169 228.040666 
L 458.434698 226.965958 
L 461.557756 224.419176 
L 464.680815 221.858885 
L 466.242344 220.716099 
L 467.803873 219.717371 
L 469.365403 218.889578 
L 470.926932 218.250973 
L 472.488461 217.812237 
L 474.04999 217.57744 
L 475.611519 217.544955 
L 477.173049 217.708279 
L 478.734578 218.056808 
L 480.296107 218.57654 
L 481.857636 219.250721 
L 484.980695 220.985162 
L 488.103753 223.092242 
L 497.472928 229.867535 
L 500.595987 231.721221 
L 503.719045 233.138596 
L 505.280574 233.650018 
L 506.842104 234.015362 
L 508.403633 234.22588 
L 509.965162 234.274582 
L 511.526691 234.156219 
L 513.08822 233.867268 
L 514.64975 233.40589 
L 516.211279 232.77188 
L 517.772808 231.966609 
L 519.334337 230.992949 
L 520.895867 229.855195 
L 522.457396 228.558979 
L 525.580454 225.519814 
L 528.703513 221.94358 
L 531.826571 217.913374 
L 534.949629 213.523777 
L 539.634217 206.491133 
L 549.003392 192.138067 
L 552.126451 187.647548 
L 555.249509 183.458519 
L 558.372568 179.648515 
L 561.495626 176.282293 
L 564.618685 173.410447 
L 567.741743 171.068433 
L 569.303272 170.1029 
L 570.864801 169.275975 
L 572.426331 168.587636 
L 573.98786 168.036869 
L 575.549389 167.621692 
L 577.110918 167.339165 
L 578.672447 167.185424 
L 580.233977 167.155703 
L 581.795506 167.244375 
L 584.918564 167.750311 
L 588.041623 168.642545 
L 591.164681 169.84952 
L 594.28774 171.290623 
L 600.533856 174.519538 
L 605.218444 176.873794 
L 608.341502 178.232342 
L 611.464561 179.31419 
L 614.587619 180.032438 
L 616.149149 180.230004 
L 617.710678 180.307514 
L 619.272207 180.256487 
L 620.833736 180.06914 
L 622.395265 179.738432 
L 623.956795 179.258114 
L 625.518324 178.622771 
L 627.079853 177.82786 
L 628.641382 176.869745 
L 630.202911 175.745725 
L 631.764441 174.454057 
L 633.32597 172.993976 
L 634.887499 171.365708 
L 638.010557 167.610509 
L 641.133616 163.210236 
L 644.256674 158.202413 
L 647.379733 152.639716 
L 650.502791 146.588998 
L 653.62585 140.12993 
L 658.310437 129.876761 
L 672.3642 98.373865 
L 675.487259 91.921814 
L 678.610317 85.889775 
L 681.733375 80.361972 
L 684.856434 75.408057 
L 687.979492 71.080399 
L 691.102551 67.411795 
L 692.66408 65.829092 
L 694.225609 64.413729 
L 695.787138 63.163643 
L 697.348668 62.075361 
L 698.910197 61.144019 
L 700.471726 60.363397 
L 702.033255 59.725982 
L 703.594784 59.223045 
L 706.717843 58.580258 
L 709.840901 58.345486 
L 712.96396 58.41918 
L 717.648547 58.886566 
L 730.140781 60.624929 
L 733.263839 61.272066 
L 734.825369 61.736445 
L 736.386898 62.351167 
L 737.948427 63.17131 
L 739.509956 64.263577 
L 741.071485 65.707599 
L 742.633015 67.597332 
L 744.194544 70.042534 
L 745.756073 73.170354 
L 747.317602 77.127007 
L 748.879132 82.079565 
L 750.440661 88.217851 
L 750.440661 88.217851 
" clip-path="url(#p259ee98097)" style="fill: none; stroke-dasharray: 1,1.65; stroke-dashoffset: 0; stroke: #0072b2; stroke-opacity: 0.22"/>
   </g>
   <g id="line2d_79">
    <path d="M 441.066917 -1 
L 441.257877 12.764988 
L 442.819406 106.975869 
L 444.380935 184.881037 
L 445.942464 248.356071 
L 447.524039 299.627607 
M 473.67108 299.627607 
L 475.611519 282.929518 
L 478.734578 258.408658 
L 480.296107 247.425619 
L 481.857636 237.386379 
L 483.419165 228.331659 
L 484.980695 220.28263 
L 486.542224 213.24335 
L 488.103753 207.203022 
L 489.665282 202.138091 
L 491.226812 198.014167 
L 492.788341 194.787804 
L 494.34987 192.408123 
L 495.911399 190.818305 
L 497.472928 189.956941 
L 499.034458 189.75927 
L 500.595987 190.158286 
L 502.157516 191.08574 
L 503.719045 192.473036 
L 505.280574 194.252025 
L 506.842104 196.355707 
L 509.965162 201.278498 
L 514.64975 209.550593 
L 517.772808 215.033571 
L 520.895867 220.071725 
L 522.457396 222.332048 
L 524.018925 224.379202 
L 525.580454 226.187907 
L 527.141983 227.736987 
L 528.703513 229.009282 
L 530.265042 229.991527 
L 531.826571 230.674213 
L 533.3881 231.051426 
L 534.949629 231.120658 
L 536.511159 230.882623 
L 538.072688 230.341039 
L 539.634217 229.502414 
L 541.195746 228.37582 
L 542.757276 226.972657 
L 544.318805 225.306418 
L 545.880334 223.392454 
L 547.441863 221.247729 
L 550.564922 216.340513 
L 553.68798 210.743868 
L 556.811038 204.627958 
L 561.495626 194.861533 
L 569.303272 178.395144 
L 572.426331 172.177031 
L 575.549389 166.353341 
L 578.672447 161.016798 
L 581.795506 156.236046 
L 584.918564 152.054863 
L 588.041623 148.492173 
L 591.164681 145.542793 
L 594.28774 143.178862 
L 597.410798 141.351884 
L 600.533856 139.995308 
L 603.656915 139.027547 
L 606.779973 138.355358 
L 611.464561 137.678486 
L 617.710678 136.840469 
L 620.833736 136.218582 
L 623.956795 135.337711 
L 627.079853 134.1193 
L 630.202911 132.499698 
L 633.32597 130.432566 
L 636.449028 127.890729 
L 639.572087 124.86743 
L 642.695145 121.376928 
L 645.818204 117.454386 
L 648.941262 113.155041 
L 653.62585 106.165314 
L 666.118083 86.766929 
L 669.241142 82.365684 
L 672.3642 78.370263 
L 675.487259 74.877135 
L 678.610317 71.964497 
L 680.171846 70.744014 
L 681.733375 69.687073 
L 683.294905 68.79607 
L 684.856434 68.071385 
L 686.417963 67.511275 
L 687.979492 67.111796 
L 689.541021 66.866744 
L 691.102551 66.767617 
L 692.66408 66.803613 
L 695.787138 67.226427 
L 698.910197 68.004566 
L 708.279372 70.740065 
L 709.840901 70.997172 
L 711.40243 71.131899 
L 712.96396 71.12241 
L 714.525489 70.949567 
L 716.087018 70.597827 
L 717.648547 70.056242 
L 719.210077 69.319572 
L 720.771606 68.389504 
L 722.333135 67.275996 
L 725.456193 64.588771 
L 731.70231 58.741002 
L 733.263839 57.660232 
L 734.825369 56.979387 
L 736.386898 56.86647 
L 737.948427 57.519342 
L 739.509956 59.16887 
L 741.071485 62.082297 
L 742.633015 66.566826 
L 744.194544 72.973451 
L 745.756073 81.701023 
L 747.317602 93.200572 
L 748.879132 107.979901 
L 750.440661 126.608443 
L 750.440661 126.608443 
" clip-path="url(#p259ee98097)" style="fill: none; stroke-dasharray: 3,1,1,1; stroke-dashoffset: 0; stroke: #0072b2; stroke-opacity: 0.22"/>
   </g>
   <g id="line2d_80">
    <path d="M 439.696348 215.972317 
L 441.257877 208.771137 
L 442.819406 203.475581 
L 444.380935 199.81578 
L 445.942464 197.548118 
L 447.503994 196.453355 
L 449.065523 196.334849 
L 450.627052 197.016873 
L 452.188581 198.343018 
L 453.75011 200.174694 
L 455.31164 202.389707 
L 458.434698 207.554989 
L 466.242344 221.223297 
L 469.365403 225.933734 
L 470.926932 228.006021 
L 472.488461 229.868436 
L 474.04999 231.511222 
L 475.611519 232.928849 
L 477.173049 234.119459 
L 478.734578 235.084366 
L 480.296107 235.82759 
L 481.857636 236.35543 
L 483.419165 236.676076 
L 484.980695 236.799257 
L 486.542224 236.735915 
L 488.103753 236.49792 
L 489.665282 236.097805 
L 491.226812 235.548536 
L 492.788341 234.8633 
L 495.911399 233.137719 
L 499.034458 231.024609 
L 502.157516 228.62156 
L 506.842104 224.664242 
L 524.018925 209.651284 
L 530.265042 204.69611 
L 536.511159 200.061413 
L 545.880334 193.449268 
L 555.249509 186.78538 
L 561.495626 182.092766 
L 567.741743 177.110784 
L 573.98786 171.827068 
L 581.795506 164.86555 
L 595.849269 151.874807 
L 605.218444 143.347692 
L 614.587619 135.14171 
L 634.887499 117.613245 
L 641.133616 111.772344 
L 645.818204 107.114027 
L 650.502791 102.198388 
L 656.748908 95.296944 
L 667.679613 83.02028 
L 670.802671 79.767236 
L 673.925729 76.793578 
L 677.048788 74.214862 
L 678.610317 73.113493 
L 680.171846 72.160231 
L 681.733375 71.372946 
L 683.294905 70.769993 
L 684.856434 70.370075 
L 686.417963 70.192084 
L 687.979492 70.254911 
L 689.541021 70.577242 
L 691.102551 71.177322 
L 692.66408 72.07269 
L 694.225609 73.279885 
L 695.787138 74.814125 
L 697.348668 76.688945 
L 698.910197 78.915803 
L 700.471726 81.503649 
L 702.033255 84.458455 
L 703.594784 87.782697 
L 705.156314 91.474807 
L 706.717843 95.528558 
L 708.279372 99.932423 
L 711.40243 109.713575 
L 714.525489 120.59185 
L 719.210077 138.129674 
L 722.333135 149.792669 
L 725.456193 160.478275 
L 727.017723 165.119359 
L 728.579252 169.076864 
L 730.140781 172.163086 
L 731.70231 174.167582 
L 733.263839 174.855361 
L 734.825369 173.964972 
L 736.386898 171.206494 
L 737.948427 166.259413 
L 739.509956 158.770393 
L 741.071485 148.350926 
L 742.633015 134.574865 
L 744.194544 116.975836 
L 745.756073 95.044518 
L 747.317602 68.225789 
L 748.879132 35.915744 
L 750.378071 -1 
L 750.378071 -1 
" clip-path="url(#p259ee98097)" style="fill: none; stroke-dasharray: 5,1; stroke-dashoffset: 0; stroke: #0072b2; stroke-opacity: 0.22"/>
   </g>
   <g id="line2d_81">
    <path d="M 439.696348 87.214496 
L 441.257877 103.467949 
L 442.819406 118.339262 
L 444.380935 131.862179 
L 445.942464 144.076906 
L 447.503994 155.02921 
L 449.065523 164.769587 
L 450.627052 173.352479 
L 452.188581 180.835548 
L 453.75011 187.279003 
L 455.31164 192.744973 
L 456.873169 197.296932 
L 458.434698 200.999168 
L 459.996227 203.916294 
L 461.557756 206.112806 
L 463.119286 207.652674 
L 464.680815 208.598977 
L 466.242344 209.013573 
L 467.803873 208.9568 
L 469.365403 208.487214 
L 470.926932 207.661357 
L 472.488461 206.533556 
L 474.04999 205.155746 
L 477.173049 201.845019 
L 481.857636 196.150323 
L 486.542224 190.480965 
L 489.665282 187.117508 
L 491.226812 185.631351 
L 492.788341 184.30036 
L 494.34987 183.139673 
L 495.911399 182.161763 
L 497.472928 181.376514 
L 499.034458 180.791326 
L 500.595987 180.411204 
L 502.157516 180.238879 
L 503.719045 180.274911 
L 505.280574 180.517813 
L 506.842104 180.964173 
L 508.403633 181.608782 
L 509.965162 182.444757 
L 511.526691 183.46368 
L 513.08822 184.655723 
L 514.64975 186.009787 
L 517.772808 189.154007 
L 520.895867 192.787117 
L 524.018925 196.787958 
L 528.703513 203.195295 
L 534.949629 211.798141 
L 538.072688 215.832302 
L 541.195746 219.526057 
L 544.318805 222.769915 
L 547.441863 225.466895 
L 549.003392 226.583888 
L 550.564922 227.534397 
L 552.126451 228.310586 
L 553.68798 228.905683 
L 555.249509 229.314005 
L 556.811038 229.530975 
L 558.372568 229.553134 
L 559.934097 229.378152 
L 561.495626 229.004825 
L 563.057155 228.433072 
L 564.618685 227.663927 
L 566.180214 226.699516 
L 567.741743 225.543045 
L 569.303272 224.198766 
L 570.864801 222.671949 
L 572.426331 220.968842 
L 575.549389 217.063414 
L 578.672447 212.550411 
L 581.795506 207.510363 
L 584.918564 202.034492 
L 589.603152 193.223621 
L 603.656915 165.917614 
L 606.779973 160.363144 
L 609.903032 155.206673 
L 613.02609 150.527645 
L 616.149149 146.391931 
L 619.272207 142.849807 
L 620.833736 141.312342 
L 622.395265 139.934168 
L 623.956795 138.716438 
L 625.518324 137.659052 
L 627.079853 136.760631 
L 628.641382 136.018493 
L 630.202911 135.428642 
L 631.764441 134.985759 
L 633.32597 134.683202 
L 634.887499 134.513014 
L 636.449028 134.46594 
L 639.572087 134.697765 
L 642.695145 135.27976 
L 647.379733 136.548244 
L 652.06432 137.875109 
L 655.187379 138.535973 
L 656.748908 138.738319 
L 658.310437 138.827657 
L 659.871966 138.783315 
L 661.433496 138.584855 
L 662.995025 138.21227 
L 664.556554 137.646175 
L 666.118083 136.868024 
L 667.679613 135.860333 
L 669.241142 134.606909 
L 670.802671 133.093105 
L 672.3642 131.306073 
L 673.925729 129.235039 
L 675.487259 126.871582 
L 677.048788 124.209932 
L 678.610317 121.247277 
L 680.171846 117.984078 
L 681.733375 114.424403 
L 684.856434 106.451992 
L 687.979492 97.447981 
L 691.102551 87.611066 
L 702.033255 51.837147 
L 703.594784 47.455625 
L 705.156314 43.529911 
L 706.717843 40.175554 
L 708.279372 37.518919 
L 709.840901 35.697686 
L 711.40243 34.861355 
L 712.96396 35.171756 
L 714.525489 36.80356 
L 716.087018 39.9448 
L 717.648547 44.797391 
L 719.210077 51.577647 
L 720.771606 60.516811 
L 722.333135 71.861575 
L 723.894664 85.874605 
L 725.456193 102.835062 
L 727.017723 123.039127 
L 728.579252 146.800513 
L 730.140781 174.450984 
L 731.70231 206.340858 
L 733.263839 242.839517 
L 735.334471 299.627607 
L 735.334471 299.627607 
" clip-path="url(#p259ee98097)" style="fill: none; stroke: #0072b2; stroke-opacity: 0.22; stroke-linecap: square"/>
   </g>
   <g id="line2d_82">
    <path d="M 439.696348 237.253823 
L 441.257877 230.830765 
L 442.819406 225.707143 
L 444.380935 221.728383 
L 445.942464 218.752407 
L 447.503994 216.648915 
L 449.065523 215.29871 
L 450.627052 214.593042 
L 452.188581 214.432981 
L 453.75011 214.728817 
L 455.31164 215.399478 
L 456.873169 216.371983 
L 458.434698 217.580911 
L 461.557756 220.481137 
L 470.926932 230.027244 
L 474.04999 232.738244 
L 477.173049 234.997036 
L 478.734578 235.937826 
L 480.296107 236.747634 
L 481.857636 237.425143 
L 483.419165 237.97085 
L 484.980695 238.386848 
L 486.542224 238.67662 
L 488.103753 238.844849 
L 491.226812 238.840334 
L 494.34987 238.428222 
L 497.472928 237.672358 
L 500.595987 236.641394 
L 503.719045 235.405303 
L 508.403633 233.315151 
L 517.772808 229.025018 
L 522.457396 227.141858 
L 527.141983 225.570409 
L 530.265042 224.719459 
L 533.3881 224.02889 
L 538.072688 223.275818 
L 542.757276 222.808289 
L 549.003392 222.466555 
L 556.811038 222.073621 
L 561.495626 221.598293 
L 564.618685 221.087517 
L 567.741743 220.369738 
L 570.864801 219.402575 
L 573.98786 218.146539 
L 577.110918 216.565892 
L 580.233977 214.629432 
L 583.357035 212.311176 
L 586.480093 209.590962 
L 589.603152 206.454936 
L 592.72621 202.895939 
L 595.849269 198.913785 
L 598.972327 194.515423 
L 602.095386 189.714982 
L 605.218444 184.533717 
L 608.341502 178.999825 
L 613.02609 170.115782 
L 617.710678 160.661773 
L 623.956795 147.469122 
L 636.449028 120.87366 
L 641.133616 111.496872 
L 644.256674 105.602938 
L 647.379733 100.066794 
L 650.502791 94.945971 
L 653.62585 90.29309 
L 656.748908 86.15479 
L 659.871966 82.570686 
L 662.995025 79.572381 
L 664.556554 78.300357 
L 666.118083 77.182535 
L 667.679613 76.220211 
L 669.241142 75.414022 
L 670.802671 74.763924 
L 672.3642 74.269173 
L 673.925729 73.928309 
L 675.487259 73.739139 
L 677.048788 73.698727 
L 678.610317 73.803382 
L 680.171846 74.048649 
L 681.733375 74.429306 
L 683.294905 74.939363 
L 686.417963 76.31987 
L 689.541021 78.126954 
L 692.66408 80.28547 
L 695.787138 82.708852 
L 702.033255 87.951637 
L 706.717843 91.789226 
L 709.840901 94.07445 
L 712.96396 95.991808 
L 714.525489 96.771958 
L 716.087018 97.411514 
L 717.648547 97.894498 
L 719.210077 98.205219 
L 720.771606 98.328377 
L 722.333135 98.249181 
L 723.894664 97.953467 
L 725.456193 97.427825 
L 727.017723 96.659738 
L 728.579252 95.637719 
L 730.140781 94.351459 
L 731.70231 92.791987 
L 733.263839 90.951827 
L 734.825369 88.825171 
L 736.386898 86.408058 
L 737.948427 83.698557 
L 739.509956 80.696962 
L 741.071485 77.40599 
L 744.194544 69.98018 
L 747.317602 61.499533 
L 750.440661 52.095503 
L 750.440661 52.095503 
" clip-path="url(#p259ee98097)" style="fill: none; stroke-dasharray: 3.7,1.6; stroke-dashoffset: 0; stroke: #0072b2; stroke-opacity: 0.22"/>
   </g>
   <g id="line2d_83">
    <path d="M 439.696348 107.181304 
L 441.257877 120.887233 
L 442.819406 133.230183 
L 444.380935 144.315892 
L 445.942464 154.244054 
L 447.503994 163.108555 
L 449.065523 170.997691 
L 450.627052 177.994395 
L 452.188581 184.17645 
L 453.75011 189.616703 
L 455.31164 194.383268 
L 456.873169 198.539734 
L 458.434698 202.145361 
L 459.996227 205.25527 
L 461.557756 207.920639 
L 463.119286 210.18888 
L 464.680815 212.103821 
L 466.242344 213.705885 
L 467.803873 215.032252 
L 469.365403 216.117032 
L 470.926932 216.991422 
L 472.488461 217.683862 
L 474.04999 218.22019 
L 477.173049 218.91571 
L 480.296107 219.238062 
L 483.419165 219.314592 
L 488.103753 219.177397 
L 502.157516 218.581415 
L 522.457396 218.144844 
L 527.141983 217.67206 
L 530.265042 217.188877 
L 533.3881 216.547007 
L 536.511159 215.728762 
L 539.634217 214.719645 
L 542.757276 213.508581 
L 545.880334 212.088044 
L 549.003392 210.454069 
L 552.126451 208.606185 
L 555.249509 206.54726 
L 558.372568 204.283283 
L 561.495626 201.823089 
L 566.180214 197.790327 
L 570.864801 193.389155 
L 575.549389 188.674563 
L 581.795506 182.004695 
L 589.603152 173.255116 
L 614.587619 144.85538 
L 622.395265 136.401046 
L 630.202911 128.229415 
L 639.572087 118.759877 
L 648.941262 109.615553 
L 656.748908 102.273103 
L 662.995025 96.663503 
L 667.679613 92.684469 
L 672.3642 88.977217 
L 677.048788 85.627722 
L 680.171846 83.64195 
L 683.294905 81.890468 
L 686.417963 80.405247 
L 689.541021 79.217422 
L 692.66408 78.355628 
L 695.787138 77.843965 
L 698.910197 77.699552 
L 702.033255 77.929643 
L 705.156314 78.528235 
L 708.279372 79.472145 
L 711.40243 80.716501 
L 714.525489 82.189591 
L 722.333135 86.089571 
L 725.456193 87.265153 
L 727.017723 87.647478 
L 728.579252 87.839958 
L 730.140781 87.797231 
L 731.70231 87.468969 
L 733.263839 86.799508 
L 734.825369 85.727482 
L 736.386898 84.185419 
L 737.948427 82.099336 
L 739.509956 79.388302 
L 741.071485 75.963988 
L 742.633015 71.730191 
L 744.194544 66.582346 
L 745.756073 60.407002 
L 747.317602 53.081294 
L 748.879132 44.472375 
L 750.440661 34.436832 
L 750.440661 34.436832 
" clip-path="url(#p259ee98097)" style="fill: none; stroke-dasharray: 16.64,4.16,2.6,4.16; stroke-dashoffset: 0; stroke: #e69f00; stroke-width: 2.6"/>
   </g>
   <g id="line2d_84">
    <path d="M 439.696348 201.025866 
L 445.942464 204.785275 
L 450.627052 207.376401 
L 455.31164 209.755547 
L 459.996227 211.909242 
L 464.680815 213.825095 
L 469.365403 215.491854 
L 474.04999 216.89946 
L 478.734578 218.039094 
L 483.419165 218.903221 
L 488.103753 219.485625 
L 492.788341 219.781437 
L 497.472928 219.787163 
L 502.157516 219.500695 
L 506.842104 218.921326 
L 511.526691 218.049752 
L 516.211279 216.888066 
L 520.895867 215.43975 
L 525.580454 213.709661 
L 530.265042 211.704003 
L 534.949629 209.430299 
L 539.634217 206.897357 
L 544.318805 204.115225 
L 549.003392 201.095144 
L 553.68798 197.849495 
L 559.934097 193.194493 
L 566.180214 188.197213 
L 572.426331 182.895251 
L 578.672447 177.328794 
L 586.480093 170.063617 
L 595.849269 161.010265 
L 611.464561 145.517338 
L 625.518324 131.673691 
L 634.887499 122.775369 
L 642.695145 115.693503 
L 648.941262 110.307409 
L 655.187379 105.214132 
L 661.433496 100.452085 
L 666.118083 97.119446 
L 670.802671 94.007087 
L 675.487259 91.127831 
L 680.171846 88.493384 
L 684.856434 86.11428 
L 689.541021 83.999831 
L 694.225609 82.158082 
L 698.910197 80.595772 
L 703.594784 79.318302 
L 708.279372 78.329709 
L 712.96396 77.632647 
L 717.648547 77.228376 
L 722.333135 77.11675 
L 727.017723 77.296227 
L 731.70231 77.763866 
L 736.386898 78.515351 
L 741.071485 79.545004 
L 745.756073 80.845815 
L 750.440661 82.409479 
L 750.440661 82.409479 
" clip-path="url(#p259ee98097)" style="fill: none; stroke-dasharray: 8.88,3.84; stroke-dashoffset: 0; stroke: #d55e00; stroke-width: 2.4"/>
   </g>
   <g id="patch_6">
    <path d="M 424.159132 250.426435 
L 424.159132 26.117344 
" style="fill: none; stroke: #7a7a7a; stroke-width: 0.8; stroke-linejoin: miter; stroke-linecap: square"/>
   </g>
   <g id="patch_7">
    <path d="M 424.159132 250.426435 
L 765.977876 250.426435 
" style="fill: none; stroke: #7a7a7a; stroke-width: 0.8; stroke-linejoin: miter; stroke-linecap: square"/>
   </g>
   <g id="text_19">
    <text style="font-size: 17px; font-family: 'DejaVu Sans', 'Bitstream Vera Sans', 'Computer Modern Sans Serif', 'Lucida Grande', 'Verdana', 'Geneva', 'Lucid', 'Arial', 'Helvetica', 'Avant Garde', sans-serif; text-anchor: middle; fill: #7a7a7a" x="595.068504" y="20.117344" transform="rotate(-0 595.068504 20.117344)">degree 9 — high variance</text>
   </g>
   <g id="legend_1">
    <g id="line2d_85">
     <path d="M 435.859132 43.145312 
L 448.859132 43.145312 
L 461.859132 43.145312 
" style="fill: none; stroke-dasharray: 16.64,4.16,2.6,4.16; stroke-dashoffset: 0; stroke: #e69f00; stroke-width: 2.6"/>
    </g>
    <g id="text_20">
     <text style="font-size: 13px; font-family: 'DejaVu Sans', 'Bitstream Vera Sans', 'Computer Modern Sans Serif', 'Lucida Grande', 'Verdana', 'Geneva', 'Lucid', 'Arial', 'Helvetica', 'Avant Garde', sans-serif; text-anchor: start; fill: #7a7a7a" x="472.259132" y="47.695312" transform="rotate(-0 472.259132 47.695312)">average fit</text>
    </g>
    <g id="line2d_86">
     <path d="M 435.859132 62.646328 
L 448.859132 62.646328 
L 461.859132 62.646328 
" style="fill: none; stroke-dasharray: 8.88,3.84; stroke-dashoffset: 0; stroke: #d55e00; stroke-width: 2.4"/>
    </g>
    <g id="text_21">
     <text style="font-size: 13px; font-family: 'DejaVu Sans', 'Bitstream Vera Sans', 'Computer Modern Sans Serif', 'Lucida Grande', 'Verdana', 'Geneva', 'Lucid', 'Arial', 'Helvetica', 'Avant Garde', sans-serif; text-anchor: start; fill: #7a7a7a" x="472.259132" y="67.196328" transform="rotate(-0 472.259132 67.196328)">truth</text>
    </g>
   </g>
  </g>
 </g>
 <defs>
  <clipPath id="pf47bbf227e">
   <rect x="61.832422" y="26.117344" width="341.818745" height="224.309091"/>
  </clipPath>
  <clipPath id="p259ee98097">
   <rect x="424.159132" y="26.117344" width="341.818745" height="224.309091"/>
  </clipPath>
 </defs>
</svg>
