<?xml version="1.0" encoding="utf-8" standalone="no"?>
<!DOCTYPE svg PUBLIC "-//W3C//DTD SVG 1.1//EN"
  "http://www.w3.org/Graphics/SVG/1.1/DTD/svg11.dtd">
<svg xmlns:xlink="http://www.w3.org/1999/xlink" width="593.637678pt" height="262.418182pt" viewBox="0 0 593.637678 262.418182" xmlns="http://www.w3.org/2000/svg" version="1.1">
 <metadata>
  <rdf:RDF xmlns:dc="http://purl.org/dc/elements/1.1/" xmlns:cc="http://creativecommons.org/ns#" xmlns:rdf="http://www.w3.org/1999/02/22-rdf-syntax-ns#">
   <cc:Work>
    <dc:type rdf:resource="http://purl.org/dc/dcmitype/StillImage"/>
    <dc:date>2026-07-02T19:33:50.168408</dc:date>
    <dc:format>image/svg+xml</dc:format>
    <dc:creator>
     <cc:Agent>
      <dc:title>Matplotlib v3.11.0, https://matplotlib.org/</dc:title>
     </cc:Agent>
    </dc:creator>
   </cc:Work>
  </rdf:RDF>
 </metadata>
 <defs>
  <style type="text/css">*{stroke-linejoin: round; stroke-linecap: butt}</style>
 </defs>
 <g id="figure_1">
  <g id="patch_1">
   <path d="M 0 262.418182 
L 593.637678 262.418182 
L 593.637678 0 
L 0 0 
L 0 262.418182 
z
" style="fill: none; opacity: 0"/>
  </g>
  <g id="axes_1">
   <g id="patch_2">
    <path d="M 57.055859 214.214666 
L 586.437678 214.214666 
L 586.437678 7.2 
L 57.055859 7.2 
L 57.055859 214.214666 
z
" style="fill: none; opacity: 0"/>
   </g>
   <g id="FillBetweenPolyCollection_1">
    <defs>
     <path id="ma0b60c2d32" d="M 201.734258 -57.613273 
L 201.734258 -83.340304 
L 202.940414 -84.384855 
L 204.14657 -85.46062 
L 205.352726 -86.56797 
L 206.558881 -87.707253 
L 207.765037 -88.878792 
L 208.971193 -90.082883 
L 210.177349 -91.319792 
L 211.383505 -92.589758 
L 212.589661 -93.892984 
L 213.795817 -95.229643 
L 215.001973 -96.599873 
L 216.208128 -98.003775 
L 217.414284 -99.441413 
L 218.62044 -100.912811 
L 219.826596 -102.417953 
L 221.032752 -103.956782 
L 222.238908 -105.529195 
L 223.445064 -107.135048 
L 224.65122 -108.774148 
L 225.857376 -110.446257 
L 227.063531 -112.151086 
L 228.269687 -113.8883 
L 229.475843 -115.657511 
L 230.681999 -117.458281 
L 231.888155 -119.290118 
L 233.094311 -121.152479 
L 234.300467 -123.044766 
L 235.506623 -124.966326 
L 236.712779 -126.916451 
L 237.918934 -128.894378 
L 239.12509 -130.899289 
L 240.331246 -132.930307 
L 241.537402 -134.986501 
L 242.743558 -137.066883 
L 243.949714 -139.170408 
L 245.15587 -141.295975 
L 246.362026 -143.442429 
L 247.568182 -145.608558 
L 248.774337 -147.793094 
L 249.980493 -149.994718 
L 251.186649 -152.212054 
L 252.392805 -154.443676 
L 253.598961 -156.688106 
L 254.805117 -158.943816 
L 256.011273 -161.209228 
L 257.217429 -163.482719 
L 258.423584 -165.762618 
L 259.62974 -168.04721 
L 260.835896 -170.334739 
L 262.042052 -172.623407 
L 263.248208 -174.91138 
L 264.454364 -177.196785 
L 265.66052 -179.477719 
L 266.866676 -181.752244 
L 268.072832 -184.018396 
L 269.278987 -186.274184 
L 270.485143 -188.517592 
L 271.691299 -190.746587 
L 272.897455 -192.959115 
L 274.103611 -195.153109 
L 275.309767 -197.326492 
L 276.515923 -199.477177 
L 277.722079 -201.603071 
L 278.928235 -203.702083 
L 280.13439 -205.77212 
L 281.340546 -207.811095 
L 282.546702 -209.816933 
L 283.752858 -211.787565 
L 284.959014 -213.720943 
L 286.16517 -215.615036 
L 287.371326 -217.467834 
L 288.577482 -219.277356 
L 289.783637 -221.041648 
L 290.989793 -222.758792 
L 292.195949 -224.426904 
L 293.402105 -226.044141 
L 294.608261 -227.608704 
L 295.814417 -229.11884 
L 297.020573 -230.572846 
L 298.226729 -231.969072 
L 299.432885 -233.305926 
L 300.63904 -234.581872 
L 301.845196 -235.79544 
L 303.051352 -236.945223 
L 304.257508 -238.029882 
L 305.463664 -239.048149 
L 306.66982 -239.998827 
L 307.875976 -240.880797 
L 309.082132 -241.693016 
L 310.288288 -242.43452 
L 311.494443 -243.104427 
L 312.700599 -243.701938 
L 313.906755 -244.226339 
L 315.112911 -244.677001 
L 316.319067 -245.053384 
L 317.525223 -245.355036 
L 318.731379 -245.581593 
L 319.937535 -245.732784 
L 321.143691 -245.808424 
L 322.349846 -245.808424 
L 323.556002 -245.732784 
L 324.762158 -245.581593 
L 325.968314 -245.355036 
L 327.17447 -245.053384 
L 328.380626 -244.677001 
L 329.586782 -244.226339 
L 330.792938 -243.701938 
L 331.999093 -243.104427 
L 333.205249 -242.43452 
L 334.411405 -241.693016 
L 335.617561 -240.880797 
L 336.823717 -239.998827 
L 338.029873 -239.048149 
L 339.236029 -238.029882 
L 340.442185 -236.945223 
L 341.648341 -235.79544 
L 342.854496 -234.581872 
L 344.060652 -233.305926 
L 345.266808 -231.969072 
L 346.472964 -230.572846 
L 347.67912 -229.11884 
L 348.885276 -227.608704 
L 350.091432 -226.044141 
L 351.297588 -224.426904 
L 352.503744 -222.758792 
L 353.709899 -221.041648 
L 354.916055 -219.277356 
L 356.122211 -217.467834 
L 357.328367 -215.615036 
L 358.534523 -213.720943 
L 359.740679 -211.787565 
L 360.946835 -209.816933 
L 362.152991 -207.811095 
L 363.359147 -205.77212 
L 364.565302 -203.702083 
L 365.771458 -201.603071 
L 366.977614 -199.477177 
L 368.18377 -197.326492 
L 369.389926 -195.153109 
L 370.596082 -192.959115 
L 371.802238 -190.746587 
L 373.008394 -188.517592 
L 374.214549 -186.274184 
L 375.420705 -184.018396 
L 376.626861 -181.752244 
L 377.833017 -179.477719 
L 379.039173 -177.196785 
L 380.245329 -174.91138 
L 381.451485 -172.623407 
L 382.657641 -170.334739 
L 383.863797 -168.04721 
L 385.069952 -165.762618 
L 386.276108 -163.482719 
L 387.482264 -161.209228 
L 388.68842 -158.943816 
L 389.894576 -156.688106 
L 391.100732 -154.443676 
L 392.306888 -152.212054 
L 393.513044 -149.994718 
L 394.7192 -147.793094 
L 395.925355 -145.608558 
L 397.131511 -143.442429 
L 398.337667 -141.295975 
L 399.543823 -139.170408 
L 400.749979 -137.066883 
L 401.956135 -134.986501 
L 403.162291 -132.930307 
L 404.368447 -130.899289 
L 405.574603 -128.894378 
L 406.780758 -126.916451 
L 407.986914 -124.966326 
L 409.19307 -123.044766 
L 410.399226 -121.152479 
L 411.605382 -119.290118 
L 412.811538 -117.458281 
L 414.017694 -115.657511 
L 415.22385 -113.8883 
L 416.430005 -112.151086 
L 417.636161 -110.446257 
L 418.842317 -108.774148 
L 420.048473 -107.135048 
L 421.254629 -105.529195 
L 422.460785 -103.956782 
L 423.666941 -102.417953 
L 424.873097 -100.912811 
L 426.079253 -99.441413 
L 427.285408 -98.003775 
L 428.491564 -96.599873 
L 429.69772 -95.229643 
L 430.903876 -93.892984 
L 432.110032 -92.589758 
L 433.316188 -91.319792 
L 434.522344 -90.082883 
L 435.7285 -88.878792 
L 436.934656 -87.707253 
L 438.140811 -86.56797 
L 439.346967 -85.46062 
L 440.553123 -84.384855 
L 441.759279 -83.340304 
L 441.759279 -57.613273 
L 441.759279 -57.613273 
L 440.553123 -57.613273 
L 439.346967 -57.613273 
L 438.140811 -57.613273 
L 436.934656 -57.613273 
L 435.7285 -57.613273 
L 434.522344 -57.613273 
L 433.316188 -57.613273 
L 432.110032 -57.613273 
L 430.903876 -57.613273 
L 429.69772 -57.613273 
L 428.491564 -57.613273 
L 427.285408 -57.613273 
L 426.079253 -57.613273 
L 424.873097 -57.613273 
L 423.666941 -57.613273 
L 422.460785 -57.613273 
L 421.254629 -57.613273 
L 420.048473 -57.613273 
L 418.842317 -57.613273 
L 417.636161 -57.613273 
L 416.430005 -57.613273 
L 415.22385 -57.613273 
L 414.017694 -57.613273 
L 412.811538 -57.613273 
L 411.605382 -57.613273 
L 410.399226 -57.613273 
L 409.19307 -57.613273 
L 407.986914 -57.613273 
L 406.780758 -57.613273 
L 405.574603 -57.613273 
L 404.368447 -57.613273 
L 403.162291 -57.613273 
L 401.956135 -57.613273 
L 400.749979 -57.613273 
L 399.543823 -57.613273 
L 398.337667 -57.613273 
L 397.131511 -57.613273 
L 395.925355 -57.613273 
L 394.7192 -57.613273 
L 393.513044 -57.613273 
L 392.306888 -57.613273 
L 391.100732 -57.613273 
L 389.894576 -57.613273 
L 388.68842 -57.613273 
L 387.482264 -57.613273 
L 386.276108 -57.613273 
L 385.069952 -57.613273 
L 383.863797 -57.613273 
L 382.657641 -57.613273 
L 381.451485 -57.613273 
L 380.245329 -57.613273 
L 379.039173 -57.613273 
L 377.833017 -57.613273 
L 376.626861 -57.613273 
L 375.420705 -57.613273 
L 374.214549 -57.613273 
L 373.008394 -57.613273 
L 371.802238 -57.613273 
L 370.596082 -57.613273 
L 369.389926 -57.613273 
L 368.18377 -57.613273 
L 366.977614 -57.613273 
L 365.771458 -57.613273 
L 364.565302 -57.613273 
L 363.359147 -57.613273 
L 362.152991 -57.613273 
L 360.946835 -57.613273 
L 359.740679 -57.613273 
L 358.534523 -57.613273 
L 357.328367 -57.613273 
L 356.122211 -57.613273 
L 354.916055 -57.613273 
L 353.709899 -57.613273 
L 352.503744 -57.613273 
L 351.297588 -57.613273 
L 350.091432 -57.613273 
L 348.885276 -57.613273 
L 347.67912 -57.613273 
L 346.472964 -57.613273 
L 345.266808 -57.613273 
L 344.060652 -57.613273 
L 342.854496 -57.613273 
L 341.648341 -57.613273 
L 340.442185 -57.613273 
L 339.236029 -57.613273 
L 338.029873 -57.613273 
L 336.823717 -57.613273 
L 335.617561 -57.613273 
L 334.411405 -57.613273 
L 333.205249 -57.613273 
L 331.999093 -57.613273 
L 330.792938 -57.613273 
L 329.586782 -57.613273 
L 328.380626 -57.613273 
L 327.17447 -57.613273 
L 325.968314 -57.613273 
L 324.762158 -57.613273 
L 323.556002 -57.613273 
L 322.349846 -57.613273 
L 321.143691 -57.613273 
L 319.937535 -57.613273 
L 318.731379 -57.613273 
L 317.525223 -57.613273 
L 316.319067 -57.613273 
L 315.112911 -57.613273 
L 313.906755 -57.613273 
L 312.700599 -57.613273 
L 311.494443 -57.613273 
L 310.288288 -57.613273 
L 309.082132 -57.613273 
L 307.875976 -57.613273 
L 306.66982 -57.613273 
L 305.463664 -57.613273 
L 304.257508 -57.613273 
L 303.051352 -57.613273 
L 301.845196 -57.613273 
L 300.63904 -57.613273 
L 299.432885 -57.613273 
L 298.226729 -57.613273 
L 297.020573 -57.613273 
L 295.814417 -57.613273 
L 294.608261 -57.613273 
L 293.402105 -57.613273 
L 292.195949 -57.613273 
L 290.989793 -57.613273 
L 289.783637 -57.613273 
L 288.577482 -57.613273 
L 287.371326 -57.613273 
L 286.16517 -57.613273 
L 284.959014 -57.613273 
L 283.752858 -57.613273 
L 282.546702 -57.613273 
L 281.340546 -57.613273 
L 280.13439 -57.613273 
L 278.928235 -57.613273 
L 277.722079 -57.613273 
L 276.515923 -57.613273 
L 275.309767 -57.613273 
L 274.103611 -57.613273 
L 272.897455 -57.613273 
L 271.691299 -57.613273 
L 270.485143 -57.613273 
L 269.278987 -57.613273 
L 268.072832 -57.613273 
L 266.866676 -57.613273 
L 265.66052 -57.613273 
L 264.454364 -57.613273 
L 263.248208 -57.613273 
L 262.042052 -57.613273 
L 260.835896 -57.613273 
L 259.62974 -57.613273 
L 258.423584 -57.613273 
L 257.217429 -57.613273 
L 256.011273 -57.613273 
L 254.805117 -57.613273 
L 253.598961 -57.613273 
L 252.392805 -57.613273 
L 251.186649 -57.613273 
L 249.980493 -57.613273 
L 248.774337 -57.613273 
L 247.568182 -57.613273 
L 246.362026 -57.613273 
L 245.15587 -57.613273 
L 243.949714 -57.613273 
L 242.743558 -57.613273 
L 241.537402 -57.613273 
L 240.331246 -57.613273 
L 239.12509 -57.613273 
L 237.918934 -57.613273 
L 236.712779 -57.613273 
L 235.506623 -57.613273 
L 234.300467 -57.613273 
L 233.094311 -57.613273 
L 231.888155 -57.613273 
L 230.681999 -57.613273 
L 229.475843 -57.613273 
L 228.269687 -57.613273 
L 227.063531 -57.613273 
L 225.857376 -57.613273 
L 224.65122 -57.613273 
L 223.445064 -57.613273 
L 222.238908 -57.613273 
L 221.032752 -57.613273 
L 219.826596 -57.613273 
L 218.62044 -57.613273 
L 217.414284 -57.613273 
L 216.208128 -57.613273 
L 215.001973 -57.613273 
L 213.795817 -57.613273 
L 212.589661 -57.613273 
L 211.383505 -57.613273 
L 210.177349 -57.613273 
L 208.971193 -57.613273 
L 207.765037 -57.613273 
L 206.558881 -57.613273 
L 205.352726 -57.613273 
L 204.14657 -57.613273 
L 202.940414 -57.613273 
L 201.734258 -57.613273 
z
" style="stroke: #0072b2; stroke-opacity: 0.15"/>
    </defs>
    <g clip-path="url(#pa0267093e8)">
     <use xlink:href="#ma0b60c2d32" x="0" y="262.418182" style="fill: #0072b2; fill-opacity: 0.15; stroke: #0072b2; stroke-opacity: 0.15"/>
    </g>
   </g>
   <g id="FillBetweenPolyCollection_2">
    <defs>
     <path id="mfee303ef77" d="M 262.042052 -57.613273 
L 262.042052 -172.623407 
L 263.248208 -174.91138 
L 264.454364 -177.196785 
L 265.66052 -179.477719 
L 266.866676 -181.752244 
L 268.072832 -184.018396 
L 269.278987 -186.274184 
L 270.485143 -188.517592 
L 271.691299 -190.746587 
L 272.897455 -192.959115 
L 274.103611 -195.153109 
L 275.309767 -197.326492 
L 276.515923 -199.477177 
L 277.722079 -201.603071 
L 278.928235 -203.702083 
L 280.13439 -205.77212 
L 281.340546 -207.811095 
L 282.546702 -209.816933 
L 283.752858 -211.787565 
L 284.959014 -213.720943 
L 286.16517 -215.615036 
L 287.371326 -217.467834 
L 288.577482 -219.277356 
L 289.783637 -221.041648 
L 290.989793 -222.758792 
L 292.195949 -224.426904 
L 293.402105 -226.044141 
L 294.608261 -227.608704 
L 295.814417 -229.11884 
L 297.020573 -230.572846 
L 298.226729 -231.969072 
L 299.432885 -233.305926 
L 300.63904 -234.581872 
L 301.845196 -235.79544 
L 303.051352 -236.945223 
L 304.257508 -238.029882 
L 305.463664 -239.048149 
L 306.66982 -239.998827 
L 307.875976 -240.880797 
L 309.082132 -241.693016 
L 310.288288 -242.43452 
L 311.494443 -243.104427 
L 312.700599 -243.701938 
L 313.906755 -244.226339 
L 315.112911 -244.677001 
L 316.319067 -245.053384 
L 317.525223 -245.355036 
L 318.731379 -245.581593 
L 319.937535 -245.732784 
L 321.143691 -245.808424 
L 322.349846 -245.808424 
L 323.556002 -245.732784 
L 324.762158 -245.581593 
L 325.968314 -245.355036 
L 327.17447 -245.053384 
L 328.380626 -244.677001 
L 329.586782 -244.226339 
L 330.792938 -243.701938 
L 331.999093 -243.104427 
L 333.205249 -242.43452 
L 334.411405 -241.693016 
L 335.617561 -240.880797 
L 336.823717 -239.998827 
L 338.029873 -239.048149 
L 339.236029 -238.029882 
L 340.442185 -236.945223 
L 341.648341 -235.79544 
L 342.854496 -234.581872 
L 344.060652 -233.305926 
L 345.266808 -231.969072 
L 346.472964 -230.572846 
L 347.67912 -229.11884 
L 348.885276 -227.608704 
L 350.091432 -226.044141 
L 351.297588 -224.426904 
L 352.503744 -222.758792 
L 353.709899 -221.041648 
L 354.916055 -219.277356 
L 356.122211 -217.467834 
L 357.328367 -215.615036 
L 358.534523 -213.720943 
L 359.740679 -211.787565 
L 360.946835 -209.816933 
L 362.152991 -207.811095 
L 363.359147 -205.77212 
L 364.565302 -203.702083 
L 365.771458 -201.603071 
L 366.977614 -199.477177 
L 368.18377 -197.326492 
L 369.389926 -195.153109 
L 370.596082 -192.959115 
L 371.802238 -190.746587 
L 373.008394 -188.517592 
L 374.214549 -186.274184 
L 375.420705 -184.018396 
L 376.626861 -181.752244 
L 377.833017 -179.477719 
L 379.039173 -177.196785 
L 380.245329 -174.91138 
L 381.451485 -172.623407 
L 381.451485 -57.613273 
L 381.451485 -57.613273 
L 380.245329 -57.613273 
L 379.039173 -57.613273 
L 377.833017 -57.613273 
L 376.626861 -57.613273 
L 375.420705 -57.613273 
L 374.214549 -57.613273 
L 373.008394 -57.613273 
L 371.802238 -57.613273 
L 370.596082 -57.613273 
L 369.389926 -57.613273 
L 368.18377 -57.613273 
L 366.977614 -57.613273 
L 365.771458 -57.613273 
L 364.565302 -57.613273 
L 363.359147 -57.613273 
L 362.152991 -57.613273 
L 360.946835 -57.613273 
L 359.740679 -57.613273 
L 358.534523 -57.613273 
L 357.328367 -57.613273 
L 356.122211 -57.613273 
L 354.916055 -57.613273 
L 353.709899 -57.613273 
L 352.503744 -57.613273 
L 351.297588 -57.613273 
L 350.091432 -57.613273 
L 348.885276 -57.613273 
L 347.67912 -57.613273 
L 346.472964 -57.613273 
L 345.266808 -57.613273 
L 344.060652 -57.613273 
L 342.854496 -57.613273 
L 341.648341 -57.613273 
L 340.442185 -57.613273 
L 339.236029 -57.613273 
L 338.029873 -57.613273 
L 336.823717 -57.613273 
L 335.617561 -57.613273 
L 334.411405 -57.613273 
L 333.205249 -57.613273 
L 331.999093 -57.613273 
L 330.792938 -57.613273 
L 329.586782 -57.613273 
L 328.380626 -57.613273 
L 327.17447 -57.613273 
L 325.968314 -57.613273 
L 324.762158 -57.613273 
L 323.556002 -57.613273 
L 322.349846 -57.613273 
L 321.143691 -57.613273 
L 319.937535 -57.613273 
L 318.731379 -57.613273 
L 317.525223 -57.613273 
L 316.319067 -57.613273 
L 315.112911 -57.613273 
L 313.906755 -57.613273 
L 312.700599 -57.613273 
L 311.494443 -57.613273 
L 310.288288 -57.613273 
L 309.082132 -57.613273 
L 307.875976 -57.613273 
L 306.66982 -57.613273 
L 305.463664 -57.613273 
L 304.257508 -57.613273 
L 303.051352 -57.613273 
L 301.845196 -57.613273 
L 300.63904 -57.613273 
L 299.432885 -57.613273 
L 298.226729 -57.613273 
L 297.020573 -57.613273 
L 295.814417 -57.613273 
L 294.608261 -57.613273 
L 293.402105 -57.613273 
L 292.195949 -57.613273 
L 290.989793 -57.613273 
L 289.783637 -57.613273 
L 288.577482 -57.613273 
L 287.371326 -57.613273 
L 286.16517 -57.613273 
L 284.959014 -57.613273 
L 283.752858 -57.613273 
L 282.546702 -57.613273 
L 281.340546 -57.613273 
L 280.13439 -57.613273 
L 278.928235 -57.613273 
L 277.722079 -57.613273 
L 276.515923 -57.613273 
L 275.309767 -57.613273 
L 274.103611 -57.613273 
L 272.897455 -57.613273 
L 271.691299 -57.613273 
L 270.485143 -57.613273 
L 269.278987 -57.613273 
L 268.072832 -57.613273 
L 266.866676 -57.613273 
L 265.66052 -57.613273 
L 264.454364 -57.613273 
L 263.248208 -57.613273 
L 262.042052 -57.613273 
z
" style="stroke: #0072b2; stroke-opacity: 0.3"/>
    </defs>
    <g clip-path="url(#pa0267093e8)">
     <use xlink:href="#mfee303ef77" x="0" y="262.418182" style="fill: #0072b2; fill-opacity: 0.3; stroke: #0072b2; stroke-opacity: 0.3"/>
    </g>
   </g>
   <g id="matplotlib.axis_1">
    <g id="xtick_1">
     <g id="line2d_1">
      <path d="M 81.118669 214.214666 
L 81.118669 7.2 
" clip-path="url(#pa0267093e8)" style="fill: none; stroke: #7a7a7a; stroke-opacity: 0.3; stroke-width: 0.8; stroke-linecap: square"/>
     </g>
     <g id="line2d_2">
      <defs>
       <path id="mbe4ee7c202" d="M 0 0 
L 0 3.5 
" style="stroke: #7a7a7a; stroke-width: 0.8"/>
      </defs>
      <g>
       <use xlink:href="#mbe4ee7c202" x="81.118669" y="214.214666" style="fill: #7a7a7a; stroke: #7a7a7a; stroke-width: 0.8"/>
      </g>
     </g>
     <g id="text_1">
      <text style="font-size: 15px; font-family: 'DejaVu Sans', 'Bitstream Vera Sans', 'Computer Modern Sans Serif', 'Lucida Grande', 'Verdana', 'Geneva', 'Lucid', 'Arial', 'Helvetica', 'Avant Garde', sans-serif; text-anchor: middle; fill: #7a7a7a" x="81.118669" y="232.611151" transform="rotate(-0 81.118669 232.611151)">−4</text>
     </g>
    </g>
    <g id="xtick_2">
     <g id="line2d_3">
      <path d="M 141.275694 214.214666 
L 141.275694 7.2 
" clip-path="url(#pa0267093e8)" style="fill: none; stroke: #7a7a7a; stroke-opacity: 0.3; stroke-width: 0.8; stroke-linecap: square"/>
     </g>
     <g id="line2d_4">
      <g>
       <use xlink:href="#mbe4ee7c202" x="141.275694" y="214.214666" style="fill: #7a7a7a; stroke: #7a7a7a; stroke-width: 0.8"/>
      </g>
     </g>
     <g id="text_2">
      <text style="font-size: 15px; font-family: 'DejaVu Sans', 'Bitstream Vera Sans', 'Computer Modern Sans Serif', 'Lucida Grande', 'Verdana', 'Geneva', 'Lucid', 'Arial', 'Helvetica', 'Avant Garde', sans-serif; text-anchor: middle; fill: #7a7a7a" x="141.275694" y="232.611151" transform="rotate(-0 141.275694 232.611151)">−3</text>
     </g>
    </g>
    <g id="xtick_3">
     <g id="line2d_5">
      <path d="M 201.432719 214.214666 
L 201.432719 7.2 
" clip-path="url(#pa0267093e8)" style="fill: none; stroke: #7a7a7a; stroke-opacity: 0.3; stroke-width: 0.8; stroke-linecap: square"/>
     </g>
     <g id="line2d_6">
      <g>
       <use xlink:href="#mbe4ee7c202" x="201.432719" y="214.214666" style="fill: #7a7a7a; stroke: #7a7a7a; stroke-width: 0.8"/>
      </g>
     </g>
     <g id="text_3">
      <text style="font-size: 15px; font-family: 'DejaVu Sans', 'Bitstream Vera Sans', 'Computer Modern Sans Serif', 'Lucida Grande', 'Verdana', 'Geneva', 'Lucid', 'Arial', 'Helvetica', 'Avant Garde', sans-serif; text-anchor: middle; fill: #7a7a7a" x="201.432719" y="232.611151" transform="rotate(-0 201.432719 232.611151)">−2</text>
     </g>
    </g>
    <g id="xtick_4">
     <g id="line2d_7">
      <path d="M 261.589744 214.214666 
L 261.589744 7.2 
" clip-path="url(#pa0267093e8)" style="fill: none; stroke: #7a7a7a; stroke-opacity: 0.3; stroke-width: 0.8; stroke-linecap: square"/>
     </g>
     <g id="line2d_8">
      <g>
       <use xlink:href="#mbe4ee7c202" x="261.589744" y="214.214666" style="fill: #7a7a7a; stroke: #7a7a7a; stroke-width: 0.8"/>
      </g>
     </g>
     <g id="text_4">
      <text style="font-size: 15px; font-family: 'DejaVu Sans', 'Bitstream Vera Sans', 'Computer Modern Sans Serif', 'Lucida Grande', 'Verdana', 'Geneva', 'Lucid', 'Arial', 'Helvetica', 'Avant Garde', sans-serif; text-anchor: middle; fill: #7a7a7a" x="261.589744" y="232.611151" transform="rotate(-0 261.589744 232.611151)">−1</text>
     </g>
    </g>
    <g id="xtick_5">
     <g id="line2d_9">
      <path d="M 321.746768 214.214666 
L 321.746768 7.2 
" clip-path="url(#pa0267093e8)" style="fill: none; stroke: #7a7a7a; stroke-opacity: 0.3; stroke-width: 0.8; stroke-linecap: square"/>
     </g>
     <g id="line2d_10">
      <g>
       <use xlink:href="#mbe4ee7c202" x="321.746768" y="214.214666" style="fill: #7a7a7a; stroke: #7a7a7a; stroke-width: 0.8"/>
      </g>
     </g>
     <g id="text_5">
      <text style="font-size: 15px; font-family: 'DejaVu Sans', 'Bitstream Vera Sans', 'Computer Modern Sans Serif', 'Lucida Grande', 'Verdana', 'Geneva', 'Lucid', 'Arial', 'Helvetica', 'Avant Garde', sans-serif; text-anchor: middle; fill: #7a7a7a" x="321.746768" y="232.611151" transform="rotate(-0 321.746768 232.611151)">0</text>
     </g>
    </g>
    <g id="xtick_6">
     <g id="line2d_11">
      <path d="M 381.903793 214.214666 
L 381.903793 7.2 
" clip-path="url(#pa0267093e8)" style="fill: none; stroke: #7a7a7a; stroke-opacity: 0.3; stroke-width: 0.8; stroke-linecap: square"/>
     </g>
     <g id="line2d_12">
      <g>
       <use xlink:href="#mbe4ee7c202" x="381.903793" y="214.214666" style="fill: #7a7a7a; stroke: #7a7a7a; stroke-width: 0.8"/>
      </g>
     </g>
     <g id="text_6">
      <text style="font-size: 15px; font-family: 'DejaVu Sans', 'Bitstream Vera Sans', 'Computer Modern Sans Serif', 'Lucida Grande', 'Verdana', 'Geneva', 'Lucid', 'Arial', 'Helvetica', 'Avant Garde', sans-serif; text-anchor: middle; fill: #7a7a7a" x="381.903793" y="232.611151" transform="rotate(-0 381.903793 232.611151)">1</text>
     </g>
    </g>
    <g id="xtick_7">
     <g id="line2d_13">
      <path d="M 442.060818 214.214666 
L 442.060818 7.2 
" clip-path="url(#pa0267093e8)" style="fill: none; stroke: #7a7a7a; stroke-opacity: 0.3; stroke-width: 0.8; stroke-linecap: square"/>
     </g>
     <g id="line2d_14">
      <g>
       <use xlink:href="#mbe4ee7c202" x="442.060818" y="214.214666" style="fill: #7a7a7a; stroke: #7a7a7a; stroke-width: 0.8"/>
      </g>
     </g>
     <g id="text_7">
      <text style="font-size: 15px; font-family: 'DejaVu Sans', 'Bitstream Vera Sans', 'Computer Modern Sans Serif', 'Lucida Grande', 'Verdana', 'Geneva', 'Lucid', 'Arial', 'Helvetica', 'Avant Garde', sans-serif; text-anchor: middle; fill: #7a7a7a" x="442.060818" y="232.611151" transform="rotate(-0 442.060818 232.611151)">2</text>
     </g>
    </g>
    <g id="xtick_8">
     <g id="line2d_15">
      <path d="M 502.217843 214.214666 
L 502.217843 7.2 
" clip-path="url(#pa0267093e8)" style="fill: none; stroke: #7a7a7a; stroke-opacity: 0.3; stroke-width: 0.8; stroke-linecap: square"/>
     </g>
     <g id="line2d_16">
      <g>
       <use xlink:href="#mbe4ee7c202" x="502.217843" y="214.214666" style="fill: #7a7a7a; stroke: #7a7a7a; stroke-width: 0.8"/>
      </g>
     </g>
     <g id="text_8">
      <text style="font-size: 15px; font-family: 'DejaVu Sans', 'Bitstream Vera Sans', 'Computer Modern Sans Serif', 'Lucida Grande', 'Verdana', 'Geneva', 'Lucid', 'Arial', 'Helvetica', 'Avant Garde', sans-serif; text-anchor: middle; fill: #7a7a7a" x="502.217843" y="232.611151" transform="rotate(-0 502.217843 232.611151)">3</text>
     </g>
    </g>
    <g id="xtick_9">
     <g id="line2d_17">
      <path d="M 562.374868 214.214666 
L 562.374868 7.2 
" clip-path="url(#pa0267093e8)" style="fill: none; stroke: #7a7a7a; stroke-opacity: 0.3; stroke-width: 0.8; stroke-linecap: square"/>
     </g>
     <g id="line2d_18">
      <g>
       <use xlink:href="#mbe4ee7c202" x="562.374868" y="214.214666" style="fill: #7a7a7a; stroke: #7a7a7a; stroke-width: 0.8"/>
      </g>
     </g>
     <g id="text_9">
      <text style="font-size: 15px; font-family: 'DejaVu Sans', 'Bitstream Vera Sans', 'Computer Modern Sans Serif', 'Lucida Grande', 'Verdana', 'Geneva', 'Lucid', 'Arial', 'Helvetica', 'Avant Garde', sans-serif; text-anchor: middle; fill: #7a7a7a" x="562.374868" y="232.611151" transform="rotate(-0 562.374868 232.611151)">4</text>
     </g>
    </g>
    <g id="text_10">
     <!-- $y-\mu$  (in units of $\sigma$) -->
     <g style="fill: #7a7a7a" transform="translate(248.246768 251.614666)">
      <text>
       <tspan x="0" y="-0.609375" style="font-style: oblique; font-size: 15px; font-family: 'DejaVu Sans'; fill: #7a7a7a">y</tspan>
       <tspan x="27.290039" y="-0.609375" style="font-style: oblique; font-size: 15px; font-family: 'DejaVu Sans'; fill: #7a7a7a">μ</tspan>
       <tspan x="131.535645" y="-0.609375" style="font-style: oblique; font-size: 15px; font-family: 'DejaVu Sans'; fill: #7a7a7a">σ</tspan>
       <tspan x="11.799316" y="-0.609375" style="font-size: 15px; font-family: 'DejaVu Sans'; fill: #7a7a7a">−</tspan>
       <tspan x="36.833496" y="-0.609375" style="font-size: 15px; font-family: 'DejaVu Sans'; fill: #7a7a7a"> </tspan>
       <tspan x="41.601562" y="-0.609375" style="font-size: 15px; font-family: 'DejaVu Sans'; fill: #7a7a7a"> </tspan>
       <tspan x="46.369629" y="-0.609375" style="font-size: 15px; font-family: 'DejaVu Sans'; fill: #7a7a7a">(</tspan>
       <tspan x="52.22168" y="-0.609375" style="font-size: 15px; font-family: 'DejaVu Sans'; fill: #7a7a7a">i</tspan>
       <tspan x="56.38916" y="-0.609375" style="font-size: 15px; font-family: 'DejaVu Sans'; fill: #7a7a7a">n</tspan>
       <tspan x="65.895996" y="-0.609375" style="font-size: 15px; font-family: 'DejaVu Sans'; fill: #7a7a7a"> </tspan>
       <tspan x="70.664062" y="-0.609375" style="font-size: 15px; font-family: 'DejaVu Sans'; fill: #7a7a7a">u</tspan>
       <tspan x="80.170898" y="-0.609375" style="font-size: 15px; font-family: 'DejaVu Sans'; fill: #7a7a7a">n</tspan>
       <tspan x="89.677734" y="-0.609375" style="font-size: 15px; font-family: 'DejaVu Sans'; fill: #7a7a7a">i</tspan>
       <tspan x="93.845215" y="-0.609375" style="font-size: 15px; font-family: 'DejaVu Sans'; fill: #7a7a7a">t</tspan>
       <tspan x="99.726562" y="-0.609375" style="font-size: 15px; font-family: 'DejaVu Sans'; fill: #7a7a7a">s</tspan>
       <tspan x="107.541504" y="-0.609375" style="font-size: 15px; font-family: 'DejaVu Sans'; fill: #7a7a7a"> </tspan>
       <tspan x="112.30957" y="-0.609375" style="font-size: 15px; font-family: 'DejaVu Sans'; fill: #7a7a7a">o</tspan>
       <tspan x="121.486816" y="-0.609375" style="font-size: 15px; font-family: 'DejaVu Sans'; fill: #7a7a7a">f</tspan>
       <tspan x="126.767578" y="-0.609375" style="font-size: 15px; font-family: 'DejaVu Sans'; fill: #7a7a7a"> </tspan>
       <tspan x="141.04248" y="-0.609375" style="font-size: 15px; font-family: 'DejaVu Sans'; fill: #7a7a7a">)</tspan>
      </text>
     </g>
    </g>
   </g>
   <g id="matplotlib.axis_2">
    <g id="ytick_1">
     <g id="line2d_19">
      <path d="M 57.055859 204.804909 
L 586.437678 204.804909 
" clip-path="url(#pa0267093e8)" style="fill: none; stroke: #7a7a7a; stroke-opacity: 0.3; stroke-width: 0.8; stroke-linecap: square"/>
     </g>
     <g id="line2d_20">
      <defs>
       <path id="mc825d1bade" d="M 0 0 
L -3.5 0 
" style="stroke: #7a7a7a; stroke-width: 0.8"/>
      </defs>
      <g>
       <use xlink:href="#mc825d1bade" x="57.055859" y="204.804909" style="fill: #7a7a7a; stroke: #7a7a7a; stroke-width: 0.8"/>
      </g>
     </g>
     <g id="text_11">
      <text style="font-size: 15px; font-family: 'DejaVu Sans', 'Bitstream Vera Sans', 'Computer Modern Sans Serif', 'Lucida Grande', 'Verdana', 'Geneva', 'Lucid', 'Arial', 'Helvetica', 'Avant Garde', sans-serif; text-anchor: end; fill: #7a7a7a" x="50.055859" y="210.503151" transform="rotate(-0 50.055859 210.503151)">0.0</text>
     </g>
    </g>
    <g id="ytick_2">
     <g id="line2d_21">
      <path d="M 57.055859 157.629009 
L 586.437678 157.629009 
" clip-path="url(#pa0267093e8)" style="fill: none; stroke: #7a7a7a; stroke-opacity: 0.3; stroke-width: 0.8; stroke-linecap: square"/>
     </g>
     <g id="line2d_22">
      <g>
       <use xlink:href="#mc825d1bade" x="57.055859" y="157.629009" style="fill: #7a7a7a; stroke: #7a7a7a; stroke-width: 0.8"/>
      </g>
     </g>
     <g id="text_12">
      <text style="font-size: 15px; font-family: 'DejaVu Sans', 'Bitstream Vera Sans', 'Computer Modern Sans Serif', 'Lucida Grande', 'Verdana', 'Geneva', 'Lucid', 'Arial', 'Helvetica', 'Avant Garde', sans-serif; text-anchor: end; fill: #7a7a7a" x="50.055859" y="163.327252" transform="rotate(-0 50.055859 163.327252)">0.1</text>
     </g>
    </g>
    <g id="ytick_3">
     <g id="line2d_23">
      <path d="M 57.055859 110.45311 
L 586.437678 110.45311 
" clip-path="url(#pa0267093e8)" style="fill: none; stroke: #7a7a7a; stroke-opacity: 0.3; stroke-width: 0.8; stroke-linecap: square"/>
     </g>
     <g id="line2d_24">
      <g>
       <use xlink:href="#mc825d1bade" x="57.055859" y="110.45311" style="fill: #7a7a7a; stroke: #7a7a7a; stroke-width: 0.8"/>
      </g>
     </g>
     <g id="text_13">
      <text style="font-size: 15px; font-family: 'DejaVu Sans', 'Bitstream Vera Sans', 'Computer Modern Sans Serif', 'Lucida Grande', 'Verdana', 'Geneva', 'Lucid', 'Arial', 'Helvetica', 'Avant Garde', sans-serif; text-anchor: end; fill: #7a7a7a" x="50.055859" y="116.151352" transform="rotate(-0 50.055859 116.151352)">0.2</text>
     </g>
    </g>
    <g id="ytick_4">
     <g id="line2d_25">
      <path d="M 57.055859 63.277211 
L 586.437678 63.277211 
" clip-path="url(#pa0267093e8)" style="fill: none; stroke: #7a7a7a; stroke-opacity: 0.3; stroke-width: 0.8; stroke-linecap: square"/>
     </g>
     <g id="line2d_26">
      <g>
       <use xlink:href="#mc825d1bade" x="57.055859" y="63.277211" style="fill: #7a7a7a; stroke: #7a7a7a; stroke-width: 0.8"/>
      </g>
     </g>
     <g id="text_14">
      <text style="font-size: 15px; font-family: 'DejaVu Sans', 'Bitstream Vera Sans', 'Computer Modern Sans Serif', 'Lucida Grande', 'Verdana', 'Geneva', 'Lucid', 'Arial', 'Helvetica', 'Avant Garde', sans-serif; text-anchor: end; fill: #7a7a7a" x="50.055859" y="68.975453" transform="rotate(-0 50.055859 68.975453)">0.3</text>
     </g>
    </g>
    <g id="ytick_5">
     <g id="line2d_27">
      <path d="M 57.055859 16.101312 
L 586.437678 16.101312 
" clip-path="url(#pa0267093e8)" style="fill: none; stroke: #7a7a7a; stroke-opacity: 0.3; stroke-width: 0.8; stroke-linecap: square"/>
     </g>
     <g id="line2d_28">
      <g>
       <use xlink:href="#mc825d1bade" x="57.055859" y="16.101312" style="fill: #7a7a7a; stroke: #7a7a7a; stroke-width: 0.8"/>
      </g>
     </g>
     <g id="text_15">
      <text style="font-size: 15px; font-family: 'DejaVu Sans', 'Bitstream Vera Sans', 'Computer Modern Sans Serif', 'Lucida Grande', 'Verdana', 'Geneva', 'Lucid', 'Arial', 'Helvetica', 'Avant Garde', sans-serif; text-anchor: end; fill: #7a7a7a" x="50.055859" y="21.799554" transform="rotate(-0 50.055859 21.799554)">0.4</text>
     </g>
    </g>
    <g id="text_16">
     <text style="font-size: 15px; font-family: 'DejaVu Sans', 'Bitstream Vera Sans', 'Computer Modern Sans Serif', 'Lucida Grande', 'Verdana', 'Geneva', 'Lucid', 'Arial', 'Helvetica', 'Avant Garde', sans-serif; text-anchor: middle; fill: #7a7a7a" x="18.597656" y="110.707333" transform="rotate(-90 18.597656 110.707333)">density</text>
    </g>
   </g>
   <g id="line2d_29">
    <path d="M 81.118669 204.741773 
L 104.035631 204.535418 
L 117.303346 204.220619 
L 128.158749 203.743473 
L 136.60184 203.15383 
L 143.838775 202.431228 
L 149.869555 201.628037 
L 155.900334 200.595584 
L 160.724958 199.570832 
L 165.549581 198.338335 
L 170.374205 196.866838 
L 175.198828 195.122972 
L 178.817296 193.61531 
L 182.435764 191.919581 
L 186.054231 190.02046 
L 189.672699 187.902699 
L 193.291167 185.551372 
L 196.909634 182.95215 
L 200.528102 180.091611 
L 204.14657 176.957562 
L 207.765037 173.53939 
L 211.383505 169.828424 
L 215.001973 165.818309 
L 218.62044 161.505371 
L 222.238908 156.888986 
L 225.857376 151.971925 
L 229.475843 146.760671 
L 234.300467 139.373416 
L 239.12509 131.518893 
L 243.949714 123.247774 
L 249.980493 112.423464 
L 257.217429 98.935463 
L 272.897455 69.459067 
L 278.928235 58.716099 
L 283.752858 50.630616 
L 287.371326 44.950348 
L 290.989793 39.65939 
L 294.608261 34.809478 
L 298.226729 30.44911 
L 300.63904 27.83631 
L 303.051352 25.472958 
L 305.463664 23.370033 
L 307.875976 21.537385 
L 310.288288 19.983662 
L 312.700599 18.716244 
L 315.112911 17.741181 
L 317.525223 17.063146 
L 319.937535 16.685398 
L 322.349846 16.609758 
L 324.762158 16.836588 
L 327.17447 17.364798 
L 329.586782 18.191843 
L 331.999093 19.313755 
L 334.411405 20.725166 
L 336.823717 22.419355 
L 339.236029 24.388299 
L 341.648341 26.622741 
L 344.060652 29.112256 
L 346.472964 31.845336 
L 350.091432 36.374041 
L 353.709899 41.376534 
L 357.328367 46.803146 
L 360.946835 52.601249 
L 365.771458 60.815111 
L 370.596082 69.459067 
L 377.833017 82.940463 
L 393.513044 112.423464 
L 399.543823 123.247774 
L 404.368447 131.518893 
L 409.19307 139.373416 
L 414.017694 146.760671 
L 418.842317 153.644034 
L 422.460785 158.4614 
L 426.079253 162.976769 
L 429.69772 167.188539 
L 433.316188 171.098389 
L 436.934656 174.710929 
L 440.553123 178.033326 
L 444.171591 181.074941 
L 447.790059 183.846952 
L 451.408526 186.361999 
L 455.026994 188.633844 
L 458.645461 190.677045 
L 462.263929 192.506666 
L 465.882397 194.138006 
L 470.70702 196.031108 
L 475.531644 197.634502 
L 480.356267 198.982451 
L 485.180891 200.107315 
L 491.21167 201.245248 
L 497.24245 202.134505 
L 504.479385 202.938453 
L 511.71632 203.51911 
L 520.159412 203.987554 
L 531.014815 204.361443 
L 545.488685 204.618359 
L 562.374868 204.741773 
L 562.374868 204.741773 
" clip-path="url(#pa0267093e8)" style="fill: none; stroke: #0072b2; stroke-width: 2.4; stroke-linecap: square"/>
   </g>
   <g id="patch_3">
    <path d="M 57.055859 214.214666 
L 57.055859 7.2 
" style="fill: none; stroke: #7a7a7a; stroke-width: 0.8; stroke-linejoin: miter; stroke-linecap: square"/>
   </g>
   <g id="patch_4">
    <path d="M 57.055859 214.214666 
L 586.437678 214.214666 
" style="fill: none; stroke: #7a7a7a; stroke-width: 0.8; stroke-linejoin: miter; stroke-linecap: square"/>
   </g>
   <g id="text_17">
    <text style="font-size: 13px; font-family: 'DejaVu Sans', 'Bitstream Vera Sans', 'Computer Modern Sans Serif', 'Lucida Grande', 'Verdana', 'Geneva', 'Lucid', 'Arial', 'Helvetica', 'Avant Garde', sans-serif; text-anchor: middle; fill: #7a7a7a" x="321.746768" y="129.32347" transform="rotate(-0 321.746768 129.32347)">±1σ (~68%)</text>
   </g>
   <g id="text_18">
    <text style="font-size: 13px; font-family: 'DejaVu Sans', 'Bitstream Vera Sans', 'Computer Modern Sans Serif', 'Lucida Grande', 'Verdana', 'Geneva', 'Lucid', 'Arial', 'Helvetica', 'Avant Garde', sans-serif; text-anchor: middle; fill: #7a7a7a" x="321.746768" y="188.293344" transform="rotate(-0 321.746768 188.293344)">±2σ (~95%)</text>
   </g>
  </g>
 </g>
 <defs>
  <clipPath id="pa0267093e8">
   <rect x="57.055859" y="7.2" width="529.381818" height="207.014666"/>
  </clipPath>
 </defs>
</svg>
