<?xml version="1.0" encoding="utf-8" standalone="no"?>
<!DOCTYPE svg PUBLIC "-//W3C//DTD SVG 1.1//EN"
  "http://www.w3.org/Graphics/SVG/1.1/DTD/svg11.dtd">
<svg xmlns:xlink="http://www.w3.org/1999/xlink" width="528.269318pt" height="312.644616pt" viewBox="0 0 528.269318 312.644616" xmlns="http://www.w3.org/2000/svg" version="1.1">
 <metadata>
  <rdf:RDF xmlns:dc="http://purl.org/dc/elements/1.1/" xmlns:cc="http://creativecommons.org/ns#" xmlns:rdf="http://www.w3.org/1999/02/22-rdf-syntax-ns#">
   <cc:Work>
    <dc:type rdf:resource="http://purl.org/dc/dcmitype/StillImage"/>
    <dc:date>2026-07-02T18:31:44.663255</dc:date>
    <dc:format>image/svg+xml</dc:format>
    <dc:creator>
     <cc:Agent>
      <dc:title>Matplotlib v3.11.0, https://matplotlib.org/</dc:title>
     </cc:Agent>
    </dc:creator>
   </cc:Work>
  </rdf:RDF>
 </metadata>
 <defs>
  <style type="text/css">*{stroke-linejoin: round; stroke-linecap: butt}</style>
 </defs>
 <g id="figure_1">
  <g id="patch_1">
   <path d="M 0 312.644616 
L 528.269318 312.644616 
L 528.269318 0 
L 0 0 
L 0 312.644616 
z
" style="fill: none; opacity: 0"/>
  </g>
  <g id="axes_1">
   <g id="patch_2">
    <path d="M 52.291016 264.441101 
L 521.069318 264.441101 
L 521.069318 26.117344 
L 52.291016 26.117344 
L 52.291016 264.441101 
z
" style="fill: none; opacity: 0"/>
   </g>
   <g id="matplotlib.axis_1">
    <g id="xtick_1">
     <g id="line2d_1">
      <path d="M 96.658073 264.441101 
L 96.658073 26.117344 
" clip-path="url(#p23fed8ca8d)" style="fill: none; stroke: #7a7a7a; stroke-opacity: 0.3; stroke-width: 0.8; stroke-linecap: square"/>
     </g>
     <g id="line2d_2">
      <defs>
       <path id="mc1f2199428" d="M 0 0 
L 0 3.5 
" style="stroke: #7a7a7a; stroke-width: 0.8"/>
      </defs>
      <g>
       <use xlink:href="#mc1f2199428" x="96.658073" y="264.441101" style="fill: #7a7a7a; stroke: #7a7a7a; stroke-width: 0.8"/>
      </g>
     </g>
     <g id="text_1">
      <text style="font-size: 15px; font-family: 'DejaVu Sans', 'Bitstream Vera Sans', 'Computer Modern Sans Serif', 'Lucida Grande', 'Verdana', 'Geneva', 'Lucid', 'Arial', 'Helvetica', 'Avant Garde', sans-serif; text-anchor: middle; fill: #7a7a7a" x="96.658073" y="282.837585" transform="rotate(-0 96.658073 282.837585)">118</text>
     </g>
    </g>
    <g id="xtick_2">
     <g id="line2d_3">
      <path d="M 151.086602 264.441101 
L 151.086602 26.117344 
" clip-path="url(#p23fed8ca8d)" style="fill: none; stroke: #7a7a7a; stroke-opacity: 0.3; stroke-width: 0.8; stroke-linecap: square"/>
     </g>
     <g id="line2d_4">
      <g>
       <use xlink:href="#mc1f2199428" x="151.086602" y="264.441101" style="fill: #7a7a7a; stroke: #7a7a7a; stroke-width: 0.8"/>
      </g>
     </g>
     <g id="text_2">
      <text style="font-size: 15px; font-family: 'DejaVu Sans', 'Bitstream Vera Sans', 'Computer Modern Sans Serif', 'Lucida Grande', 'Verdana', 'Geneva', 'Lucid', 'Arial', 'Helvetica', 'Avant Garde', sans-serif; text-anchor: middle; fill: #7a7a7a" x="151.086602" y="282.837585" transform="rotate(-0 151.086602 282.837585)">119</text>
     </g>
    </g>
    <g id="xtick_3">
     <g id="line2d_5">
      <path d="M 205.515131 264.441101 
L 205.515131 26.117344 
" clip-path="url(#p23fed8ca8d)" style="fill: none; stroke: #7a7a7a; stroke-opacity: 0.3; stroke-width: 0.8; stroke-linecap: square"/>
     </g>
     <g id="line2d_6">
      <g>
       <use xlink:href="#mc1f2199428" x="205.515131" y="264.441101" style="fill: #7a7a7a; stroke: #7a7a7a; stroke-width: 0.8"/>
      </g>
     </g>
     <g id="text_3">
      <text style="font-size: 15px; font-family: 'DejaVu Sans', 'Bitstream Vera Sans', 'Computer Modern Sans Serif', 'Lucida Grande', 'Verdana', 'Geneva', 'Lucid', 'Arial', 'Helvetica', 'Avant Garde', sans-serif; text-anchor: middle; fill: #7a7a7a" x="205.515131" y="282.837585" transform="rotate(-0 205.515131 282.837585)">120</text>
     </g>
    </g>
    <g id="xtick_4">
     <g id="line2d_7">
      <path d="M 259.94366 264.441101 
L 259.94366 26.117344 
" clip-path="url(#p23fed8ca8d)" style="fill: none; stroke: #7a7a7a; stroke-opacity: 0.3; stroke-width: 0.8; stroke-linecap: square"/>
     </g>
     <g id="line2d_8">
      <g>
       <use xlink:href="#mc1f2199428" x="259.94366" y="264.441101" style="fill: #7a7a7a; stroke: #7a7a7a; stroke-width: 0.8"/>
      </g>
     </g>
     <g id="text_4">
      <text style="font-size: 15px; font-family: 'DejaVu Sans', 'Bitstream Vera Sans', 'Computer Modern Sans Serif', 'Lucida Grande', 'Verdana', 'Geneva', 'Lucid', 'Arial', 'Helvetica', 'Avant Garde', sans-serif; text-anchor: middle; fill: #7a7a7a" x="259.94366" y="282.837585" transform="rotate(-0 259.94366 282.837585)">121</text>
     </g>
    </g>
    <g id="xtick_5">
     <g id="line2d_9">
      <path d="M 314.372189 264.441101 
L 314.372189 26.117344 
" clip-path="url(#p23fed8ca8d)" style="fill: none; stroke: #7a7a7a; stroke-opacity: 0.3; stroke-width: 0.8; stroke-linecap: square"/>
     </g>
     <g id="line2d_10">
      <g>
       <use xlink:href="#mc1f2199428" x="314.372189" y="264.441101" style="fill: #7a7a7a; stroke: #7a7a7a; stroke-width: 0.8"/>
      </g>
     </g>
     <g id="text_5">
      <text style="font-size: 15px; font-family: 'DejaVu Sans', 'Bitstream Vera Sans', 'Computer Modern Sans Serif', 'Lucida Grande', 'Verdana', 'Geneva', 'Lucid', 'Arial', 'Helvetica', 'Avant Garde', sans-serif; text-anchor: middle; fill: #7a7a7a" x="314.372189" y="282.837585" transform="rotate(-0 314.372189 282.837585)">122</text>
     </g>
    </g>
    <g id="xtick_6">
     <g id="line2d_11">
      <path d="M 368.800719 264.441101 
L 368.800719 26.117344 
" clip-path="url(#p23fed8ca8d)" style="fill: none; stroke: #7a7a7a; stroke-opacity: 0.3; stroke-width: 0.8; stroke-linecap: square"/>
     </g>
     <g id="line2d_12">
      <g>
       <use xlink:href="#mc1f2199428" x="368.800719" y="264.441101" style="fill: #7a7a7a; stroke: #7a7a7a; stroke-width: 0.8"/>
      </g>
     </g>
     <g id="text_6">
      <text style="font-size: 15px; font-family: 'DejaVu Sans', 'Bitstream Vera Sans', 'Computer Modern Sans Serif', 'Lucida Grande', 'Verdana', 'Geneva', 'Lucid', 'Arial', 'Helvetica', 'Avant Garde', sans-serif; text-anchor: middle; fill: #7a7a7a" x="368.800719" y="282.837585" transform="rotate(-0 368.800719 282.837585)">123</text>
     </g>
    </g>
    <g id="xtick_7">
     <g id="line2d_13">
      <path d="M 423.229248 264.441101 
L 423.229248 26.117344 
" clip-path="url(#p23fed8ca8d)" style="fill: none; stroke: #7a7a7a; stroke-opacity: 0.3; stroke-width: 0.8; stroke-linecap: square"/>
     </g>
     <g id="line2d_14">
      <g>
       <use xlink:href="#mc1f2199428" x="423.229248" y="264.441101" style="fill: #7a7a7a; stroke: #7a7a7a; stroke-width: 0.8"/>
      </g>
     </g>
     <g id="text_7">
      <text style="font-size: 15px; font-family: 'DejaVu Sans', 'Bitstream Vera Sans', 'Computer Modern Sans Serif', 'Lucida Grande', 'Verdana', 'Geneva', 'Lucid', 'Arial', 'Helvetica', 'Avant Garde', sans-serif; text-anchor: middle; fill: #7a7a7a" x="423.229248" y="282.837585" transform="rotate(-0 423.229248 282.837585)">124</text>
     </g>
    </g>
    <g id="xtick_8">
     <g id="line2d_15">
      <path d="M 477.657777 264.441101 
L 477.657777 26.117344 
" clip-path="url(#p23fed8ca8d)" style="fill: none; stroke: #7a7a7a; stroke-opacity: 0.3; stroke-width: 0.8; stroke-linecap: square"/>
     </g>
     <g id="line2d_16">
      <g>
       <use xlink:href="#mc1f2199428" x="477.657777" y="264.441101" style="fill: #7a7a7a; stroke: #7a7a7a; stroke-width: 0.8"/>
      </g>
     </g>
     <g id="text_8">
      <text style="font-size: 15px; font-family: 'DejaVu Sans', 'Bitstream Vera Sans', 'Computer Modern Sans Serif', 'Lucida Grande', 'Verdana', 'Geneva', 'Lucid', 'Arial', 'Helvetica', 'Avant Garde', sans-serif; text-anchor: middle; fill: #7a7a7a" x="477.657777" y="282.837585" transform="rotate(-0 477.657777 282.837585)">125</text>
     </g>
    </g>
    <g id="text_9">
     <!-- $w_0$  (intercept) -->
     <g style="fill: #7a7a7a" transform="translate(232.605167 301.841101)">
      <text>
       <tspan x="0" y="-0.609375" style="font-style: oblique; font-size: 15px; font-family: 'DejaVu Sans'; fill: #7a7a7a">w</tspan>
       <tspan x="12.268066" y="1.640618" style="font-size: 10.5px; font-family: 'DejaVu Sans'; fill: #7a7a7a">0</tspan>
       <tspan x="19.358643" y="-0.609375" style="font-size: 15px; font-family: 'DejaVu Sans'; fill: #7a7a7a"> </tspan>
       <tspan x="24.126709" y="-0.609375" style="font-size: 15px; font-family: 'DejaVu Sans'; fill: #7a7a7a"> </tspan>
       <tspan x="28.894775" y="-0.609375" style="font-size: 15px; font-family: 'DejaVu Sans'; fill: #7a7a7a">(</tspan>
       <tspan x="34.746826" y="-0.609375" style="font-size: 15px; font-family: 'DejaVu Sans'; fill: #7a7a7a">i</tspan>
       <tspan x="38.914307" y="-0.609375" style="font-size: 15px; font-family: 'DejaVu Sans'; fill: #7a7a7a">n</tspan>
       <tspan x="48.421143" y="-0.609375" style="font-size: 15px; font-family: 'DejaVu Sans'; fill: #7a7a7a">t</tspan>
       <tspan x="54.30249" y="-0.609375" style="font-size: 15px; font-family: 'DejaVu Sans'; fill: #7a7a7a">e</tspan>
       <tspan x="63.531006" y="-0.609375" style="font-size: 15px; font-family: 'DejaVu Sans'; fill: #7a7a7a">r</tspan>
       <tspan x="69.697998" y="-0.609375" style="font-size: 15px; font-family: 'DejaVu Sans'; fill: #7a7a7a">c</tspan>
       <tspan x="77.945068" y="-0.609375" style="font-size: 15px; font-family: 'DejaVu Sans'; fill: #7a7a7a">e</tspan>
       <tspan x="87.173584" y="-0.609375" style="font-size: 15px; font-family: 'DejaVu Sans'; fill: #7a7a7a">p</tspan>
       <tspan x="96.695068" y="-0.609375" style="font-size: 15px; font-family: 'DejaVu Sans'; fill: #7a7a7a">t</tspan>
       <tspan x="102.576416" y="-0.609375" style="font-size: 15px; font-family: 'DejaVu Sans'; fill: #7a7a7a">)</tspan>
      </text>
     </g>
    </g>
   </g>
   <g id="matplotlib.axis_2">
    <g id="ytick_1">
     <g id="line2d_17">
      <path d="M 52.291016 212.010456 
L 521.069318 212.010456 
" clip-path="url(#p23fed8ca8d)" style="fill: none; stroke: #7a7a7a; stroke-opacity: 0.3; stroke-width: 0.8; stroke-linecap: square"/>
     </g>
     <g id="line2d_18">
      <defs>
       <path id="m0fb7803eb7" d="M 0 0 
L -3.5 0 
" style="stroke: #7a7a7a; stroke-width: 0.8"/>
      </defs>
      <g>
       <use xlink:href="#m0fb7803eb7" x="52.291016" y="212.010456" style="fill: #7a7a7a; stroke: #7a7a7a; stroke-width: 0.8"/>
      </g>
     </g>
     <g id="text_10">
      <text style="font-size: 15px; font-family: 'DejaVu Sans', 'Bitstream Vera Sans', 'Computer Modern Sans Serif', 'Lucida Grande', 'Verdana', 'Geneva', 'Lucid', 'Arial', 'Helvetica', 'Avant Garde', sans-serif; text-anchor: end; fill: #7a7a7a" x="45.291016" y="217.708698" transform="rotate(-0 45.291016 217.708698)">4</text>
     </g>
    </g>
    <g id="ytick_2">
     <g id="line2d_19">
      <path d="M 52.291016 158.251819 
L 521.069318 158.251819 
" clip-path="url(#p23fed8ca8d)" style="fill: none; stroke: #7a7a7a; stroke-opacity: 0.3; stroke-width: 0.8; stroke-linecap: square"/>
     </g>
     <g id="line2d_20">
      <g>
       <use xlink:href="#m0fb7803eb7" x="52.291016" y="158.251819" style="fill: #7a7a7a; stroke: #7a7a7a; stroke-width: 0.8"/>
      </g>
     </g>
     <g id="text_11">
      <text style="font-size: 15px; font-family: 'DejaVu Sans', 'Bitstream Vera Sans', 'Computer Modern Sans Serif', 'Lucida Grande', 'Verdana', 'Geneva', 'Lucid', 'Arial', 'Helvetica', 'Avant Garde', sans-serif; text-anchor: end; fill: #7a7a7a" x="45.291016" y="163.950061" transform="rotate(-0 45.291016 163.950061)">6</text>
     </g>
    </g>
    <g id="ytick_3">
     <g id="line2d_21">
      <path d="M 52.291016 104.493182 
L 521.069318 104.493182 
" clip-path="url(#p23fed8ca8d)" style="fill: none; stroke: #7a7a7a; stroke-opacity: 0.3; stroke-width: 0.8; stroke-linecap: square"/>
     </g>
     <g id="line2d_22">
      <g>
       <use xlink:href="#m0fb7803eb7" x="52.291016" y="104.493182" style="fill: #7a7a7a; stroke: #7a7a7a; stroke-width: 0.8"/>
      </g>
     </g>
     <g id="text_12">
      <text style="font-size: 15px; font-family: 'DejaVu Sans', 'Bitstream Vera Sans', 'Computer Modern Sans Serif', 'Lucida Grande', 'Verdana', 'Geneva', 'Lucid', 'Arial', 'Helvetica', 'Avant Garde', sans-serif; text-anchor: end; fill: #7a7a7a" x="45.291016" y="110.191424" transform="rotate(-0 45.291016 110.191424)">8</text>
     </g>
    </g>
    <g id="ytick_4">
     <g id="line2d_23">
      <path d="M 52.291016 50.734544 
L 521.069318 50.734544 
" clip-path="url(#p23fed8ca8d)" style="fill: none; stroke: #7a7a7a; stroke-opacity: 0.3; stroke-width: 0.8; stroke-linecap: square"/>
     </g>
     <g id="line2d_24">
      <g>
       <use xlink:href="#m0fb7803eb7" x="52.291016" y="50.734544" style="fill: #7a7a7a; stroke: #7a7a7a; stroke-width: 0.8"/>
      </g>
     </g>
     <g id="text_13">
      <text style="font-size: 15px; font-family: 'DejaVu Sans', 'Bitstream Vera Sans', 'Computer Modern Sans Serif', 'Lucida Grande', 'Verdana', 'Geneva', 'Lucid', 'Arial', 'Helvetica', 'Avant Garde', sans-serif; text-anchor: end; fill: #7a7a7a" x="45.291016" y="56.432786" transform="rotate(-0 45.291016 56.432786)">10</text>
     </g>
    </g>
    <g id="text_14">
     <!-- $w_1$  (slope) -->
     <g style="fill: #7a7a7a" transform="translate(18.6 185.554222) rotate(-90)">
      <text>
       <tspan x="0" y="-0.609375" style="font-style: oblique; font-size: 15px; font-family: 'DejaVu Sans'; fill: #7a7a7a">w</tspan>
       <tspan x="12.268066" y="1.640618" style="font-size: 10.5px; font-family: 'DejaVu Sans'; fill: #7a7a7a">1</tspan>
       <tspan x="19.358643" y="-0.609375" style="font-size: 15px; font-family: 'DejaVu Sans'; fill: #7a7a7a"> </tspan>
       <tspan x="24.126709" y="-0.609375" style="font-size: 15px; font-family: 'DejaVu Sans'; fill: #7a7a7a"> </tspan>
       <tspan x="28.894775" y="-0.609375" style="font-size: 15px; font-family: 'DejaVu Sans'; fill: #7a7a7a">(</tspan>
       <tspan x="34.746826" y="-0.609375" style="font-size: 15px; font-family: 'DejaVu Sans'; fill: #7a7a7a">s</tspan>
       <tspan x="42.561768" y="-0.609375" style="font-size: 15px; font-family: 'DejaVu Sans'; fill: #7a7a7a">l</tspan>
       <tspan x="46.729248" y="-0.609375" style="font-size: 15px; font-family: 'DejaVu Sans'; fill: #7a7a7a">o</tspan>
       <tspan x="55.906494" y="-0.609375" style="font-size: 15px; font-family: 'DejaVu Sans'; fill: #7a7a7a">p</tspan>
       <tspan x="65.427979" y="-0.609375" style="font-size: 15px; font-family: 'DejaVu Sans'; fill: #7a7a7a">e</tspan>
       <tspan x="74.656494" y="-0.609375" style="font-size: 15px; font-family: 'DejaVu Sans'; fill: #7a7a7a">)</tspan>
      </text>
     </g>
    </g>
   </g>
   <g id="line2d_25">
    <path d="M 82.790622 174.820879 
L 81.233424 172.070952 
L 79.818211 169.302509 
L 78.545961 166.517463 
L 77.417552 163.71774 
L 76.433765 160.905274 
L 75.595279 158.082009 
L 74.902675 155.249896 
L 74.35643 152.410892 
L 73.956922 149.566959 
L 73.704427 146.720063 
L 73.59912 143.872171 
L 73.641074 141.025252 
L 73.830259 138.181272 
L 74.166545 135.342198 
L 74.6497 132.509991 
L 75.279389 129.686608 
L 76.055177 126.874002 
L 76.976528 124.074115 
L 78.042806 121.288883 
L 79.253273 118.520231 
L 80.607093 115.770071 
L 82.103331 113.040305 
L 83.740952 110.33282 
L 85.518824 107.649485 
L 87.435719 104.992157 
L 89.490313 102.36267 
L 91.681184 99.762843 
L 94.00682 97.194472 
L 96.465612 94.659332 
L 99.055862 92.159175 
L 101.77578 89.69573 
L 104.623485 87.270698 
L 110.6943 82.54255 
L 117.251527 77.9878 
L 124.277043 73.619038 
L 131.75143 69.448337 
L 139.65403 65.487226 
L 147.963001 61.746653 
L 156.655376 58.236956 
L 165.707132 54.967835 
L 175.093251 51.948327 
L 184.787789 49.186776 
L 194.763951 46.690816 
L 204.994166 44.467345 
L 215.450157 42.522509 
L 226.103024 40.861683 
L 236.923325 39.489457 
L 247.881153 38.409624 
L 258.946222 37.625169 
L 270.087948 37.13826 
L 281.275537 36.950242 
L 292.478067 37.061635 
L 303.664577 37.472132 
L 314.804146 38.180597 
L 325.865987 39.185074 
L 336.819525 40.482784 
L 347.634486 42.070142 
L 358.280979 43.942761 
L 368.729577 46.095464 
L 378.951401 48.522301 
L 388.918199 51.216566 
L 398.602425 54.170811 
L 407.97731 57.376871 
L 417.016945 60.825885 
L 425.696345 64.50832 
L 433.991519 68.413999 
L 441.879542 72.532125 
L 449.338612 76.851318 
L 456.348112 81.359639 
L 462.888668 86.044627 
L 468.942204 90.893335 
L 471.781056 93.374912 
L 474.491987 95.89236 
L 477.073122 98.443938 
L 479.522679 101.027885 
L 481.838963 103.642413 
L 484.020375 106.285716 
L 486.065406 108.955968 
L 487.972644 111.651322 
L 489.74077 114.369917 
L 491.368562 117.109872 
L 492.854896 119.869296 
L 494.198744 122.64628 
L 495.399177 125.438905 
L 496.455367 128.245242 
L 497.366582 131.063351 
L 498.132193 133.891285 
L 498.751671 136.727088 
L 499.224589 139.568802 
L 499.550618 142.414462 
L 499.729534 145.262102 
L 499.761214 148.109754 
L 499.645634 150.955449 
L 499.382876 153.797222 
L 498.97312 156.633108 
L 498.41665 159.461147 
L 497.713851 162.279385 
L 496.865208 165.085874 
L 495.871308 167.878674 
L 494.732837 170.655856 
L 493.450582 173.415501 
L 492.02543 176.1557 
L 490.458366 178.874561 
L 488.750471 181.570204 
L 486.902928 184.240766 
L 484.917012 186.884402 
L 482.794096 189.499285 
L 480.535648 192.083607 
L 478.143227 194.635583 
L 475.618487 197.153449 
L 472.963174 199.635464 
L 470.179122 202.079914 
L 464.232586 206.849388 
L 457.795315 211.448686 
L 450.8851 215.865098 
L 443.521042 220.086417 
L 435.723492 224.100975 
L 427.514004 227.897676 
L 418.915268 231.466027 
L 409.951049 234.796166 
L 400.646124 237.878887 
L 391.026211 240.705671 
L 381.117899 243.268704 
L 370.948573 245.560903 
L 360.54634 247.575932 
L 349.939951 249.308222 
L 339.158721 250.752985 
L 328.232449 251.906228 
L 317.191334 252.764762 
L 306.065892 253.326217 
L 294.886873 253.589038 
L 283.685175 253.552501 
L 272.491759 253.216706 
L 261.337561 252.582581 
L 250.253412 251.65188 
L 239.269947 250.427173 
L 228.417523 248.911846 
L 217.726135 247.110088 
L 207.225333 245.026879 
L 196.944141 242.667975 
L 186.910975 240.039898 
L 177.153565 237.14991 
L 167.698881 234.006 
L 158.573053 230.616856 
L 149.801306 226.991847 
L 141.407883 223.140991 
L 133.415983 219.074932 
L 125.847695 214.804908 
L 118.723937 210.34272 
L 112.064399 205.700703 
L 105.887486 200.891686 
L 100.210272 195.928961 
L 97.56401 193.394229 
L 95.048447 190.826244 
L 92.66532 188.226782 
L 90.416278 185.597639 
L 88.302874 182.940632 
L 86.326569 180.257598 
L 84.488728 177.550389 
L 82.790622 174.820879 
L 82.790622 174.820879 
" clip-path="url(#p23fed8ca8d)" style="fill: none; stroke-dasharray: 8.88,3.84; stroke-dashoffset: 0; stroke: #e69f00; stroke-width: 2.4"/>
    <defs>
     <path id="m8bd63a3668" d="M -3.5 3.5 
L 3.5 3.5 
L 3.5 -3.5 
L -3.5 -3.5 
z
" style="stroke: #e69f00; stroke-linejoin: miter"/>
    </defs>
    <g clip-path="url(#p23fed8ca8d)">
     <use xlink:href="#m8bd63a3668" x="82.790622" y="174.820879" style="fill: #e69f00; stroke: #e69f00; stroke-linejoin: miter"/>
     <use xlink:href="#m8bd63a3668" x="99.055862" y="92.159175" style="fill: #e69f00; stroke: #e69f00; stroke-linejoin: miter"/>
     <use xlink:href="#m8bd63a3668" x="226.103024" y="40.861683" style="fill: #e69f00; stroke: #e69f00; stroke-linejoin: miter"/>
     <use xlink:href="#m8bd63a3668" x="388.918199" y="51.216566" style="fill: #e69f00; stroke: #e69f00; stroke-linejoin: miter"/>
     <use xlink:href="#m8bd63a3668" x="491.368562" y="117.109872" style="fill: #e69f00; stroke: #e69f00; stroke-linejoin: miter"/>
     <use xlink:href="#m8bd63a3668" x="472.963174" y="199.635464" style="fill: #e69f00; stroke: #e69f00; stroke-linejoin: miter"/>
     <use xlink:href="#m8bd63a3668" x="344.569339" y="250.066813" style="fill: #e69f00; stroke: #e69f00; stroke-linejoin: miter"/>
     <use xlink:href="#m8bd63a3668" x="181.996096" y="238.62716" style="fill: #e69f00; stroke: #e69f00; stroke-linejoin: miter"/>
    </g>
   </g>
   <g id="line2d_26">
    <path d="M 310.965837 145.279111 
L 310.83169 144.020301 
L 310.430731 142.775399 
L 309.76739 141.558158 
L 308.848996 140.382025 
L 307.685695 139.259996 
L 306.290338 138.204466 
L 304.678343 137.227097 
L 302.386044 136.131657 
L 299.822785 135.194043 
L 297.032792 134.430432 
L 294.0642 133.854 
L 290.968231 133.474691 
L 287.798299 133.29905 
L 284.609097 133.330108 
L 281.455651 133.567329 
L 278.392369 134.00662 
L 275.472103 134.640401 
L 272.745237 135.457737 
L 270.258821 136.444527 
L 268.055754 137.583746 
L 266.523036 138.59174 
L 265.213028 139.673616 
L 264.140203 140.817421 
L 263.316414 142.010519 
L 262.750762 143.239729 
L 262.449496 144.49147 
L 262.415945 145.751913 
L 262.650479 147.007132 
L 263.150507 148.24326 
L 263.910506 149.44664 
L 264.922077 150.603977 
L 266.174046 151.702485 
L 267.652581 152.730028 
L 269.341347 153.675253 
L 271.719314 154.725211 
L 274.35543 155.612191 
L 277.204214 156.320889 
L 280.216514 156.839077 
L 283.340357 157.157814 
L 286.521846 157.271601 
L 289.706089 157.178476 
L 292.838146 156.880044 
L 295.863978 156.381455 
L 298.731379 155.69131 
L 301.390876 154.821519 
L 303.796583 153.787087 
L 305.906993 152.605862 
L 307.358051 151.568811 
L 308.580674 150.462271 
L 309.561354 149.298467 
L 310.289257 148.090257 
L 310.756341 146.85099 
L 310.957445 145.594357 
L 310.965837 145.279111 
L 310.965837 145.279111 
" clip-path="url(#p23fed8ca8d)" style="fill: none; stroke: #009e73; stroke-width: 2.4; stroke-linecap: square"/>
    <defs>
     <path id="me846c463e5" d="M 0 3.5 
C 0.928211 3.5 1.81853 3.131218 2.474874 2.474874 
C 3.131218 1.81853 3.5 0.928211 3.5 0 
C 3.5 -0.928211 3.131218 -1.81853 2.474874 -2.474874 
C 1.81853 -3.131218 0.928211 -3.5 0 -3.5 
C -0.928211 -3.5 -1.81853 -3.131218 -2.474874 -2.474874 
C -3.131218 -1.81853 -3.5 -0.928211 -3.5 0 
C -3.5 0.928211 -3.131218 1.81853 -2.474874 2.474874 
C -1.81853 3.131218 -0.928211 3.5 0 3.5 
z
" style="stroke: #009e73"/>
    </defs>
    <g clip-path="url(#p23fed8ca8d)">
     <use xlink:href="#me846c463e5" x="310.965837" y="145.279111" style="fill: #009e73; stroke: #009e73"/>
     <use xlink:href="#me846c463e5" x="303.796583" y="136.771134" style="fill: #009e73; stroke: #009e73"/>
     <use xlink:href="#me846c463e5" x="286.521846" y="133.28662" style="fill: #009e73; stroke: #009e73"/>
     <use xlink:href="#me846c463e5" x="269.341347" y="136.882969" style="fill: #009e73; stroke: #009e73"/>
     <use xlink:href="#me846c463e5" x="262.399164" y="145.436748" style="fill: #009e73; stroke: #009e73"/>
     <use xlink:href="#me846c463e5" x="269.794249" y="153.897451" style="fill: #009e73; stroke: #009e73"/>
     <use xlink:href="#me846c463e5" x="287.160238" y="157.269529" style="fill: #009e73; stroke: #009e73"/>
     <use xlink:href="#me846c463e5" x="304.243532" y="153.561967" style="fill: #009e73; stroke: #009e73"/>
    </g>
   </g>
   <g id="line2d_27">
    <path d="M 286.681451 145.279111 
" clip-path="url(#p23fed8ca8d)" style="fill: none; stroke: #cc79a7; stroke-width: 2.4; stroke-linecap: square"/>
    <defs>
     <path id="m22bd3b825c" d="M -6 0 
L 6 0 
M 0 6 
L 0 -6 
" style="stroke: #cc79a7"/>
    </defs>
    <g clip-path="url(#p23fed8ca8d)">
     <use xlink:href="#m22bd3b825c" x="286.681451" y="145.279111" style="fill: #cc79a7; stroke: #cc79a7"/>
    </g>
   </g>
   <g id="patch_3">
    <path d="M 52.291016 264.441101 
L 52.291016 26.117344 
" style="fill: none; stroke: #7a7a7a; stroke-width: 0.8; stroke-linejoin: miter; stroke-linecap: square"/>
   </g>
   <g id="patch_4">
    <path d="M 52.291016 264.441101 
L 521.069318 264.441101 
" style="fill: none; stroke: #7a7a7a; stroke-width: 0.8; stroke-linejoin: miter; stroke-linecap: square"/>
   </g>
   <g id="text_15">
    <text style="font-size: 17px; font-family: 'DejaVu Sans', 'Bitstream Vera Sans', 'Computer Modern Sans Serif', 'Lucida Grande', 'Verdana', 'Geneva', 'Lucid', 'Arial', 'Helvetica', 'Avant Garde', sans-serif; text-anchor: middle; fill: #7a7a7a" x="286.680167" y="20.117344" transform="rotate(-0 286.680167 20.117344)">parameter-uncertainty snapshot (placeholder)</text>
   </g>
   <g id="legend_1">
    <g id="line2d_28">
     <path d="M 424.048693 43.145312 
L 437.048693 43.145312 
L 450.048693 43.145312 
" style="fill: none; stroke-dasharray: 8.88,3.84; stroke-dashoffset: 0; stroke: #e69f00; stroke-width: 2.4"/>
     <g>
      <use xlink:href="#m8bd63a3668" x="437.048693" y="43.145312" style="fill: #e69f00; stroke: #e69f00; stroke-linejoin: miter"/>
     </g>
    </g>
    <g id="text_16">
     <text style="font-size: 13px; font-family: 'DejaVu Sans', 'Bitstream Vera Sans', 'Computer Modern Sans Serif', 'Lucida Grande', 'Verdana', 'Geneva', 'Lucid', 'Arial', 'Helvetica', 'Avant Garde', sans-serif; text-anchor: start; fill: #7a7a7a" x="460.448693" y="47.695312" transform="rotate(-0 460.448693 47.695312)">N = 40</text>
    </g>
    <g id="line2d_29">
     <path d="M 424.048693 62.646328 
L 437.048693 62.646328 
L 450.048693 62.646328 
" style="fill: none; stroke: #009e73; stroke-width: 2.4; stroke-linecap: square"/>
     <g>
      <use xlink:href="#me846c463e5" x="437.048693" y="62.646328" style="fill: #009e73; stroke: #009e73"/>
     </g>
    </g>
    <g id="text_17">
     <text style="font-size: 13px; font-family: 'DejaVu Sans', 'Bitstream Vera Sans', 'Computer Modern Sans Serif', 'Lucida Grande', 'Verdana', 'Geneva', 'Lucid', 'Arial', 'Helvetica', 'Avant Garde', sans-serif; text-anchor: start; fill: #7a7a7a" x="460.448693" y="67.196328" transform="rotate(-0 460.448693 67.196328)">N = full</text>
    </g>
   </g>
  </g>
 </g>
 <defs>
  <clipPath id="p23fed8ca8d">
   <rect x="52.291016" y="26.117344" width="468.778303" height="238.323757"/>
  </clipPath>
 </defs>
</svg>
